<svg xmlns="http://www.w3.org/2000/svg" xmlns:xlink="http://www.w3.org/1999/xlink" width="500" zoomAndPan="magnify" viewBox="0 0 375 374.999991" height="500" preserveAspectRatio="xMidYMid meet" version="1.0"><defs><filter x="0%" y="0%" width="100%" height="100%" id="13bae42370"><feColorMatrix values="0 0 0 0 1 0 0 0 0 1 0 0 0 0 1 0 0 0 1 0" color-interpolation-filters="sRGB"/></filter><clipPath id="90185a56fd"><path d="M 37.5 264 L 337.5 264 L 337.5 274 L 37.5 274 Z M 37.5 264 " clip-rule="nonzero"/></clipPath><mask id="0770da2033"><g filter="url(#13bae42370)"><rect x="-37.5" width="450" fill="#000000" y="-37.499999" height="449.999989" fill-opacity="0.5"/></g></mask><clipPath id="fb99f06dc9"><path d="M 1 14 L 10 14 L 10 30 L 1 30 Z M 1 14 " clip-rule="nonzero"/></clipPath><clipPath id="bddd8a4991"><path d="M -9.609375 -3.035156 C -9.609375 -3.035156 -13.234375 -0.0234375 -13.234375 3.136719 C -13.234375 6.300781 -11.535156 8.921875 -12.5 10.808594 C -13.46875 12.695312 -14.660156 13.96875 -14.582031 15.085938 C -14.507812 16.203125 -12.964844 17.132812 -12.964844 17.132812 L 1.035156 23.761719 L 3.5 29.894531 L 20.734375 25.617188 L 17.453125 19.714844 L 7.65625 -2.113281 L -9.617188 -3.039062 Z M -9.609375 -3.035156 " clip-rule="nonzero"/></clipPath><clipPath id="b31e204f34"><path d="M 1 14 L 10.679688 14 L 10.679688 30 L 1 30 Z M 1 14 " clip-rule="nonzero"/></clipPath><clipPath id="5bf9dba8f6"><path d="M -9.609375 -3.035156 C -9.609375 -3.035156 -13.234375 -0.0234375 -13.234375 3.136719 C -13.234375 6.300781 -11.535156 8.921875 -12.5 10.808594 C -13.46875 12.695312 -14.660156 13.96875 -14.582031 15.085938 C -14.507812 16.203125 -12.964844 17.132812 -12.964844 17.132812 L 1.035156 23.761719 L 3.5 29.894531 L 20.734375 25.617188 L 17.453125 19.714844 L 7.65625 -2.113281 L -9.617188 -3.039062 Z M -9.609375 -3.035156 " clip-rule="nonzero"/></clipPath><clipPath id="826d781aa2"><path d="M 0.359375 1 L 9 1 L 9 9 L 0.359375 9 Z M 0.359375 1 " clip-rule="nonzero"/></clipPath><clipPath id="8590a103ba"><path d="M -9.609375 -3.035156 C -9.609375 -3.035156 -13.234375 -0.0234375 -13.234375 3.136719 C -13.234375 6.300781 -11.535156 8.921875 -12.5 10.808594 C -13.46875 12.695312 -14.660156 13.96875 -14.582031 15.085938 C -14.507812 16.203125 -12.964844 17.132812 -12.964844 17.132812 L 1.035156 23.761719 L 3.5 29.894531 L 20.734375 25.617188 L 17.453125 19.714844 L 7.65625 -2.113281 L -9.617188 -3.039062 Z M -9.609375 -3.035156 " clip-rule="nonzero"/></clipPath><clipPath id="81e479b446"><rect x="0" width="11" y="0" height="32"/></clipPath><mask id="00ba81d4cd"><g filter="url(#13bae42370)"><rect x="-37.5" width="450" fill="#000000" y="-37.499999" height="449.999989" fill-opacity="0.5"/></g></mask><clipPath id="36d644e586"><path d="M 1 19 L 66.671875 19 L 66.671875 54.980469 L 1 54.980469 Z M 1 19 " clip-rule="nonzero"/></clipPath><clipPath id="0723dc191b"><path d="M 61.351562 23.644531 C 61.351562 23.644531 47.929688 33.75 43.382812 32.355469 C 38.835938 30.972656 15.335938 8.753906 15.335938 8.753906 C 15.335938 8.753906 16.207031 -3.636719 11.636719 -3.324219 C 7.054688 -3.015625 10.300781 0.425781 9.886719 1.660156 C 9.886719 1.660156 5.207031 3.71875 2.941406 0.683594 L 3.042969 -4.867188 C 3.042969 -4.867188 -1.6875 -5.175781 -3.28125 -1.425781 C -3.28125 -1.425781 -8.164062 -2.609375 -8.117188 3.410156 C -8.117188 3.410156 -11.09375 5.46875 -9.816406 8.503906 C -9.816406 8.503906 -12.792969 5.933594 -13.722656 7.375 C -14.652344 8.816406 -13.515625 12.15625 -10.636719 13.699219 C -7.757812 15.242188 -0.609375 17.296875 0.828125 19.355469 C 2.269531 21.414062 23.167969 51.644531 39.753906 54.421875 C 56.335938 57.199219 66.125 47.867188 66.125 47.867188 L 61.347656 23.652344 Z M 61.351562 23.644531 " clip-rule="nonzero"/></clipPath><clipPath id="6e1a624ba9"><path d="M 0.640625 19 L 66.671875 19 L 66.671875 54.980469 L 0.640625 54.980469 Z M 0.640625 19 " clip-rule="nonzero"/></clipPath><clipPath id="83c2e199ef"><path d="M 61.351562 23.644531 C 61.351562 23.644531 47.929688 33.75 43.382812 32.355469 C 38.835938 30.972656 15.335938 8.753906 15.335938 8.753906 C 15.335938 8.753906 16.207031 -3.636719 11.636719 -3.324219 C 7.054688 -3.015625 10.300781 0.425781 9.886719 1.660156 C 9.886719 1.660156 5.207031 3.71875 2.941406 0.683594 L 3.042969 -4.867188 C 3.042969 -4.867188 -1.6875 -5.175781 -3.28125 -1.425781 C -3.28125 -1.425781 -8.164062 -2.609375 -8.117188 3.410156 C -8.117188 3.410156 -11.09375 5.46875 -9.816406 8.503906 C -9.816406 8.503906 -12.792969 5.933594 -13.722656 7.375 C -14.652344 8.816406 -13.515625 12.15625 -10.636719 13.699219 C -7.757812 15.242188 -0.609375 17.296875 0.828125 19.355469 C 2.269531 21.414062 23.167969 51.644531 39.753906 54.421875 C 56.335938 57.199219 66.125 47.867188 66.125 47.867188 L 61.347656 23.652344 Z M 61.351562 23.644531 " clip-rule="nonzero"/></clipPath><clipPath id="3aaa53a070"><path d="M 2 0.359375 L 10 0.359375 L 10 4 L 2 4 Z M 2 0.359375 " clip-rule="nonzero"/></clipPath><clipPath id="fafa686775"><path d="M 61.351562 23.644531 C 61.351562 23.644531 47.929688 33.75 43.382812 32.355469 C 38.835938 30.972656 15.335938 8.753906 15.335938 8.753906 C 15.335938 8.753906 16.207031 -3.636719 11.636719 -3.324219 C 7.054688 -3.015625 10.300781 0.425781 9.886719 1.660156 C 9.886719 1.660156 5.207031 3.71875 2.941406 0.683594 L 3.042969 -4.867188 C 3.042969 -4.867188 -1.6875 -5.175781 -3.28125 -1.425781 C -3.28125 -1.425781 -8.164062 -2.609375 -8.117188 3.410156 C -8.117188 3.410156 -11.09375 5.46875 -9.816406 8.503906 C -9.816406 8.503906 -12.792969 5.933594 -13.722656 7.375 C -14.652344 8.816406 -13.515625 12.15625 -10.636719 13.699219 C -7.757812 15.242188 -0.609375 17.296875 0.828125 19.355469 C 2.269531 21.414062 23.167969 51.644531 39.753906 54.421875 C 56.335938 57.199219 66.125 47.867188 66.125 47.867188 L 61.347656 23.652344 Z M 61.351562 23.644531 " clip-rule="nonzero"/></clipPath><clipPath id="0afd79895b"><rect x="0" width="67" y="0" height="57"/></clipPath><clipPath id="9948d26d9a"><path d="M 212 206 L 308 206 L 308 285.375 L 212 285.375 Z M 212 206 " clip-rule="nonzero"/></clipPath><clipPath id="7c5c8e7675"><path d="M 216 248 L 246 248 L 246 285.375 L 216 285.375 Z M 216 248 " clip-rule="nonzero"/></clipPath><mask id="b222751bc5"><g filter="url(#13bae42370)"><rect x="-37.5" width="450" fill="#000000" y="-37.499999" height="449.999989" fill-opacity="0.5"/></g></mask><clipPath id="dfc279135e"><path d="M 1 1 L 29.761719 1 L 29.761719 37.1875 L 1 37.1875 Z M 1 1 " clip-rule="nonzero"/></clipPath><clipPath id="c9fee5f1c5"><path d="M -3.1875 -18.359375 C -3.1875 -18.359375 20.796875 -35.789062 27.277344 -38.101562 C 33.757812 -40.417969 40.386719 -42.34375 42.625 -41.03125 C 44.863281 -39.722656 60.984375 -32.085938 65.066406 -26.996094 C 69.15625 -21.902344 86.246094 -3.394531 91.082031 36.296875 L 23.960938 37.167969 C 23.960938 37.167969 24.960938 16.1875 16.476562 9.632812 C 16.476562 9.632812 4.960938 12.953125 2.339844 12.074219 C 2.339844 12.074219 -5.574219 -1.707031 -3.1875 -18.363281 Z M -3.1875 -18.359375 " clip-rule="nonzero"/></clipPath><clipPath id="82c99483ec"><rect x="0" width="30" y="0" height="38"/></clipPath><clipPath id="aedc9208f5"><path d="M 119 89.625 L 151 89.625 L 151 122 L 119 122 Z M 119 89.625 " clip-rule="nonzero"/></clipPath><clipPath id="609aeef461"><path d="M 160 89.625 L 192 89.625 L 192 122 L 160 122 Z M 160 89.625 " clip-rule="nonzero"/></clipPath><clipPath id="b4cc42bc21"><path d="M 201 89.625 L 233 89.625 L 233 122 L 201 122 Z M 201 89.625 " clip-rule="nonzero"/></clipPath></defs><rect x="-37.5" width="450" fill="#ffffff" y="-37.499999" height="449.999989" fill-opacity="1"/><rect x="-37.5" width="450" fill="#ffffff" y="-37.499999" height="449.999989" fill-opacity="1"/><path fill="#ffffff" d="M 65.742188 222.390625 L 67.667969 222.390625 L 67.667969 226.296875 L 65.742188 226.296875 Z M 65.742188 222.390625 " fill-opacity="1" fill-rule="nonzero"/><path fill="#1a2e35" d="M 67.90625 226.53125 L 65.507812 226.53125 L 65.507812 222.152344 L 67.90625 222.152344 Z M 65.980469 226.058594 L 67.433594 226.058594 L 67.433594 222.625 L 65.980469 222.625 Z M 65.980469 226.058594 " fill-opacity="1" fill-rule="nonzero"/><path fill="#00b298" d="M 66.011719 225.785156 L 67.398438 225.785156 C 67.929688 225.785156 68.363281 226.21875 68.363281 226.75 L 68.363281 260.726562 L 65.042969 260.726562 L 65.042969 226.75 C 65.042969 226.21875 65.476562 225.785156 66.011719 225.785156 Z M 66.011719 225.785156 " fill-opacity="1" fill-rule="nonzero"/><path fill="#1a2e35" d="M 68.601562 260.957031 L 64.8125 260.957031 L 64.8125 226.75 C 64.8125 226.089844 65.351562 225.550781 66.011719 225.550781 L 67.398438 225.550781 C 68.054688 225.550781 68.59375 226.089844 68.59375 226.75 L 68.59375 260.957031 Z M 65.285156 260.488281 L 68.128906 260.488281 L 68.128906 226.75 C 68.128906 226.347656 67.804688 226.023438 67.402344 226.023438 L 66.015625 226.023438 C 65.617188 226.023438 65.289062 226.347656 65.289062 226.75 L 65.289062 260.488281 Z M 65.285156 260.488281 " fill-opacity="1" fill-rule="nonzero"/><path fill="#ffffff" d="M 62.5 260.488281 L 74.761719 260.488281 C 76.421875 260.488281 77.769531 261.835938 77.769531 263.5 L 77.769531 266.042969 L 59.496094 266.042969 L 59.496094 263.5 C 59.496094 261.835938 60.84375 260.488281 62.503906 260.488281 Z M 62.5 260.488281 " fill-opacity="1" fill-rule="nonzero"/><path fill="#1a2e35" d="M 78.007812 266.277344 L 59.261719 266.277344 L 59.261719 263.5 C 59.261719 261.710938 60.71875 260.253906 62.503906 260.253906 L 74.765625 260.253906 C 76.554688 260.253906 78.007812 261.710938 78.007812 263.5 Z M 59.734375 265.804688 L 77.539062 265.804688 L 77.539062 263.5 C 77.539062 261.96875 76.296875 260.726562 74.765625 260.726562 L 62.503906 260.726562 C 60.972656 260.726562 59.734375 261.96875 59.734375 263.5 Z M 59.734375 265.804688 " fill-opacity="1" fill-rule="nonzero"/><path fill="#00b298" d="M 81.835938 202.902344 L 66.769531 217.96875 L 68.59375 219.792969 L 83.527344 204.855469 Z M 81.835938 202.902344 " fill-opacity="1" fill-rule="nonzero"/><path fill="#1a2e35" d="M 68.59375 220.128906 L 66.4375 217.96875 L 81.847656 202.558594 L 83.855469 204.867188 Z M 67.101562 217.96875 L 68.59375 219.460938 L 83.207031 204.847656 L 81.824219 203.25 Z M 67.101562 217.96875 " fill-opacity="1" fill-rule="nonzero"/><path fill="#ffffff" d="M 41.46875 137.964844 L 101.628906 137.964844 C 102.050781 137.964844 102.457031 138.042969 102.847656 138.207031 C 103.238281 138.367188 103.582031 138.597656 103.882812 138.898438 C 104.179688 139.195312 104.410156 139.539062 104.574219 139.929688 C 104.734375 140.320312 104.816406 140.726562 104.816406 141.148438 L 104.816406 185.058594 C 104.816406 185.484375 104.734375 185.890625 104.574219 186.28125 C 104.410156 186.667969 104.179688 187.015625 103.882812 187.3125 C 103.582031 187.613281 103.238281 187.84375 102.847656 188.003906 C 102.457031 188.164062 102.050781 188.246094 101.628906 188.246094 L 41.46875 188.246094 C 41.046875 188.246094 40.640625 188.164062 40.25 188.003906 C 39.859375 187.84375 39.515625 187.613281 39.214844 187.3125 C 38.917969 187.015625 38.6875 186.667969 38.523438 186.28125 C 38.363281 185.890625 38.28125 185.484375 38.28125 185.058594 L 38.28125 141.148438 C 38.28125 140.726562 38.363281 140.320312 38.523438 139.929688 C 38.6875 139.539062 38.917969 139.195312 39.214844 138.898438 C 39.515625 138.597656 39.859375 138.367188 40.25 138.207031 C 40.640625 138.042969 41.046875 137.964844 41.46875 137.964844 Z M 41.46875 137.964844 " fill-opacity="1" fill-rule="nonzero"/><path fill="#1a2e35" d="M 101.628906 188.484375 L 41.476562 188.484375 C 39.585938 188.484375 38.050781 186.949219 38.050781 185.058594 L 38.050781 141.148438 C 38.050781 139.261719 39.585938 137.726562 41.476562 137.726562 L 101.628906 137.726562 C 103.515625 137.726562 105.054688 139.261719 105.054688 141.148438 L 105.054688 185.058594 C 105.054688 186.949219 103.515625 188.484375 101.628906 188.484375 Z M 41.476562 138.203125 C 39.84375 138.203125 38.519531 139.523438 38.519531 141.15625 L 38.519531 185.066406 C 38.519531 186.695312 39.84375 188.019531 41.476562 188.019531 L 101.628906 188.019531 C 103.261719 188.019531 104.582031 186.695312 104.582031 185.066406 L 104.582031 141.15625 C 104.582031 139.523438 103.261719 138.203125 101.628906 138.203125 Z M 41.476562 138.203125 " fill-opacity="1" fill-rule="nonzero"/><g clip-path="url(#90185a56fd)"><path fill="#fd5161" d="M 37.769531 264.757812 L 337.214844 264.757812 L 337.214844 273.1875 L 37.769531 273.1875 Z M 37.769531 264.757812 " fill-opacity="1" fill-rule="nonzero"/><path fill="#1a2e35" d="M 337.453125 273.425781 L 37.535156 273.425781 L 37.535156 264.527344 L 337.453125 264.527344 Z M 38.007812 272.957031 L 336.976562 272.957031 L 336.976562 264.996094 L 38.007812 264.996094 Z M 38.007812 272.957031 " fill-opacity="1" fill-rule="nonzero"/></g><path fill="#e1e1e1" d="M 196.851562 254.546875 L 226.003906 254.546875 L 226.003906 264.496094 L 196.851562 264.496094 Z M 196.851562 254.546875 " fill-opacity="1" fill-rule="nonzero"/><path fill="#1a2e35" d="M 226.234375 264.734375 L 196.613281 264.734375 L 196.613281 254.316406 L 226.234375 254.316406 Z M 197.082031 264.261719 L 225.765625 264.261719 L 225.765625 254.785156 L 197.082031 254.785156 Z M 197.082031 264.261719 " fill-opacity="1" fill-rule="nonzero"/><path fill="#fd5161" d="M 119.824219 128.605469 L 303.074219 128.605469 C 303.4375 128.605469 303.800781 128.640625 304.15625 128.710938 C 304.515625 128.785156 304.863281 128.890625 305.199219 129.027344 C 305.535156 129.167969 305.855469 129.339844 306.160156 129.542969 C 306.460938 129.742188 306.742188 129.972656 307 130.230469 C 307.257812 130.488281 307.488281 130.769531 307.691406 131.074219 C 307.890625 131.375 308.0625 131.695312 308.203125 132.03125 C 308.34375 132.367188 308.449219 132.714844 308.519531 133.074219 C 308.589844 133.429688 308.625 133.792969 308.625 134.15625 L 308.625 240.277344 C 308.625 240.644531 308.589844 241.003906 308.519531 241.363281 C 308.449219 241.71875 308.34375 242.066406 308.203125 242.402344 C 308.0625 242.738281 307.890625 243.058594 307.691406 243.363281 C 307.488281 243.664062 307.257812 243.945312 307 244.203125 C 306.742188 244.460938 306.460938 244.691406 306.160156 244.894531 C 305.855469 245.097656 305.535156 245.269531 305.199219 245.40625 C 304.863281 245.546875 304.515625 245.652344 304.15625 245.722656 C 303.800781 245.792969 303.4375 245.828125 303.074219 245.828125 L 119.824219 245.828125 C 119.460938 245.828125 119.097656 245.792969 118.742188 245.722656 C 118.382812 245.652344 118.039062 245.546875 117.699219 245.40625 C 117.363281 245.269531 117.042969 245.097656 116.742188 244.894531 C 116.4375 244.691406 116.15625 244.460938 115.898438 244.203125 C 115.640625 243.945312 115.410156 243.664062 115.210938 243.363281 C 115.007812 243.058594 114.835938 242.738281 114.695312 242.402344 C 114.558594 242.066406 114.453125 241.71875 114.378906 241.363281 C 114.308594 241.003906 114.273438 240.644531 114.273438 240.277344 L 114.273438 134.15625 C 114.273438 133.792969 114.308594 133.429688 114.378906 133.074219 C 114.453125 132.714844 114.558594 132.367188 114.695312 132.03125 C 114.835938 131.695312 115.007812 131.375 115.210938 131.074219 C 115.410156 130.769531 115.640625 130.488281 115.898438 130.230469 C 116.15625 129.972656 116.4375 129.742188 116.742188 129.542969 C 117.042969 129.339844 117.363281 129.167969 117.699219 129.027344 C 118.039062 128.890625 118.382812 128.785156 118.742188 128.710938 C 119.097656 128.640625 119.460938 128.605469 119.824219 128.605469 Z M 119.824219 128.605469 " fill-opacity="1" fill-rule="nonzero"/><path fill="#1a2e35" d="M 303.074219 246.066406 L 119.832031 246.066406 C 116.636719 246.066406 114.042969 243.472656 114.042969 240.277344 L 114.042969 134.164062 C 114.042969 130.96875 116.636719 128.375 119.832031 128.375 L 303.074219 128.375 C 306.265625 128.375 308.863281 130.96875 308.863281 134.164062 L 308.863281 240.285156 C 308.863281 243.476562 306.265625 246.074219 303.074219 246.074219 Z M 119.832031 128.84375 C 116.902344 128.84375 114.511719 131.226562 114.511719 134.164062 L 114.511719 240.285156 C 114.511719 243.214844 116.894531 245.605469 119.832031 245.605469 L 303.074219 245.605469 C 306.003906 245.605469 308.394531 243.21875 308.394531 240.285156 L 308.394531 134.164062 C 308.394531 131.226562 306.011719 128.84375 303.074219 128.84375 Z M 119.832031 128.84375 " fill-opacity="1" fill-rule="nonzero"/><path fill="#e1e1e1" d="M 124.296875 133.574219 L 298.613281 133.574219 C 298.894531 133.574219 299.171875 133.601562 299.445312 133.65625 C 299.71875 133.710938 299.988281 133.789062 300.246094 133.898438 C 300.503906 134.003906 300.75 134.136719 300.980469 134.289062 C 301.214844 134.445312 301.429688 134.621094 301.625 134.820312 C 301.824219 135.019531 302 135.234375 302.15625 135.464844 C 302.3125 135.699219 302.441406 135.945312 302.550781 136.203125 C 302.65625 136.460938 302.738281 136.726562 302.792969 137 C 302.847656 137.273438 302.875 137.550781 302.875 137.832031 L 302.875 236.617188 C 302.875 236.894531 302.847656 237.171875 302.792969 237.445312 C 302.738281 237.722656 302.65625 237.988281 302.550781 238.246094 C 302.441406 238.503906 302.3125 238.75 302.15625 238.980469 C 302 239.214844 301.824219 239.429688 301.625 239.628906 C 301.429688 239.824219 301.214844 240 300.980469 240.15625 C 300.75 240.3125 300.503906 240.445312 300.246094 240.550781 C 299.988281 240.65625 299.71875 240.738281 299.445312 240.792969 C 299.171875 240.847656 298.894531 240.875 298.613281 240.875 L 124.296875 240.875 C 124.015625 240.875 123.738281 240.847656 123.464844 240.792969 C 123.191406 240.738281 122.925781 240.65625 122.667969 240.550781 C 122.410156 240.445312 122.164062 240.3125 121.929688 240.15625 C 121.699219 240 121.484375 239.824219 121.285156 239.628906 C 121.085938 239.429688 120.910156 239.214844 120.753906 238.980469 C 120.601562 238.75 120.46875 238.503906 120.363281 238.246094 C 120.253906 237.988281 120.175781 237.722656 120.121094 237.445312 C 120.066406 237.171875 120.039062 236.894531 120.039062 236.617188 L 120.039062 137.832031 C 120.039062 137.550781 120.066406 137.273438 120.121094 137 C 120.175781 136.726562 120.253906 136.460938 120.363281 136.203125 C 120.46875 135.945312 120.601562 135.699219 120.753906 135.464844 C 120.910156 135.234375 121.085938 135.019531 121.285156 134.820312 C 121.484375 134.621094 121.699219 134.445312 121.929688 134.289062 C 122.164062 134.136719 122.410156 134.003906 122.667969 133.898438 C 122.925781 133.789062 123.191406 133.710938 123.464844 133.65625 C 123.738281 133.601562 124.015625 133.574219 124.296875 133.574219 Z M 124.296875 133.574219 " fill-opacity="1" fill-rule="nonzero"/><path fill="#1a2e35" d="M 298.609375 241.105469 L 124.296875 241.105469 C 121.820312 241.105469 119.800781 239.085938 119.800781 236.609375 L 119.800781 137.832031 C 119.800781 135.355469 121.820312 133.335938 124.296875 133.335938 L 298.609375 133.335938 C 301.085938 133.335938 303.105469 135.355469 303.105469 137.832031 L 303.105469 236.609375 C 303.105469 239.085938 301.085938 241.105469 298.609375 241.105469 Z M 124.296875 133.804688 C 122.078125 133.804688 120.269531 135.613281 120.269531 137.832031 L 120.269531 236.609375 C 120.269531 238.832031 122.078125 240.636719 124.296875 240.636719 L 298.609375 240.636719 C 300.828125 240.636719 302.636719 238.832031 302.636719 236.609375 L 302.636719 137.832031 C 302.636719 135.613281 300.828125 133.804688 298.609375 133.804688 Z M 124.296875 133.804688 " fill-opacity="1" fill-rule="nonzero"/><path fill="#ffffff" d="M 167.234375 171.644531 L 296.953125 171.644531 L 296.953125 215.449219 L 167.234375 215.449219 Z M 167.234375 171.644531 " fill-opacity="1" fill-rule="nonzero"/><path fill="#1a2e35" d="M 297.191406 215.6875 L 166.996094 215.6875 L 166.996094 171.414062 L 297.183594 171.414062 L 297.183594 215.6875 Z M 167.472656 215.214844 L 296.722656 215.214844 L 296.722656 171.882812 L 167.46875 171.882812 L 167.46875 215.214844 Z M 167.472656 215.214844 " fill-opacity="1" fill-rule="nonzero"/><path fill="#1a2e35" d="M 160.453125 191.355469 L 180.683594 191.355469 C 181.191406 191.355469 181.683594 191.453125 182.152344 191.648438 C 182.625 191.84375 183.039062 192.121094 183.402344 192.484375 C 183.761719 192.84375 184.039062 193.257812 184.234375 193.730469 C 184.429688 194.203125 184.527344 194.691406 184.527344 195.203125 L 184.527344 217.203125 C 184.527344 217.714844 184.429688 218.203125 184.234375 218.675781 C 184.039062 219.148438 183.761719 219.5625 183.402344 219.921875 C 183.039062 220.285156 182.625 220.5625 182.152344 220.757812 C 181.683594 220.953125 181.191406 221.050781 180.683594 221.050781 L 160.453125 221.050781 C 159.945312 221.050781 159.453125 220.953125 158.984375 220.757812 C 158.511719 220.5625 158.097656 220.285156 157.738281 219.921875 C 157.375 219.5625 157.097656 219.148438 156.902344 218.675781 C 156.707031 218.203125 156.609375 217.714844 156.609375 217.203125 L 156.609375 195.203125 C 156.609375 194.691406 156.707031 194.203125 156.902344 193.730469 C 157.097656 193.257812 157.375 192.84375 157.738281 192.484375 C 158.097656 192.121094 158.511719 191.84375 158.984375 191.648438 C 159.453125 191.453125 159.945312 191.355469 160.453125 191.355469 Z M 160.453125 191.355469 " fill-opacity="0.5" fill-rule="nonzero"/><path fill="#fd5161" d="M 158.894531 190.078125 L 179.121094 190.078125 C 179.628906 190.078125 180.121094 190.175781 180.59375 190.371094 C 181.0625 190.566406 181.480469 190.84375 181.839844 191.203125 C 182.199219 191.5625 182.476562 191.980469 182.671875 192.453125 C 182.867188 192.921875 182.964844 193.414062 182.964844 193.921875 L 182.964844 215.925781 C 182.964844 216.433594 182.867188 216.925781 182.671875 217.394531 C 182.476562 217.867188 182.199219 218.28125 181.839844 218.644531 C 181.480469 219.003906 181.0625 219.28125 180.59375 219.476562 C 180.121094 219.671875 179.628906 219.769531 179.121094 219.769531 L 158.894531 219.769531 C 158.382812 219.769531 157.894531 219.671875 157.421875 219.476562 C 156.949219 219.28125 156.535156 219.003906 156.175781 218.644531 C 155.8125 218.28125 155.535156 217.867188 155.339844 217.394531 C 155.144531 216.925781 155.046875 216.433594 155.046875 215.925781 L 155.046875 193.921875 C 155.046875 193.414062 155.144531 192.921875 155.339844 192.453125 C 155.535156 191.980469 155.8125 191.5625 156.175781 191.203125 C 156.535156 190.84375 156.949219 190.566406 157.421875 190.371094 C 157.894531 190.175781 158.382812 190.078125 158.894531 190.078125 Z M 158.894531 190.078125 " fill-opacity="1" fill-rule="nonzero"/><path fill="#1a2e35" d="M 179.125 220 L 158.894531 220 C 156.640625 220 154.816406 218.171875 154.816406 215.925781 L 154.816406 193.917969 C 154.816406 191.664062 156.648438 189.839844 158.894531 189.839844 L 179.125 189.839844 C 181.378906 189.839844 183.203125 191.671875 183.203125 193.917969 L 183.203125 215.925781 C 183.203125 218.175781 181.371094 220 179.125 220 Z M 158.894531 190.308594 C 156.90625 190.308594 155.285156 191.929688 155.285156 193.917969 L 155.285156 215.925781 C 155.285156 217.914062 156.90625 219.53125 158.894531 219.53125 L 179.125 219.53125 C 181.113281 219.53125 182.734375 217.914062 182.734375 215.925781 L 182.734375 193.917969 C 182.734375 191.929688 181.113281 190.308594 179.125 190.308594 Z M 158.894531 190.308594 " fill-opacity="1" fill-rule="nonzero"/><path fill="#1a2e35" d="M 127.4375 224.773438 L 296.953125 224.773438 L 296.953125 225.246094 L 127.4375 225.246094 Z M 127.4375 224.773438 " fill-opacity="1" fill-rule="nonzero"/><path fill="#1a2e35" d="M 127.4375 142.101562 L 296.953125 142.101562 L 296.953125 142.574219 L 127.4375 142.574219 Z M 127.4375 142.101562 " fill-opacity="1" fill-rule="nonzero"/><path fill="#ffffff" d="M 198.800781 149.378906 L 296.488281 149.378906 L 296.488281 165.214844 L 198.800781 165.214844 Z M 198.800781 149.378906 " fill-opacity="1" fill-rule="nonzero"/><path fill="#1a2e35" d="M 296.726562 165.453125 L 198.570312 165.453125 L 198.570312 149.148438 L 296.726562 149.148438 Z M 199.039062 164.984375 L 296.257812 164.984375 L 296.257812 149.617188 L 199.039062 149.617188 Z M 199.039062 164.984375 " fill-opacity="1" fill-rule="nonzero"/><path fill="#1a2e35" d="M 198.773438 164.980469 L 296.460938 149.125 L 296.539062 149.589844 L 198.851562 165.445312 Z M 198.773438 164.980469 " fill-opacity="1" fill-rule="nonzero"/><path fill="#1a2e35" d="M 198.769531 149.621094 L 198.84375 149.15625 L 296.535156 164.996094 L 296.460938 165.460938 Z M 198.769531 149.621094 " fill-opacity="1" fill-rule="nonzero"/><path fill="#00b298" d="M 155.511719 208.046875 C 155.511719 208.046875 162.863281 199.5625 163.429688 199.511719 C 163.992188 199.460938 170.984375 207.53125 170.984375 207.53125 C 170.984375 207.53125 177 201.566406 177.773438 201.667969 C 178.542969 201.769531 182.914062 206.503906 182.914062 206.503906 L 182.964844 216.164062 C 182.964844 216.164062 182.714844 218.089844 181.296875 219.074219 C 180.035156 219.953125 177.527344 219.789062 177.527344 219.789062 L 170.703125 219.84375 Z M 155.511719 208.046875 " fill-opacity="1" fill-rule="nonzero"/><path fill="#1a2e35" d="M 170.628906 220.082031 L 170.566406 220.03125 L 155.175781 208.078125 L 155.335938 207.890625 C 158.109375 204.699219 162.839844 199.328125 163.410156 199.273438 C 163.410156 199.273438 163.414062 199.273438 163.421875 199.273438 C 164.011719 199.273438 167.824219 203.523438 171.003906 207.179688 C 172.90625 205.304688 176.929688 201.429688 177.777344 201.429688 C 177.789062 201.429688 177.796875 201.429688 177.808594 201.429688 C 178.605469 201.535156 182.054688 205.210938 183.089844 206.335938 L 183.152344 206.402344 L 183.203125 216.15625 C 183.191406 216.269531 182.921875 218.234375 181.433594 219.261719 C 180.117188 220.175781 177.621094 220.027344 177.515625 220.015625 L 170.628906 220.070312 Z M 155.859375 208.015625 L 170.792969 219.613281 L 177.535156 219.554688 C 177.578125 219.554688 179.992188 219.707031 181.171875 218.886719 C 182.480469 217.976562 182.738281 216.15625 182.738281 216.136719 L 182.6875 206.605469 C 180.589844 204.339844 178.1875 201.976562 177.753906 201.914062 C 177.25 201.957031 174.003906 204.890625 171.160156 207.707031 L 170.980469 207.882812 L 170.816406 207.695312 C 168.308594 204.796875 164.160156 200.167969 163.445312 199.773438 C 162.757812 200.214844 158.535156 204.941406 155.859375 208.023438 Z M 155.859375 208.015625 " fill-opacity="1" fill-rule="nonzero"/><path fill="#ffffff" d="M 227.390625 177.964844 C 227.390625 177.964844 223.765625 180.976562 223.765625 184.136719 C 223.765625 187.300781 225.464844 189.921875 224.5 191.808594 C 223.53125 193.695312 222.339844 194.96875 222.417969 196.085938 C 222.492188 197.203125 224.035156 198.132812 224.035156 198.132812 L 238.035156 204.761719 L 240.5 210.894531 L 257.734375 206.617188 L 254.453125 200.714844 L 244.65625 178.886719 L 227.382812 177.960938 Z M 227.390625 177.964844 " fill-opacity="1" fill-rule="nonzero"/><path fill="#1a2e35" d="M 240.359375 211.175781 L 237.851562 204.941406 L 223.933594 198.351562 C 223.847656 198.300781 222.265625 197.335938 222.179688 196.113281 C 222.121094 195.300781 222.636719 194.480469 223.28125 193.441406 C 223.601562 192.929688 223.960938 192.347656 224.285156 191.707031 C 224.800781 190.699219 224.484375 189.40625 224.117188 187.921875 C 223.839844 186.792969 223.527344 185.519531 223.527344 184.144531 C 223.527344 180.90625 227.082031 177.917969 227.238281 177.789062 L 227.308594 177.734375 L 244.820312 178.675781 L 254.671875 200.632812 L 258.089844 206.785156 L 240.359375 211.1875 Z M 227.472656 178.203125 C 226.976562 178.636719 224.003906 181.359375 224.003906 184.132812 C 224.003906 185.441406 224.308594 186.691406 224.582031 187.792969 C 224.96875 189.382812 225.308594 190.75 224.710938 191.910156 C 224.378906 192.566406 224.007812 193.15625 223.691406 193.671875 C 223.085938 194.644531 222.609375 195.410156 222.65625 196.066406 C 222.722656 197.046875 224.148438 197.917969 224.160156 197.925781 L 238.222656 204.585938 L 240.648438 210.613281 L 257.390625 206.453125 L 254.257812 200.820312 L 244.511719 179.109375 L 227.476562 178.191406 Z M 227.472656 178.203125 " fill-opacity="1" fill-rule="nonzero"/><path fill="#1a2e35" d="M 304.007812 264.421875 L 309.527344 264.660156 C 309.527344 264.660156 307.453125 269.621094 306.976562 270.183594 C 306.5 270.75 307.777344 273.308594 307.777344 273.308594 L 304.097656 273.226562 L 301.859375 267.863281 L 304.023438 264.421875 Z M 304.007812 264.421875 " fill-opacity="0.5" fill-rule="nonzero"/><g mask="url(#0770da2033)"><g transform="matrix(1, 0, 0, 1, 237, 181)"><g clip-path="url(#81e479b446)"><g clip-path="url(#fb99f06dc9)"><g clip-path="url(#bddd8a4991)"><path fill="#1a2e35" d="M 9.839844 15.363281 C 9.839844 15.363281 5.914062 20.417969 6.132812 22.449219 C 6.351562 24.480469 4.714844 31.054688 4.714844 31.054688 L 1.722656 30.09375 C 1.722656 30.09375 1.296875 22.625 1.296875 22.191406 C 1.296875 21.761719 1.402344 14.503906 1.402344 14.503906 L 9.839844 15.355469 Z M 9.839844 15.363281 " fill-opacity="1" fill-rule="nonzero"/></g></g><g clip-path="url(#b31e204f34)"><g clip-path="url(#5bf9dba8f6)"><path fill="#1a2e35" d="M 4.882812 31.355469 L 1.503906 30.269531 L 1.503906 30.109375 C 1.480469 29.800781 1.066406 22.625 1.066406 22.191406 C 1.066406 21.761719 1.164062 14.796875 1.171875 14.503906 L 1.171875 14.246094 C 1.171875 14.246094 10.285156 15.167969 10.285156 15.167969 L 10.027344 15.507812 C 9.988281 15.558594 6.164062 20.511719 6.363281 22.425781 C 6.578125 24.46875 5.011719 30.839844 4.949219 31.113281 Z M 1.957031 29.917969 L 4.550781 30.753906 C 4.839844 29.542969 6.082031 24.21875 5.902344 22.476562 C 5.710938 20.667969 8.523438 16.734375 9.40625 15.558594 L 1.640625 14.773438 C 1.625 16.066406 1.542969 21.824219 1.542969 22.199219 C 1.542969 22.523438 1.8125 27.304688 1.960938 29.925781 Z M 1.957031 29.917969 " fill-opacity="1" fill-rule="nonzero"/></g></g><g clip-path="url(#826d781aa2)"><g clip-path="url(#8590a103ba)"><path fill="#1a2e35" d="M 3.292969 1.394531 C 3.292969 1.394531 0.53125 3.914062 0.890625 6.4375 C 0.890625 6.4375 2.289062 3.433594 5.136719 4.914062 C 7.984375 6.394531 8.699219 8.273438 8.699219 8.273438 C 8.699219 8.273438 6.132812 2.070312 3.292969 1.386719 Z M 3.292969 1.394531 " fill-opacity="1" fill-rule="nonzero"/><path fill="#1a2e35" d="M 8.480469 8.367188 C 8.480469 8.367188 8.480469 8.355469 8.464844 8.335938 C 8.367188 8.113281 7.5625 6.449219 5.023438 5.125 C 4.257812 4.730469 3.542969 4.636719 2.882812 4.863281 C 1.703125 5.265625 1.101562 6.523438 1.097656 6.539062 L 0.765625 7.253906 L 0.652344 6.46875 C 0.273438 3.851562 3.007812 1.324219 3.128906 1.21875 L 3.222656 1.136719 L 3.34375 1.167969 C 6.15625 1.847656 8.617188 7.496094 8.886719 8.144531 C 8.898438 8.175781 8.90625 8.195312 8.910156 8.199219 L 8.472656 8.375 Z M 3.617188 4.273438 C 4.136719 4.273438 4.683594 4.417969 5.242188 4.710938 C 6.1875 5.207031 6.90625 5.742188 7.445312 6.242188 C 6.476562 4.460938 4.953125 2.140625 3.359375 1.65625 C 2.953125 2.058594 1.289062 3.796875 1.109375 5.652344 C 1.449219 5.207031 1.988281 4.675781 2.734375 4.417969 C 3.023438 4.324219 3.308594 4.273438 3.613281 4.273438 Z M 3.617188 4.273438 " fill-opacity="1" fill-rule="nonzero"/></g></g></g></g></g><path fill="#ffffff" d="M 305.539062 248.042969 C 305.539062 248.042969 310.832031 252.160156 309.347656 258.839844 C 307.855469 265.523438 303.894531 269.015625 303.894531 269.015625 L 298.601562 251.585938 L 305.546875 248.039062 Z M 305.539062 248.042969 " fill-opacity="1" fill-rule="nonzero"/><path fill="#1a2e35" d="M 303.777344 269.445312 L 298.320312 251.476562 L 305.570312 247.769531 L 305.691406 247.863281 C 305.746094 247.90625 311.085938 252.144531 309.578125 258.894531 C 308.085938 265.574219 304.097656 269.160156 304.054688 269.199219 Z M 298.886719 251.714844 L 304.007812 268.585938 C 304.917969 267.664062 307.886719 264.308594 309.113281 258.789062 C 310.433594 252.875 306.261719 248.964844 305.507812 248.320312 L 298.878906 251.707031 Z M 298.886719 251.714844 " fill-opacity="1" fill-rule="nonzero"/><path fill="#00b298" d="M 281.066406 221 C 281.066406 221 295.71875 229.402344 307.523438 247.140625 C 307.523438 247.140625 302.742188 251.769531 299.5 252.308594 Z M 281.066406 221 " fill-opacity="1" fill-rule="nonzero"/><path fill="#1a2e35" d="M 299.378906 252.570312 L 299.300781 252.433594 L 280.414062 220.359375 L 281.183594 220.796875 C 281.328125 220.878906 296.023438 229.433594 307.714844 247.015625 L 307.824219 247.179688 L 307.683594 247.316406 C 307.488281 247.503906 302.8125 252 299.539062 252.546875 L 299.378906 252.574219 Z M 281.75 221.695312 L 299.617188 252.050781 C 302.433594 251.476562 306.417969 247.855469 307.214844 247.109375 C 297.167969 232.082031 284.953125 223.726562 281.75 221.695312 Z M 281.75 221.695312 " fill-opacity="1" fill-rule="nonzero"/><path fill="#ffffff" d="M 213.351562 230.644531 C 213.351562 230.644531 199.929688 240.75 195.382812 239.355469 C 190.835938 237.972656 167.335938 215.753906 167.335938 215.753906 C 167.335938 215.753906 168.207031 203.363281 163.636719 203.675781 C 159.054688 203.984375 162.300781 207.425781 161.886719 208.660156 C 161.886719 208.660156 157.207031 210.71875 154.941406 207.683594 L 155.042969 202.132812 C 155.042969 202.132812 150.3125 201.824219 148.71875 205.574219 C 148.71875 205.574219 143.835938 204.390625 143.882812 210.410156 C 143.882812 210.410156 140.90625 212.46875 142.183594 215.503906 C 142.183594 215.503906 139.207031 212.933594 138.277344 214.375 C 137.347656 215.816406 138.484375 219.15625 141.363281 220.699219 C 144.242188 222.242188 151.390625 224.296875 152.828125 226.355469 C 154.269531 228.414062 175.167969 258.644531 191.753906 261.421875 C 208.335938 264.199219 218.125 254.867188 218.125 254.867188 L 213.347656 230.652344 Z M 213.351562 230.644531 " fill-opacity="1" fill-rule="nonzero"/><path fill="#1a2e35" d="M 197.792969 262.164062 C 195.878906 262.164062 193.855469 262.003906 191.722656 261.648438 C 176.078125 259.027344 156.492188 231.988281 152.722656 226.59375 L 152.644531 226.488281 C 151.738281 225.195312 148.34375 223.847656 145.34375 222.660156 C 143.757812 222.035156 142.261719 221.4375 141.261719 220.90625 C 139.300781 219.851562 138.234375 218.058594 137.886719 216.726562 C 137.632812 215.730469 137.699219 214.851562 138.089844 214.242188 C 138.285156 213.941406 138.558594 213.765625 138.917969 213.710938 C 139.800781 213.578125 141.011719 214.324219 141.734375 214.847656 C 141.179688 212.398438 143.167969 210.667969 143.652344 210.292969 C 143.652344 208.316406 144.191406 206.894531 145.246094 206.050781 C 146.480469 205.066406 148.042969 205.21875 148.582031 205.304688 C 150.292969 201.625 155.011719 201.886719 155.0625 201.894531 L 155.285156 201.90625 L 155.179688 207.601562 C 157.136719 210.117188 160.988281 208.753906 161.683594 208.484375 C 161.722656 208.179688 161.539062 207.671875 161.359375 207.179688 C 161.027344 206.265625 160.65625 205.226562 161.171875 204.433594 C 161.550781 203.851562 162.347656 203.523438 163.617188 203.4375 C 164.355469 203.386719 165.015625 203.636719 165.566406 204.191406 C 168.042969 206.671875 167.644531 214.578125 167.578125 215.65625 C 169.097656 217.085938 191.136719 237.808594 195.453125 239.125 C 199.84375 240.46875 213.078125 230.542969 213.214844 230.445312 L 213.515625 230.21875 L 218.394531 254.929688 L 218.300781 255.019531 C 218.214844 255.101562 210.648438 262.148438 197.796875 262.148438 Z M 139.136719 214.167969 C 139.085938 214.167969 139.03125 214.167969 138.984375 214.179688 C 138.765625 214.210938 138.601562 214.320312 138.484375 214.5 C 138.171875 214.984375 138.121094 215.753906 138.339844 216.609375 C 138.660156 217.84375 139.652344 219.511719 141.480469 220.492188 C 142.453125 221.011719 143.941406 221.601562 145.515625 222.222656 C 148.574219 223.433594 152.042969 224.804688 153.027344 226.21875 L 153.105469 226.324219 C 156.855469 231.691406 176.335938 258.59375 191.796875 261.183594 C 207.214844 263.761719 216.828125 255.703125 217.875 254.773438 L 213.191406 231.054688 C 211.125 232.578125 199.59375 240.886719 195.308594 239.582031 C 190.753906 238.195312 168.132812 216.839844 167.167969 215.929688 L 167.085938 215.855469 L 167.085938 215.742188 C 167.097656 215.65625 167.679688 206.988281 165.222656 204.527344 C 164.765625 204.070312 164.25 203.871094 163.640625 203.914062 C 162.550781 203.988281 161.847656 204.253906 161.558594 204.699219 C 161.171875 205.292969 161.503906 206.214844 161.796875 207.03125 C 162.042969 207.707031 162.253906 208.296875 162.105469 208.742188 L 162.074219 208.84375 L 161.980469 208.886719 C 161.929688 208.90625 157.097656 210.984375 154.753906 207.832031 L 154.703125 207.769531 L 154.804688 202.371094 C 153.863281 202.371094 150.25 202.585938 148.933594 205.675781 L 148.859375 205.859375 L 148.664062 205.8125 C 148.664062 205.8125 146.839844 205.394531 145.535156 206.433594 C 144.582031 207.195312 144.109375 208.53125 144.121094 210.417969 L 144.121094 210.542969 C 144.121094 210.542969 144.023438 210.613281 144.023438 210.613281 C 143.910156 210.695312 141.210938 212.601562 142.410156 215.417969 L 142.804688 216.34375 L 142.039062 215.6875 C 141.53125 215.246094 140.070312 214.175781 139.136719 214.175781 Z M 139.136719 214.167969 " fill-opacity="1" fill-rule="nonzero"/><g mask="url(#00ba81d4cd)"><g transform="matrix(1, 0, 0, 1, 152, 207)"><g clip-path="url(#0afd79895b)"><g clip-path="url(#36d644e586)"><g clip-path="url(#0723dc191b)"><path fill="#1a2e35" d="M 1.109375 19.679688 C 1.109375 19.679688 29.296875 50.746094 41.785156 51.707031 C 54.273438 52.664062 64.738281 45.941406 64.738281 45.941406 L 66.019531 51.066406 C 66.019531 51.066406 48.515625 55.871094 47.976562 56.085938 C 47.4375 56.296875 19.253906 49.679688 19.253906 49.679688 L 1.105469 19.679688 Z M 1.109375 19.679688 " fill-opacity="1" fill-rule="nonzero"/></g></g><g clip-path="url(#6e1a624ba9)"><g clip-path="url(#83c2e199ef)"><path fill="#1a2e35" d="M 47.992188 56.316406 C 46.613281 56.316406 27.503906 51.863281 19.199219 49.914062 L 19.105469 49.886719 L 0.902344 19.808594 L 1.28125 19.523438 C 1.5625 19.832031 29.542969 50.535156 41.796875 51.472656 C 54.050781 52.414062 64.5 45.8125 64.601562 45.746094 L 64.878906 45.570312 L 66.296875 51.234375 L 66.074219 51.296875 C 61.210938 52.632812 48.488281 56.132812 48.054688 56.308594 C 48.042969 56.308594 48.019531 56.316406 47.988281 56.316406 Z M 19.40625 49.480469 C 30.476562 52.078125 47.148438 55.902344 47.929688 55.859375 C 48.402344 55.664062 63.605469 51.488281 65.730469 50.902344 L 64.582031 46.3125 C 62.832031 47.355469 53.066406 52.808594 41.765625 51.945312 C 30.882812 51.109375 8.675781 28.136719 2.515625 21.550781 L 19.414062 49.472656 Z M 19.40625 49.480469 " fill-opacity="1" fill-rule="nonzero"/></g></g><g clip-path="url(#3aaa53a070)"><g clip-path="url(#fafa686775)"><path fill="#1a2e35" d="M 2.617188 0.734375 C 2.617188 0.734375 4.378906 4.816406 9.941406 3.335938 L 9.980469 1.453125 Z M 2.617188 0.734375 " fill-opacity="1" fill-rule="nonzero"/></g></g></g></g></g><g clip-path="url(#9948d26d9a)"><path fill="#00b298" d="M 212.8125 229.640625 C 212.8125 229.640625 236.796875 212.210938 243.277344 209.898438 C 249.757812 207.582031 256.386719 205.65625 258.625 206.96875 C 260.863281 208.277344 276.984375 215.914062 281.066406 221.003906 C 285.15625 226.097656 302.246094 244.605469 307.082031 284.296875 L 239.960938 285.167969 C 239.960938 285.167969 240.960938 264.1875 232.476562 257.632812 C 232.476562 257.632812 220.960938 260.953125 218.339844 260.074219 C 218.339844 260.074219 210.425781 246.292969 212.8125 229.636719 Z M 212.8125 229.640625 " fill-opacity="1" fill-rule="nonzero"/><path fill="#1a2e35" d="M 239.714844 285.40625 L 239.726562 285.15625 C 239.738281 284.949219 240.617188 264.382812 232.433594 257.890625 C 231.148438 258.253906 220.816406 261.144531 218.269531 260.300781 L 218.183594 260.269531 L 218.140625 260.191406 C 218.058594 260.054688 210.203125 246.148438 212.582031 229.605469 L 212.59375 229.503906 L 212.675781 229.449219 C 213.65625 228.730469 236.761719 211.972656 243.195312 209.671875 C 251.894531 206.566406 256.832031 205.640625 258.742188 206.761719 C 259.15625 207 260.042969 207.457031 261.265625 208.089844 C 266.664062 210.875 277.890625 216.671875 281.246094 220.855469 C 281.492188 221.160156 281.792969 221.519531 282.125 221.925781 C 287.230469 228.105469 302.761719 246.914062 307.308594 284.265625 L 307.339844 284.527344 L 239.703125 285.40625 Z M 232.527344 257.375 L 232.621094 257.453125 C 240.699219 263.699219 240.296875 282.425781 240.203125 284.929688 L 306.8125 284.0625 C 302.242188 247.023438 286.835938 228.367188 281.761719 222.226562 C 281.421875 221.8125 281.128906 221.457031 280.878906 221.148438 C 277.585938 217.046875 266.414062 211.285156 261.046875 208.511719 C 259.816406 207.878906 258.925781 207.414062 258.5 207.167969 C 255.890625 205.636719 246.449219 209.011719 243.351562 210.117188 C 237.167969 212.324219 214.5625 228.65625 213.027344 229.773438 C 210.8125 245.460938 217.863281 258.730469 218.496094 259.878906 C 221.179688 260.625 232.292969 257.4375 232.414062 257.40625 Z M 232.527344 257.375 " fill-opacity="1" fill-rule="nonzero"/></g><g clip-path="url(#7c5c8e7675)"><g mask="url(#b222751bc5)"><g transform="matrix(1, 0, 0, 1, 216, 248)"><g clip-path="url(#82c99483ec)"><g clip-path="url(#dfc279135e)"><g clip-path="url(#c9fee5f1c5)"><path fill="#1a2e35" d="M 1.109375 11.539062 C 1.109375 11.539062 19.761719 9.058594 26.574219 1.128906 C 26.574219 1.128906 26.015625 7.210938 21.367188 9.375 C 21.367188 9.375 29.058594 18.183594 29.535156 37.242188 C 30.011719 56.304688 15.925781 40.523438 15.925781 40.128906 C 15.925781 39.734375 1.109375 11.546875 1.109375 11.546875 Z M 1.109375 11.539062 " fill-opacity="1" fill-rule="nonzero"/></g></g></g></g></g></g><g clip-path="url(#aedc9208f5)"><path fill="#e1e1e1" d="M 124.347656 89.886719 L 145.628906 89.886719 C 145.945312 89.886719 146.261719 89.917969 146.570312 89.980469 C 146.882812 90.042969 147.183594 90.136719 147.476562 90.257812 C 147.773438 90.378906 148.050781 90.527344 148.316406 90.703125 C 148.578125 90.878906 148.824219 91.082031 149.046875 91.304688 C 149.273438 91.527344 149.472656 91.773438 149.648438 92.039062 C 149.824219 92.300781 149.972656 92.582031 150.09375 92.875 C 150.21875 93.167969 150.308594 93.46875 150.371094 93.78125 C 150.433594 94.09375 150.464844 94.40625 150.464844 94.722656 L 150.464844 116.726562 C 150.464844 117.042969 150.433594 117.359375 150.371094 117.667969 C 150.308594 117.980469 150.21875 118.285156 150.09375 118.578125 C 149.972656 118.871094 149.824219 119.148438 149.648438 119.414062 C 149.472656 119.675781 149.273438 119.921875 149.046875 120.144531 C 148.824219 120.371094 148.578125 120.570312 148.316406 120.746094 C 148.050781 120.921875 147.773438 121.074219 147.476562 121.195312 C 147.183594 121.316406 146.882812 121.40625 146.570312 121.46875 C 146.261719 121.53125 145.945312 121.5625 145.628906 121.5625 L 124.347656 121.5625 C 124.03125 121.5625 123.714844 121.53125 123.402344 121.46875 C 123.09375 121.40625 122.789062 121.316406 122.496094 121.195312 C 122.203125 121.074219 121.925781 120.921875 121.660156 120.746094 C 121.394531 120.570312 121.152344 120.371094 120.925781 120.144531 C 120.703125 119.921875 120.503906 119.675781 120.324219 119.414062 C 120.148438 119.148438 120 118.871094 119.878906 118.578125 C 119.757812 118.285156 119.667969 117.980469 119.605469 117.667969 C 119.542969 117.359375 119.511719 117.042969 119.511719 116.726562 L 119.511719 94.722656 C 119.511719 94.40625 119.542969 94.09375 119.605469 93.78125 C 119.667969 93.46875 119.757812 93.167969 119.878906 92.875 C 120 92.582031 120.148438 92.300781 120.324219 92.039062 C 120.503906 91.773438 120.703125 91.527344 120.925781 91.304688 C 121.152344 91.082031 121.394531 90.878906 121.660156 90.703125 C 121.925781 90.527344 122.203125 90.378906 122.496094 90.257812 C 122.789062 90.136719 123.09375 90.042969 123.402344 89.980469 C 123.714844 89.917969 124.03125 89.886719 124.347656 89.886719 Z M 124.347656 89.886719 " fill-opacity="1" fill-rule="nonzero"/><path fill="#1a2e35" d="M 145.632812 121.792969 L 124.347656 121.792969 C 121.550781 121.792969 119.277344 119.523438 119.277344 116.726562 L 119.277344 94.71875 C 119.277344 91.921875 121.550781 89.648438 124.347656 89.648438 L 145.632812 89.648438 C 148.429688 89.648438 150.703125 91.921875 150.703125 94.71875 L 150.703125 116.726562 C 150.703125 119.523438 148.429688 121.792969 145.632812 121.792969 Z M 124.347656 90.121094 C 121.8125 90.121094 119.75 92.183594 119.75 94.71875 L 119.75 116.726562 C 119.75 119.261719 121.8125 121.324219 124.347656 121.324219 L 145.632812 121.324219 C 148.167969 121.324219 150.230469 119.261719 150.230469 116.726562 L 150.230469 94.71875 C 150.230469 92.183594 148.167969 90.121094 145.632812 90.121094 Z M 124.347656 90.121094 " fill-opacity="1" fill-rule="nonzero"/></g><path fill="#fd5161" d="M 129.183594 98.21875 L 129.183594 112.410156 L 143.164062 106.339844 Z M 129.183594 98.21875 " fill-opacity="1" fill-rule="nonzero"/><path fill="#1a2e35" d="M 128.945312 112.769531 L 128.945312 97.808594 L 143.683594 106.371094 Z M 129.414062 98.632812 L 129.414062 112.054688 L 142.640625 106.316406 Z M 129.414062 98.632812 " fill-opacity="1" fill-rule="nonzero"/><g clip-path="url(#609aeef461)"><path fill="#e1e1e1" d="M 165.347656 89.886719 L 186.628906 89.886719 C 186.945312 89.886719 187.261719 89.917969 187.570312 89.980469 C 187.882812 90.042969 188.183594 90.136719 188.480469 90.257812 C 188.773438 90.378906 189.050781 90.527344 189.316406 90.703125 C 189.578125 90.878906 189.824219 91.082031 190.046875 91.304688 C 190.273438 91.527344 190.472656 91.773438 190.648438 92.039062 C 190.824219 92.300781 190.972656 92.582031 191.097656 92.875 C 191.21875 93.167969 191.308594 93.46875 191.371094 93.78125 C 191.433594 94.09375 191.464844 94.40625 191.464844 94.722656 L 191.464844 116.726562 C 191.464844 117.042969 191.433594 117.359375 191.371094 117.667969 C 191.308594 117.980469 191.21875 118.285156 191.097656 118.578125 C 190.972656 118.871094 190.824219 119.148438 190.648438 119.414062 C 190.472656 119.675781 190.273438 119.921875 190.046875 120.144531 C 189.824219 120.371094 189.578125 120.570312 189.316406 120.746094 C 189.050781 120.921875 188.773438 121.074219 188.480469 121.195312 C 188.183594 121.316406 187.882812 121.40625 187.570312 121.46875 C 187.261719 121.53125 186.945312 121.5625 186.628906 121.5625 L 165.347656 121.5625 C 165.03125 121.5625 164.714844 121.53125 164.402344 121.46875 C 164.09375 121.40625 163.789062 121.316406 163.496094 121.195312 C 163.203125 121.074219 162.925781 120.921875 162.660156 120.746094 C 162.398438 120.570312 162.152344 120.371094 161.929688 120.144531 C 161.703125 119.921875 161.503906 119.675781 161.328125 119.414062 C 161.148438 119.148438 161 118.871094 160.878906 118.578125 C 160.757812 118.285156 160.667969 117.980469 160.605469 117.667969 C 160.542969 117.359375 160.511719 117.042969 160.511719 116.726562 L 160.511719 94.722656 C 160.511719 94.40625 160.542969 94.09375 160.605469 93.78125 C 160.667969 93.46875 160.757812 93.167969 160.878906 92.875 C 161 92.582031 161.148438 92.300781 161.328125 92.039062 C 161.503906 91.773438 161.703125 91.527344 161.929688 91.304688 C 162.152344 91.082031 162.398438 90.878906 162.660156 90.703125 C 162.925781 90.527344 163.203125 90.378906 163.496094 90.257812 C 163.789062 90.136719 164.09375 90.042969 164.402344 89.980469 C 164.714844 89.917969 165.03125 89.886719 165.347656 89.886719 Z M 165.347656 89.886719 " fill-opacity="1" fill-rule="nonzero"/><path fill="#1a2e35" d="M 186.628906 121.792969 L 165.339844 121.792969 C 162.542969 121.792969 160.273438 119.523438 160.273438 116.726562 L 160.273438 94.71875 C 160.273438 91.921875 162.542969 89.648438 165.339844 89.648438 L 186.628906 89.648438 C 189.425781 89.648438 191.695312 91.921875 191.695312 94.71875 L 191.695312 116.726562 C 191.695312 119.523438 189.425781 121.792969 186.628906 121.792969 Z M 165.339844 90.121094 C 162.808594 90.121094 160.742188 92.183594 160.742188 94.71875 L 160.742188 116.726562 C 160.742188 119.261719 162.808594 121.324219 165.339844 121.324219 L 186.628906 121.324219 C 189.160156 121.324219 191.226562 119.261719 191.226562 116.726562 L 191.226562 94.71875 C 191.226562 92.183594 189.160156 90.121094 186.628906 90.121094 Z M 165.339844 90.121094 " fill-opacity="1" fill-rule="nonzero"/></g><g clip-path="url(#b4cc42bc21)"><path fill="#e1e1e1" d="M 206.554688 89.886719 L 227.835938 89.886719 C 228.152344 89.886719 228.46875 89.917969 228.777344 89.980469 C 229.089844 90.042969 229.394531 90.136719 229.6875 90.257812 C 229.980469 90.378906 230.257812 90.527344 230.523438 90.703125 C 230.785156 90.878906 231.03125 91.082031 231.253906 91.304688 C 231.480469 91.527344 231.679688 91.773438 231.855469 92.039062 C 232.03125 92.300781 232.179688 92.582031 232.304688 92.875 C 232.425781 93.167969 232.515625 93.46875 232.578125 93.78125 C 232.640625 94.09375 232.671875 94.40625 232.671875 94.722656 L 232.671875 116.726562 C 232.671875 117.042969 232.640625 117.359375 232.578125 117.667969 C 232.515625 117.980469 232.425781 118.285156 232.304688 118.578125 C 232.179688 118.871094 232.03125 119.148438 231.855469 119.414062 C 231.679688 119.675781 231.480469 119.921875 231.253906 120.144531 C 231.03125 120.371094 230.785156 120.570312 230.523438 120.746094 C 230.257812 120.921875 229.980469 121.074219 229.6875 121.195312 C 229.394531 121.316406 229.089844 121.40625 228.777344 121.46875 C 228.46875 121.53125 228.152344 121.5625 227.835938 121.5625 L 206.554688 121.5625 C 206.238281 121.5625 205.921875 121.53125 205.609375 121.46875 C 205.300781 121.40625 204.996094 121.316406 204.703125 121.195312 C 204.410156 121.074219 204.132812 120.921875 203.867188 120.746094 C 203.605469 120.570312 203.359375 120.371094 203.136719 120.144531 C 202.910156 119.921875 202.710938 119.675781 202.535156 119.414062 C 202.355469 119.148438 202.207031 118.871094 202.085938 118.578125 C 201.964844 118.285156 201.875 117.980469 201.8125 117.667969 C 201.75 117.359375 201.71875 117.042969 201.71875 116.726562 L 201.71875 94.722656 C 201.71875 94.40625 201.75 94.09375 201.8125 93.78125 C 201.875 93.46875 201.964844 93.167969 202.085938 92.875 C 202.207031 92.582031 202.355469 92.300781 202.535156 92.039062 C 202.710938 91.773438 202.910156 91.527344 203.136719 91.304688 C 203.359375 91.082031 203.605469 90.878906 203.867188 90.703125 C 204.132812 90.527344 204.410156 90.378906 204.703125 90.257812 C 204.996094 90.136719 205.300781 90.042969 205.609375 89.980469 C 205.921875 89.917969 206.238281 89.886719 206.554688 89.886719 Z M 206.554688 89.886719 " fill-opacity="1" fill-rule="nonzero"/><path fill="#1a2e35" d="M 227.835938 121.792969 L 206.546875 121.792969 C 203.75 121.792969 201.480469 119.523438 201.480469 116.726562 L 201.480469 94.71875 C 201.480469 91.921875 203.75 89.648438 206.546875 89.648438 L 227.835938 89.648438 C 230.632812 89.648438 232.902344 91.921875 232.902344 94.71875 L 232.902344 116.726562 C 232.902344 119.523438 230.632812 121.792969 227.835938 121.792969 Z M 206.546875 90.121094 C 204.015625 90.121094 201.949219 92.183594 201.949219 94.71875 L 201.949219 116.726562 C 201.949219 119.261719 204.015625 121.324219 206.546875 121.324219 L 227.835938 121.324219 C 230.371094 121.324219 232.433594 119.261719 232.433594 116.726562 L 232.433594 94.71875 C 232.433594 92.183594 230.371094 90.121094 227.835938 90.121094 Z M 206.546875 90.121094 " fill-opacity="1" fill-rule="nonzero"/></g><path fill="#1a2e35" d="M 224.691406 182.132812 C 224.691406 182.132812 222.84375 182.054688 222.6875 180.664062 C 222.6875 180.664062 216.28125 179.96875 216.976562 171.871094 C 216.976562 171.871094 212.8125 161.152344 228.394531 164.695312 C 228.394531 164.695312 235.71875 156.75 242.273438 164 C 242.273438 164 251.839844 160.988281 256.152344 165.847656 C 260.476562 170.710938 260.78125 174.949219 259.546875 183.277344 C 259.546875 183.277344 265.023438 198.320312 254.609375 201.40625 C 254.609375 201.40625 243.585938 199.480469 240.648438 195.390625 C 240.648438 195.390625 242.808594 205.417969 239.496094 209.195312 C 236.175781 212.976562 226.84375 214.4375 223.375 208.960938 C 219.90625 203.488281 224.378906 202.25 224.304688 201.015625 C 224.230469 199.78125 222.835938 199.089844 223.375 198.550781 C 223.914062 198.011719 223.757812 195.464844 228.851562 198.011719 C 233.945312 200.558594 236.714844 197.804688 236.949219 196.003906 C 237.179688 194.203125 238.441406 191.941406 240.5 193.25 C 240.5 193.25 244.761719 191.839844 244.40625 188.082031 C 244.046875 184.328125 239.210938 183.917969 238.234375 185.203125 C 238.234375 185.203125 238.285156 178.210938 232.113281 179.496094 C 225.941406 180.78125 225.789062 181.960938 224.679688 182.117188 Z M 224.691406 182.132812 " fill-opacity="1" fill-rule="nonzero"/><path fill="#1a2e35" d="M 230.847656 212.808594 C 230.527344 212.808594 230.210938 212.796875 229.898438 212.769531 C 226.917969 212.539062 224.53125 211.234375 223.175781 209.09375 C 220.558594 204.96875 222.355469 203.09375 223.417969 201.96875 C 223.769531 201.597656 224.078125 201.28125 224.066406 201.042969 C 224.035156 200.515625 223.722656 200.089844 223.445312 199.707031 C 223.136719 199.285156 222.785156 198.808594 223.214844 198.386719 C 223.277344 198.324219 223.34375 198.175781 223.417969 198.023438 C 223.613281 197.609375 223.878906 197.039062 224.59375 196.789062 C 225.515625 196.46875 226.945312 196.800781 228.957031 197.804688 C 231.886719 199.265625 233.8125 198.878906 234.917969 198.289062 C 236.109375 197.65625 236.628906 196.652344 236.714844 195.980469 C 236.875 194.75 237.5 193.296875 238.546875 192.804688 C 238.972656 192.605469 239.65625 192.484375 240.523438 193 C 241.164062 192.761719 244.480469 191.363281 244.167969 188.113281 C 243.953125 185.925781 242.171875 185.1875 241.421875 184.972656 C 240.046875 184.582031 238.792969 184.867188 238.421875 185.355469 L 237.996094 185.917969 L 237.996094 185.21875 C 237.996094 185.1875 237.996094 181.980469 236.101562 180.429688 C 235.125 179.636719 233.800781 179.398438 232.164062 179.742188 C 227.972656 180.613281 226.605469 181.429688 225.785156 181.910156 C 225.394531 182.144531 225.113281 182.308594 224.71875 182.363281 L 224.699219 182.363281 C 224.699219 182.363281 224.679688 182.363281 224.679688 182.363281 C 224.003906 182.339844 222.722656 181.980469 222.480469 180.871094 C 221.425781 180.675781 216.125 179.320312 216.738281 171.90625 C 216.566406 171.417969 215.390625 167.945312 217.359375 165.65625 C 219.125 163.617188 222.804688 163.207031 228.3125 164.445312 C 228.90625 163.828125 232.136719 160.726562 236.132812 160.726562 L 236.171875 160.726562 C 238.429688 160.738281 240.503906 161.753906 242.347656 163.742188 C 243.617188 163.363281 252.203125 161.058594 256.335938 165.703125 C 260.769531 170.691406 260.988281 175.164062 259.792969 183.265625 C 260.078125 184.074219 262.738281 191.929688 260.023438 197.316406 C 258.945312 199.453125 257.144531 200.910156 254.679688 201.644531 L 254.628906 201.664062 L 254.574219 201.648438 C 254.148438 201.574219 244.625 199.875 241.050781 196.238281 C 241.496094 198.796875 242.480469 206.164062 239.671875 209.363281 C 237.851562 211.433594 234.257812 212.8125 230.847656 212.8125 Z M 225.363281 197.144531 C 225.132812 197.144531 224.925781 197.175781 224.75 197.242188 C 224.222656 197.421875 224.023438 197.855469 223.847656 198.230469 C 223.753906 198.433594 223.671875 198.609375 223.546875 198.734375 C 223.433594 198.847656 223.484375 198.972656 223.828125 199.4375 C 224.128906 199.84375 224.5 200.351562 224.542969 201.015625 C 224.566406 201.460938 224.214844 201.832031 223.769531 202.300781 C 222.734375 203.394531 221.167969 205.035156 223.582031 208.851562 C 224.855469 210.855469 227.113281 212.085938 229.941406 212.304688 C 233.488281 212.582031 237.429688 211.214844 239.324219 209.050781 C 242.523438 205.40625 240.449219 195.546875 240.429688 195.453125 L 240.191406 194.347656 L 240.851562 195.269531 C 243.585938 199.089844 253.769531 201.027344 254.605469 201.1875 C 256.917969 200.488281 258.601562 199.117188 259.609375 197.113281 C 262.320312 191.734375 259.363281 183.46875 259.332031 183.386719 L 259.316406 183.328125 L 259.316406 183.273438 C 260.53125 175.117188 260.335938 170.921875 255.984375 166.03125 C 251.8125 161.34375 242.441406 164.21875 242.347656 164.25 L 242.203125 164.292969 L 242.105469 164.179688 C 240.328125 162.21875 238.335938 161.21875 236.171875 161.207031 L 236.132812 161.207031 C 231.992188 161.207031 228.601562 164.839844 228.5625 164.875 L 228.46875 164.976562 L 228.335938 164.945312 C 222.941406 163.714844 219.367188 164.0625 217.71875 165.972656 C 215.824219 168.167969 217.183594 171.761719 217.199219 171.800781 L 217.21875 171.851562 L 217.21875 171.90625 C 216.546875 179.671875 222.460938 180.417969 222.710938 180.445312 L 222.898438 180.460938 L 222.917969 180.652344 C 223.042969 181.761719 224.480469 181.894531 224.679688 181.90625 C 224.96875 181.863281 225.1875 181.730469 225.550781 181.515625 C 226.398438 181.015625 227.808594 180.179688 232.074219 179.289062 C 233.855469 178.917969 235.316406 179.183594 236.410156 180.082031 C 238.027344 181.402344 238.378906 183.71875 238.453125 184.734375 C 239.164062 184.296875 240.378906 184.199219 241.558594 184.535156 C 243.351562 185.042969 244.480469 186.339844 244.644531 188.082031 C 245.019531 191.976562 240.625 193.484375 240.582031 193.496094 L 240.472656 193.535156 L 240.378906 193.472656 C 239.789062 193.09375 239.246094 193.019531 238.753906 193.246094 C 237.878906 193.660156 237.324219 194.988281 237.191406 196.054688 C 237.09375 196.832031 236.496094 198 235.148438 198.714844 C 233.945312 199.355469 231.863281 199.792969 228.757812 198.238281 C 227.308594 197.515625 226.179688 197.152344 225.375 197.152344 Z M 225.363281 197.144531 " fill-opacity="1" fill-rule="nonzero"/><path fill="#1a2e35" d="M 227.546875 189.457031 C 227.546875 189.652344 227.527344 189.839844 227.492188 190.019531 C 227.457031 190.199219 227.410156 190.355469 227.34375 190.496094 C 227.277344 190.632812 227.203125 190.738281 227.117188 190.8125 C 227.03125 190.886719 226.941406 190.925781 226.851562 190.925781 C 226.757812 190.925781 226.667969 190.886719 226.585938 190.8125 C 226.5 190.738281 226.421875 190.632812 226.359375 190.496094 C 226.292969 190.355469 226.242188 190.199219 226.207031 190.019531 C 226.171875 189.839844 226.15625 189.652344 226.15625 189.457031 C 226.15625 189.261719 226.171875 189.074219 226.207031 188.894531 C 226.242188 188.714844 226.292969 188.558594 226.359375 188.417969 C 226.421875 188.28125 226.5 188.175781 226.585938 188.101562 C 226.667969 188.027344 226.757812 187.988281 226.851562 187.988281 C 226.941406 187.988281 227.03125 188.027344 227.117188 188.101562 C 227.203125 188.175781 227.277344 188.28125 227.34375 188.417969 C 227.410156 188.558594 227.457031 188.714844 227.492188 188.894531 C 227.527344 189.074219 227.546875 189.261719 227.546875 189.457031 Z M 227.546875 189.457031 " fill-opacity="1" fill-rule="nonzero"/><path fill="#1a2e35" d="M 226.851562 191.15625 C 226.324219 191.15625 225.921875 190.421875 225.921875 189.457031 C 225.921875 188.492188 226.324219 187.757812 226.851562 187.757812 C 227.378906 187.757812 227.777344 188.492188 227.777344 189.457031 C 227.777344 190.421875 227.378906 191.15625 226.851562 191.15625 Z M 226.851562 188.226562 C 226.667969 188.226562 226.394531 188.714844 226.394531 189.457031 C 226.394531 190.195312 226.667969 190.6875 226.851562 190.6875 C 227.03125 190.6875 227.308594 190.195312 227.308594 189.457031 C 227.308594 188.714844 227.03125 188.226562 226.851562 188.226562 Z M 226.851562 188.226562 " fill-opacity="1" fill-rule="nonzero"/><path fill="#1a2e35" d="M 232.558594 257.851562 L 232.394531 257.414062 C 236.609375 255.871094 239.945312 252.492188 239.984375 252.460938 L 240.324219 252.785156 C 240.292969 252.824219 236.878906 256.273438 232.566406 257.851562 Z M 232.558594 257.851562 " fill-opacity="1" fill-rule="nonzero"/><path fill="#1a2e35" d="M 147.9375 219.445312 C 147.746094 219.363281 143.324219 217.457031 142.003906 215.636719 L 142.386719 215.359375 C 143.632812 217.074219 148.082031 218.992188 148.125 219.011719 L 147.941406 219.445312 Z M 147.9375 219.445312 " fill-opacity="1" fill-rule="nonzero"/><path fill="#1a2e35" d="M 149.195312 216.277344 C 148.957031 216.152344 143.445312 213.226562 143.660156 210.394531 L 144.128906 210.429688 C 143.933594 212.957031 149.359375 215.832031 149.417969 215.863281 Z M 149.195312 216.277344 " fill-opacity="1" fill-rule="nonzero"/><path fill="#1a2e35" d="M 150.46875 211.570312 C 150.433594 211.554688 147.027344 209.808594 148.5 205.5 L 148.945312 205.652344 C 147.605469 209.566406 150.550781 211.082031 150.675781 211.144531 L 150.46875 211.566406 Z M 150.46875 211.570312 " fill-opacity="1" fill-rule="nonzero"/><path fill="#1a2e35" d="M 156.289062 209.15625 C 154.621094 207.828125 151.976562 206.019531 151.949219 206.007812 L 152.214844 205.621094 C 152.214844 205.621094 154.898438 207.453125 156.585938 208.792969 L 156.289062 209.164062 Z M 156.289062 209.15625 " fill-opacity="1" fill-rule="nonzero"/><path fill="#1a2e35" d="M 162.179688 211.566406 L 161.722656 211.464844 C 161.722656 211.464844 162.015625 210.09375 161.683594 208.242188 L 162.148438 208.160156 C 162.5 210.109375 162.199219 211.507812 162.1875 211.570312 Z M 162.179688 211.566406 " fill-opacity="1" fill-rule="nonzero"/><path fill="#ffffff" d="M 166.105469 149.171875 L 193.25 149.171875 L 193.25 165.625 L 166.105469 165.625 Z M 166.105469 149.171875 " fill-opacity="1" fill-rule="nonzero"/><path fill="#1a2e35" d="M 193.484375 165.863281 L 165.867188 165.863281 L 165.867188 148.941406 L 193.484375 148.941406 Z M 166.339844 165.390625 L 193.011719 165.390625 L 193.011719 149.410156 L 166.339844 149.410156 Z M 166.339844 165.390625 " fill-opacity="1" fill-rule="nonzero"/><path fill="#1a2e35" d="M 170.652344 207.457031 L 171.011719 207.152344 L 175.535156 212.527344 L 175.175781 212.828125 Z M 170.652344 207.457031 " fill-opacity="1" fill-rule="nonzero"/><path fill="#ffffff" d="M 173.40625 196.730469 C 173.40625 197.074219 173.339844 197.402344 173.210938 197.714844 C 173.082031 198.03125 172.894531 198.308594 172.652344 198.550781 C 172.414062 198.792969 172.132812 198.976562 171.820312 199.109375 C 171.503906 199.238281 171.175781 199.304688 170.835938 199.304688 C 170.496094 199.304688 170.167969 199.238281 169.851562 199.109375 C 169.535156 198.976562 169.257812 198.792969 169.015625 198.550781 C 168.777344 198.308594 168.589844 198.03125 168.460938 197.714844 C 168.328125 197.402344 168.261719 197.074219 168.261719 196.730469 C 168.261719 196.390625 168.328125 196.0625 168.460938 195.75 C 168.589844 195.433594 168.777344 195.15625 169.015625 194.914062 C 169.257812 194.671875 169.535156 194.488281 169.851562 194.355469 C 170.167969 194.226562 170.496094 194.160156 170.835938 194.160156 C 171.175781 194.160156 171.503906 194.226562 171.820312 194.355469 C 172.132812 194.488281 172.414062 194.671875 172.652344 194.914062 C 172.894531 195.15625 173.082031 195.433594 173.210938 195.75 C 173.339844 196.0625 173.40625 196.390625 173.40625 196.730469 Z M 173.40625 196.730469 " fill-opacity="1" fill-rule="nonzero"/><path fill="#1a2e35" d="M 170.835938 199.542969 C 169.285156 199.542969 168.03125 198.28125 168.03125 196.738281 C 168.03125 195.195312 169.292969 193.933594 170.835938 193.933594 C 172.378906 193.933594 173.640625 195.195312 173.640625 196.738281 C 173.640625 198.28125 172.378906 199.542969 170.835938 199.542969 Z M 170.835938 194.398438 C 169.550781 194.398438 168.503906 195.445312 168.503906 196.730469 C 168.503906 198.019531 169.550781 199.066406 170.835938 199.066406 C 172.121094 199.066406 173.167969 198.019531 173.167969 196.730469 C 173.167969 195.445312 172.121094 194.398438 170.835938 194.398438 Z M 170.835938 194.398438 " fill-opacity="1" fill-rule="nonzero"/><path fill="#1a2e35" d="M 165.984375 165.417969 L 193.132812 148.96875 L 193.375 149.371094 L 166.226562 165.820312 Z M 165.984375 165.417969 " fill-opacity="1" fill-rule="nonzero"/><path fill="#1a2e35" d="M 165.988281 149.382812 L 166.234375 148.980469 L 193.378906 165.433594 L 193.132812 165.835938 Z M 165.988281 149.382812 " fill-opacity="1" fill-rule="nonzero"/><path fill="#00b298" d="M 150.882812 156.992188 C 150.882812 157.507812 150.832031 158.019531 150.734375 158.527344 C 150.632812 159.035156 150.484375 159.527344 150.285156 160.003906 C 150.085938 160.480469 149.84375 160.933594 149.558594 161.363281 C 149.269531 161.792969 148.945312 162.1875 148.582031 162.554688 C 148.214844 162.917969 147.816406 163.246094 147.386719 163.53125 C 146.957031 163.820312 146.503906 164.0625 146.027344 164.257812 C 145.550781 164.457031 145.058594 164.605469 144.554688 164.707031 C 144.046875 164.808594 143.535156 164.859375 143.019531 164.859375 C 142.503906 164.859375 141.992188 164.808594 141.484375 164.707031 C 140.976562 164.605469 140.484375 164.457031 140.007812 164.257812 C 139.53125 164.0625 139.078125 163.820312 138.648438 163.53125 C 138.21875 163.246094 137.824219 162.917969 137.457031 162.554688 C 137.09375 162.1875 136.765625 161.792969 136.480469 161.363281 C 136.191406 160.933594 135.949219 160.480469 135.753906 160.003906 C 135.554688 159.527344 135.40625 159.035156 135.304688 158.527344 C 135.203125 158.019531 135.152344 157.507812 135.152344 156.992188 C 135.152344 156.476562 135.203125 155.964844 135.304688 155.457031 C 135.40625 154.953125 135.554688 154.460938 135.753906 153.984375 C 135.949219 153.507812 136.191406 153.050781 136.480469 152.625 C 136.765625 152.195312 137.09375 151.796875 137.457031 151.429688 C 137.824219 151.066406 138.21875 150.738281 138.648438 150.453125 C 139.078125 150.167969 139.53125 149.925781 140.007812 149.726562 C 140.484375 149.527344 140.976562 149.378906 141.484375 149.277344 C 141.992188 149.179688 142.503906 149.128906 143.019531 149.128906 C 143.535156 149.128906 144.046875 149.179688 144.554688 149.277344 C 145.058594 149.378906 145.550781 149.527344 146.027344 149.726562 C 146.503906 149.925781 146.957031 150.167969 147.386719 150.453125 C 147.816406 150.738281 148.214844 151.066406 148.582031 151.429688 C 148.945312 151.796875 149.269531 152.195312 149.558594 152.625 C 149.84375 153.050781 150.085938 153.507812 150.285156 153.984375 C 150.484375 154.460938 150.632812 154.953125 150.734375 155.457031 C 150.832031 155.964844 150.882812 156.476562 150.882812 156.992188 Z M 150.882812 156.992188 " fill-opacity="1" fill-rule="nonzero"/><path fill="#1a2e35" d="M 143.019531 165.089844 C 138.554688 165.089844 134.914062 161.457031 134.914062 156.988281 C 134.914062 152.515625 138.546875 148.882812 143.019531 148.882812 C 147.492188 148.882812 151.121094 152.515625 151.121094 156.988281 C 151.121094 161.457031 147.492188 165.089844 143.019531 165.089844 Z M 143.019531 149.359375 C 138.808594 149.359375 135.386719 152.785156 135.386719 156.992188 C 135.386719 161.203125 138.808594 164.625 143.019531 164.625 C 147.226562 164.625 150.652344 161.203125 150.652344 156.992188 C 150.652344 152.785156 147.226562 149.359375 143.019531 149.359375 Z M 143.019531 149.359375 " fill-opacity="1" fill-rule="nonzero"/><path fill="#00b298" d="M 143.890625 138.328125 C 143.890625 138.574219 143.84375 138.808594 143.75 139.035156 C 143.65625 139.261719 143.523438 139.460938 143.347656 139.636719 C 143.175781 139.808594 142.976562 139.941406 142.75 140.035156 C 142.523438 140.128906 142.285156 140.175781 142.039062 140.175781 C 141.796875 140.175781 141.558594 140.128906 141.332031 140.035156 C 141.105469 139.941406 140.90625 139.808594 140.730469 139.636719 C 140.558594 139.460938 140.425781 139.261719 140.332031 139.035156 C 140.238281 138.808594 140.191406 138.574219 140.191406 138.328125 C 140.191406 138.082031 140.238281 137.847656 140.332031 137.621094 C 140.425781 137.390625 140.558594 137.191406 140.730469 137.019531 C 140.90625 136.84375 141.105469 136.710938 141.332031 136.617188 C 141.558594 136.523438 141.796875 136.476562 142.039062 136.476562 C 142.285156 136.476562 142.523438 136.523438 142.75 136.617188 C 142.976562 136.710938 143.175781 136.84375 143.347656 137.019531 C 143.523438 137.191406 143.65625 137.390625 143.75 137.621094 C 143.84375 137.847656 143.890625 138.082031 143.890625 138.328125 Z M 143.890625 138.328125 " fill-opacity="1" fill-rule="nonzero"/><path fill="#1a2e35" d="M 142.039062 140.410156 C 140.890625 140.410156 139.953125 139.476562 139.953125 138.320312 C 139.953125 137.167969 140.886719 136.234375 142.039062 136.234375 C 143.195312 136.234375 144.128906 137.167969 144.128906 138.320312 C 144.128906 139.476562 143.195312 140.410156 142.039062 140.410156 Z M 142.039062 136.710938 C 141.148438 136.710938 140.421875 137.4375 140.421875 138.328125 C 140.421875 139.21875 141.148438 139.945312 142.039062 139.945312 C 142.929688 139.945312 143.660156 139.21875 143.660156 138.328125 C 143.660156 137.4375 142.929688 136.710938 142.039062 136.710938 Z M 142.039062 136.710938 " fill-opacity="1" fill-rule="nonzero"/><path fill="#ffffff" d="M 137.71875 138.328125 C 137.71875 138.574219 137.671875 138.808594 137.578125 139.035156 C 137.484375 139.261719 137.351562 139.460938 137.175781 139.636719 C 137.003906 139.808594 136.804688 139.941406 136.578125 140.035156 C 136.351562 140.128906 136.113281 140.175781 135.867188 140.175781 C 135.625 140.175781 135.386719 140.128906 135.160156 140.035156 C 134.933594 139.941406 134.734375 139.808594 134.558594 139.636719 C 134.386719 139.460938 134.253906 139.261719 134.160156 139.035156 C 134.066406 138.808594 134.019531 138.574219 134.019531 138.328125 C 134.019531 138.082031 134.066406 137.847656 134.160156 137.621094 C 134.253906 137.390625 134.386719 137.191406 134.558594 137.019531 C 134.734375 136.84375 134.933594 136.710938 135.160156 136.617188 C 135.386719 136.523438 135.625 136.476562 135.867188 136.476562 C 136.113281 136.476562 136.351562 136.523438 136.578125 136.617188 C 136.804688 136.710938 137.003906 136.84375 137.175781 137.019531 C 137.351562 137.191406 137.484375 137.390625 137.578125 137.621094 C 137.671875 137.847656 137.71875 138.082031 137.71875 138.328125 Z M 137.71875 138.328125 " fill-opacity="1" fill-rule="nonzero"/><path fill="#1a2e35" d="M 135.867188 140.410156 C 134.722656 140.410156 133.78125 139.476562 133.78125 138.320312 C 133.78125 137.167969 134.714844 136.234375 135.867188 136.234375 C 137.023438 136.234375 137.957031 137.167969 137.957031 138.320312 C 137.957031 139.476562 137.023438 140.410156 135.867188 140.410156 Z M 135.867188 136.710938 C 134.976562 136.710938 134.25 137.4375 134.25 138.328125 C 134.25 139.21875 134.976562 139.945312 135.867188 139.945312 C 136.757812 139.945312 137.488281 139.21875 137.488281 138.328125 C 137.488281 137.4375 136.757812 136.710938 135.867188 136.710938 Z M 135.867188 136.710938 " fill-opacity="1" fill-rule="nonzero"/><path fill="#fd5161" d="M 131.554688 138.328125 C 131.554688 138.574219 131.507812 138.808594 131.414062 139.035156 C 131.320312 139.261719 131.183594 139.460938 131.011719 139.636719 C 130.839844 139.808594 130.636719 139.941406 130.410156 140.035156 C 130.183594 140.128906 129.949219 140.175781 129.703125 140.175781 C 129.457031 140.175781 129.222656 140.128906 128.996094 140.035156 C 128.769531 139.941406 128.570312 139.808594 128.394531 139.636719 C 128.222656 139.460938 128.085938 139.261719 127.992188 139.035156 C 127.898438 138.808594 127.851562 138.574219 127.851562 138.328125 C 127.851562 138.082031 127.898438 137.847656 127.992188 137.621094 C 128.085938 137.390625 128.222656 137.191406 128.394531 137.019531 C 128.570312 136.84375 128.769531 136.710938 128.996094 136.617188 C 129.222656 136.523438 129.457031 136.476562 129.703125 136.476562 C 129.949219 136.476562 130.183594 136.523438 130.410156 136.617188 C 130.636719 136.710938 130.839844 136.84375 131.011719 137.019531 C 131.183594 137.191406 131.320312 137.390625 131.414062 137.621094 C 131.507812 137.847656 131.554688 138.082031 131.554688 138.328125 Z M 131.554688 138.328125 " fill-opacity="1" fill-rule="nonzero"/><path fill="#1a2e35" d="M 129.703125 140.410156 C 128.554688 140.410156 127.613281 139.476562 127.613281 138.320312 C 127.613281 137.167969 128.550781 136.234375 129.703125 136.234375 C 130.855469 136.234375 131.792969 137.167969 131.792969 138.320312 C 131.792969 139.476562 130.855469 140.410156 129.703125 140.410156 Z M 129.703125 136.710938 C 128.8125 136.710938 128.085938 137.4375 128.085938 138.328125 C 128.085938 139.21875 128.8125 139.945312 129.703125 139.945312 C 130.59375 139.945312 131.320312 139.21875 131.320312 138.328125 C 131.320312 137.4375 130.59375 136.710938 129.703125 136.710938 Z M 129.703125 136.710938 " fill-opacity="1" fill-rule="nonzero"/><path fill="#e1e1e1" d="M 71.292969 149.070312 L 95.558594 149.070312 L 95.558594 153.90625 L 71.292969 153.90625 Z M 71.292969 149.070312 " fill-opacity="1" fill-rule="nonzero"/><path fill="#1a2e35" d="M 95.796875 154.140625 L 71.058594 154.140625 L 71.058594 148.832031 L 95.796875 148.832031 Z M 71.53125 153.667969 L 95.328125 153.667969 L 95.328125 149.304688 L 71.53125 149.304688 Z M 71.53125 153.667969 " fill-opacity="1" fill-rule="nonzero"/><path fill="#e1e1e1" d="M 71.292969 164.601562 L 89.492188 164.601562 L 89.492188 169.4375 L 71.292969 169.4375 Z M 71.292969 164.601562 " fill-opacity="1" fill-rule="nonzero"/><path fill="#1a2e35" d="M 89.730469 169.667969 L 71.058594 169.667969 L 71.058594 164.363281 L 89.730469 164.363281 Z M 71.53125 169.199219 L 89.261719 169.199219 L 89.261719 164.832031 L 71.53125 164.832031 Z M 71.53125 169.199219 " fill-opacity="1" fill-rule="nonzero"/><path fill="#e1e1e1" d="M 47.238281 173.621094 L 95.113281 173.621094 C 95.402344 173.621094 95.675781 173.675781 95.945312 173.785156 C 96.210938 173.894531 96.445312 174.050781 96.648438 174.253906 C 96.851562 174.460938 97.007812 174.695312 97.117188 174.960938 C 97.226562 175.226562 97.28125 175.503906 97.28125 175.789062 L 97.28125 181.503906 C 97.28125 181.792969 97.226562 182.070312 97.117188 182.335938 C 97.007812 182.601562 96.851562 182.835938 96.648438 183.039062 C 96.445312 183.242188 96.210938 183.398438 95.945312 183.507812 C 95.675781 183.617188 95.402344 183.675781 95.113281 183.675781 L 47.238281 183.675781 C 46.949219 183.675781 46.675781 183.617188 46.40625 183.507812 C 46.140625 183.398438 45.90625 183.242188 45.703125 183.039062 C 45.5 182.835938 45.34375 182.601562 45.234375 182.335938 C 45.125 182.070312 45.070312 181.792969 45.070312 181.503906 L 45.070312 175.789062 C 45.070312 175.503906 45.125 175.226562 45.234375 174.960938 C 45.34375 174.695312 45.5 174.460938 45.703125 174.253906 C 45.90625 174.050781 46.140625 173.894531 46.40625 173.785156 C 46.675781 173.675781 46.949219 173.621094 47.238281 173.621094 Z M 47.238281 173.621094 " fill-opacity="1" fill-rule="nonzero"/><path fill="#1a2e35" d="M 95.113281 183.914062 L 47.246094 183.914062 C 45.914062 183.914062 44.835938 182.832031 44.835938 181.503906 L 44.835938 175.796875 C 44.835938 174.464844 45.914062 173.386719 47.246094 173.386719 L 95.113281 173.386719 C 96.441406 173.386719 97.519531 174.464844 97.519531 175.796875 L 97.519531 181.503906 C 97.519531 182.832031 96.441406 183.914062 95.113281 183.914062 Z M 47.246094 173.859375 C 46.179688 173.859375 45.308594 174.730469 45.308594 175.796875 L 45.308594 181.503906 C 45.308594 182.570312 46.179688 183.441406 47.246094 183.441406 L 95.113281 183.441406 C 96.179688 183.441406 97.050781 182.570312 97.050781 181.503906 L 97.050781 175.796875 C 97.050781 174.730469 96.179688 173.859375 95.113281 173.859375 Z M 47.246094 173.859375 " fill-opacity="1" fill-rule="nonzero"/><path fill="#e1e1e1" d="M 71.292969 156.992188 L 95.558594 156.992188 L 95.558594 161.828125 L 71.292969 161.828125 Z M 71.292969 156.992188 " fill-opacity="1" fill-rule="nonzero"/><path fill="#1a2e35" d="M 95.796875 162.0625 L 71.058594 162.0625 L 71.058594 156.753906 L 95.796875 156.753906 Z M 71.53125 161.589844 L 95.328125 161.589844 L 95.328125 157.226562 L 71.53125 157.226562 Z M 71.53125 161.589844 " fill-opacity="1" fill-rule="nonzero"/><path fill="#00b298" d="M 61.46875 162.617188 C 61.46875 163.054688 61.425781 163.484375 61.34375 163.914062 C 61.257812 164.339844 61.132812 164.753906 60.964844 165.15625 C 60.796875 165.558594 60.59375 165.941406 60.351562 166.300781 C 60.109375 166.664062 59.835938 167 59.527344 167.304688 C 59.21875 167.613281 58.886719 167.890625 58.523438 168.132812 C 58.160156 168.371094 57.78125 168.578125 57.378906 168.742188 C 56.976562 168.910156 56.5625 169.035156 56.132812 169.121094 C 55.707031 169.207031 55.277344 169.25 54.839844 169.25 C 54.40625 169.25 53.972656 169.207031 53.546875 169.121094 C 53.121094 169.035156 52.707031 168.910156 52.304688 168.742188 C 51.902344 168.578125 51.519531 168.371094 51.15625 168.132812 C 50.796875 167.890625 50.460938 167.613281 50.152344 167.304688 C 49.84375 167 49.570312 166.664062 49.328125 166.300781 C 49.085938 165.941406 48.882812 165.558594 48.714844 165.15625 C 48.550781 164.753906 48.421875 164.339844 48.339844 163.914062 C 48.253906 163.484375 48.210938 163.054688 48.210938 162.617188 C 48.210938 162.183594 48.253906 161.753906 48.339844 161.324219 C 48.421875 160.898438 48.550781 160.484375 48.714844 160.082031 C 48.882812 159.679688 49.085938 159.296875 49.328125 158.9375 C 49.570312 158.574219 49.84375 158.238281 50.152344 157.929688 C 50.460938 157.625 50.796875 157.347656 51.15625 157.105469 C 51.519531 156.863281 51.902344 156.660156 52.304688 156.492188 C 52.707031 156.328125 53.121094 156.203125 53.546875 156.117188 C 53.972656 156.03125 54.40625 155.988281 54.839844 155.988281 C 55.277344 155.988281 55.707031 156.03125 56.132812 156.117188 C 56.5625 156.203125 56.976562 156.328125 57.378906 156.492188 C 57.78125 156.660156 58.160156 156.863281 58.523438 157.105469 C 58.886719 157.347656 59.21875 157.625 59.527344 157.929688 C 59.835938 158.238281 60.109375 158.574219 60.351562 158.9375 C 60.59375 159.296875 60.796875 159.679688 60.964844 160.082031 C 61.132812 160.484375 61.257812 160.898438 61.34375 161.324219 C 61.425781 161.753906 61.46875 162.183594 61.46875 162.617188 Z M 61.46875 162.617188 " fill-opacity="1" fill-rule="nonzero"/><path fill="#1a2e35" d="M 54.839844 169.488281 C 51.050781 169.488281 47.972656 166.40625 47.972656 162.617188 C 47.972656 158.832031 51.050781 155.75 54.839844 155.75 C 58.628906 155.75 61.707031 158.832031 61.707031 162.617188 C 61.707031 166.40625 58.628906 169.488281 54.839844 169.488281 Z M 54.839844 156.222656 C 51.316406 156.222656 48.441406 159.09375 48.441406 162.617188 C 48.441406 166.144531 51.316406 169.015625 54.839844 169.015625 C 58.363281 169.015625 61.238281 166.144531 61.238281 162.617188 C 61.238281 159.09375 58.363281 156.222656 54.839844 156.222656 Z M 54.839844 156.222656 " fill-opacity="1" fill-rule="nonzero"/><path fill="#00b298" d="M 64.25 144.34375 C 64.25 144.660156 64.1875 144.964844 64.066406 145.257812 C 63.945312 145.550781 63.773438 145.808594 63.546875 146.03125 C 63.324219 146.257812 63.066406 146.429688 62.773438 146.550781 C 62.480469 146.671875 62.175781 146.730469 61.859375 146.730469 C 61.542969 146.730469 61.238281 146.671875 60.945312 146.550781 C 60.652344 146.429688 60.394531 146.257812 60.167969 146.03125 C 59.945312 145.808594 59.773438 145.550781 59.652344 145.257812 C 59.53125 144.964844 59.46875 144.660156 59.46875 144.34375 C 59.46875 144.023438 59.53125 143.71875 59.652344 143.425781 C 59.773438 143.136719 59.945312 142.875 60.167969 142.652344 C 60.394531 142.429688 60.652344 142.253906 60.945312 142.132812 C 61.238281 142.011719 61.542969 141.953125 61.859375 141.953125 C 62.175781 141.953125 62.480469 142.011719 62.773438 142.132812 C 63.066406 142.253906 63.324219 142.429688 63.546875 142.652344 C 63.773438 142.875 63.945312 143.136719 64.066406 143.425781 C 64.1875 143.71875 64.25 144.023438 64.25 144.34375 Z M 64.25 144.34375 " fill-opacity="1" fill-rule="nonzero"/><path fill="#1a2e35" d="M 61.859375 146.96875 C 60.410156 146.96875 59.230469 145.789062 59.230469 144.34375 C 59.230469 142.894531 60.410156 141.714844 61.859375 141.714844 C 63.308594 141.714844 64.488281 142.894531 64.488281 144.34375 C 64.488281 145.789062 63.308594 146.96875 61.859375 146.96875 Z M 61.859375 142.191406 C 60.667969 142.191406 59.699219 143.15625 59.699219 144.347656 C 59.699219 145.539062 60.667969 146.507812 61.859375 146.507812 C 63.050781 146.507812 64.015625 145.539062 64.015625 144.347656 C 64.015625 143.15625 63.050781 142.191406 61.859375 142.191406 Z M 61.859375 142.191406 " fill-opacity="1" fill-rule="nonzero"/><path fill="#fd5161" d="M 48.976562 144.34375 C 48.976562 144.660156 48.914062 144.964844 48.792969 145.257812 C 48.671875 145.550781 48.5 145.808594 48.277344 146.03125 C 48.050781 146.257812 47.792969 146.429688 47.5 146.550781 C 47.207031 146.671875 46.902344 146.730469 46.585938 146.730469 C 46.269531 146.730469 45.964844 146.671875 45.671875 146.550781 C 45.378906 146.429688 45.121094 146.257812 44.898438 146.03125 C 44.671875 145.808594 44.5 145.550781 44.378906 145.257812 C 44.257812 144.964844 44.195312 144.660156 44.195312 144.34375 C 44.195312 144.023438 44.257812 143.71875 44.378906 143.425781 C 44.5 143.136719 44.671875 142.875 44.898438 142.652344 C 45.121094 142.429688 45.378906 142.253906 45.671875 142.132812 C 45.964844 142.011719 46.269531 141.953125 46.585938 141.953125 C 46.902344 141.953125 47.207031 142.011719 47.5 142.132812 C 47.792969 142.253906 48.050781 142.429688 48.277344 142.652344 C 48.5 142.875 48.671875 143.136719 48.792969 143.425781 C 48.914062 143.71875 48.976562 144.023438 48.976562 144.34375 Z M 48.976562 144.34375 " fill-opacity="1" fill-rule="nonzero"/><path fill="#1a2e35" d="M 46.585938 146.96875 C 45.136719 146.96875 43.957031 145.789062 43.957031 144.34375 C 43.957031 142.894531 45.136719 141.714844 46.585938 141.714844 C 48.035156 141.714844 49.214844 142.894531 49.214844 144.34375 C 49.214844 145.789062 48.035156 146.96875 46.585938 146.96875 Z M 46.585938 142.191406 C 45.394531 142.191406 44.429688 143.15625 44.429688 144.347656 C 44.429688 145.539062 45.394531 146.507812 46.585938 146.507812 C 47.777344 146.507812 48.742188 145.539062 48.742188 144.347656 C 48.742188 143.15625 47.777344 142.191406 46.585938 142.191406 Z M 46.585938 142.191406 " fill-opacity="1" fill-rule="nonzero"/><path fill="#e1e1e1" d="M 56.691406 144.34375 C 56.691406 144.660156 56.628906 144.964844 56.507812 145.257812 C 56.386719 145.550781 56.214844 145.808594 55.992188 146.03125 C 55.765625 146.257812 55.507812 146.429688 55.214844 146.550781 C 54.921875 146.671875 54.617188 146.730469 54.300781 146.730469 C 53.984375 146.730469 53.679688 146.671875 53.386719 146.550781 C 53.09375 146.429688 52.835938 146.257812 52.609375 146.03125 C 52.386719 145.808594 52.214844 145.550781 52.09375 145.257812 C 51.972656 144.964844 51.910156 144.660156 51.910156 144.34375 C 51.910156 144.023438 51.972656 143.71875 52.09375 143.425781 C 52.214844 143.136719 52.386719 142.875 52.609375 142.652344 C 52.835938 142.429688 53.09375 142.253906 53.386719 142.132812 C 53.679688 142.011719 53.984375 141.953125 54.300781 141.953125 C 54.617188 141.953125 54.921875 142.011719 55.214844 142.132812 C 55.507812 142.253906 55.765625 142.429688 55.992188 142.652344 C 56.214844 142.875 56.386719 143.136719 56.507812 143.425781 C 56.628906 143.71875 56.691406 144.023438 56.691406 144.34375 Z M 56.691406 144.34375 " fill-opacity="1" fill-rule="nonzero"/><path fill="#1a2e35" d="M 54.300781 146.96875 C 52.851562 146.96875 51.671875 145.789062 51.671875 144.34375 C 51.671875 142.894531 52.851562 141.714844 54.300781 141.714844 C 55.75 141.714844 56.929688 142.894531 56.929688 144.34375 C 56.929688 145.789062 55.75 146.96875 54.300781 146.96875 Z M 54.300781 142.191406 C 53.109375 142.191406 52.144531 143.15625 52.144531 144.347656 C 52.144531 145.539062 53.109375 146.507812 54.300781 146.507812 C 55.492188 146.507812 56.457031 145.539062 56.457031 144.347656 C 56.457031 143.15625 55.492188 142.191406 54.300781 142.191406 Z M 54.300781 142.191406 " fill-opacity="1" fill-rule="nonzero"/><path fill="#1a2e35" d="M 99.472656 146.324219 L 66.769531 146.324219 C 66.636719 146.324219 66.53125 146.21875 66.53125 146.085938 C 66.53125 145.953125 66.636719 145.847656 66.769531 145.847656 L 99.472656 145.847656 C 99.605469 145.847656 99.710938 145.953125 99.710938 146.085938 C 99.710938 146.21875 99.605469 146.324219 99.472656 146.324219 Z M 99.472656 146.324219 " fill-opacity="1" fill-rule="nonzero"/><path fill="#ffffff" d="M 69.210938 220.152344 C 69.210938 220.5 69.144531 220.835938 69.011719 221.15625 C 68.875 221.476562 68.6875 221.761719 68.441406 222.007812 C 68.195312 222.25 67.914062 222.441406 67.589844 222.574219 C 67.269531 222.707031 66.933594 222.773438 66.585938 222.773438 C 66.238281 222.773438 65.90625 222.707031 65.585938 222.574219 C 65.261719 222.441406 64.980469 222.25 64.734375 222.007812 C 64.488281 221.761719 64.296875 221.476562 64.164062 221.15625 C 64.03125 220.835938 63.964844 220.5 63.964844 220.152344 C 63.964844 219.804688 64.03125 219.46875 64.164062 219.148438 C 64.296875 218.828125 64.488281 218.542969 64.734375 218.296875 C 64.980469 218.050781 65.261719 217.863281 65.585938 217.730469 C 65.90625 217.597656 66.238281 217.53125 66.585938 217.53125 C 66.933594 217.53125 67.269531 217.597656 67.589844 217.730469 C 67.914062 217.863281 68.195312 218.050781 68.441406 218.296875 C 68.6875 218.542969 68.875 218.828125 69.011719 219.148438 C 69.144531 219.46875 69.210938 219.804688 69.210938 220.152344 Z M 69.210938 220.152344 " fill-opacity="1" fill-rule="nonzero"/><path fill="#1a2e35" d="M 66.585938 223.011719 C 65.011719 223.011719 63.726562 221.734375 63.726562 220.152344 C 63.726562 218.570312 65.007812 217.292969 66.585938 217.292969 C 68.167969 217.292969 69.449219 218.570312 69.449219 220.152344 C 69.449219 221.734375 68.167969 223.011719 66.585938 223.011719 Z M 66.585938 217.769531 C 65.269531 217.769531 64.199219 218.839844 64.199219 220.160156 C 64.199219 221.476562 65.269531 222.546875 66.585938 222.546875 C 67.90625 222.546875 68.976562 221.476562 68.976562 220.160156 C 68.976562 218.839844 67.90625 217.769531 66.585938 217.769531 Z M 66.585938 217.769531 " fill-opacity="1" fill-rule="nonzero"/><path fill="#ffffff" d="M 84.578125 191.703125 L 85.460938 192.808594 L 77.84375 198.875 L 76.960938 197.765625 C 76.355469 197.003906 76.480469 195.902344 77.242188 195.296875 L 82.109375 191.421875 C 82.871094 190.816406 83.972656 190.941406 84.578125 191.703125 Z M 84.578125 191.703125 " fill-opacity="1" fill-rule="nonzero"/><path fill="#1a2e35" d="M 77.800781 199.203125 L 76.773438 197.910156 C 76.441406 197.496094 76.289062 196.976562 76.351562 196.445312 C 76.417969 195.917969 76.671875 195.441406 77.09375 195.109375 L 81.960938 191.230469 C 82.820312 190.546875 84.074219 190.691406 84.757812 191.550781 L 85.785156 192.84375 Z M 83.195312 191.277344 C 82.851562 191.277344 82.523438 191.386719 82.25 191.609375 L 77.382812 195.484375 C 77.0625 195.734375 76.863281 196.097656 76.816406 196.5 C 76.773438 196.902344 76.886719 197.304688 77.136719 197.617188 L 77.871094 198.539062 L 85.121094 192.769531 L 84.386719 191.847656 C 84.136719 191.527344 83.773438 191.324219 83.371094 191.28125 C 83.316406 191.277344 83.253906 191.269531 83.195312 191.269531 Z M 83.195312 191.277344 " fill-opacity="1" fill-rule="nonzero"/><path fill="#00b298" d="M 93.425781 202.859375 L 85.335938 192.699219 L 77.71875 198.765625 L 85.8125 208.925781 C 85.8125 208.925781 82.304688 218.621094 90.910156 225.777344 L 107.644531 212.1875 C 107.644531 212.1875 104.296875 203.273438 93.425781 202.859375 Z M 93.425781 202.859375 " fill-opacity="1" fill-rule="nonzero"/><path fill="#1a2e35" d="M 90.910156 226.078125 L 90.761719 225.953125 C 82.65625 219.21875 85.171875 210.148438 85.546875 208.96875 L 77.386719 198.71875 L 85.371094 192.359375 L 93.546875 202.621094 C 104.363281 203.09375 107.832031 212.003906 107.871094 212.097656 L 107.925781 212.253906 L 90.910156 226.074219 Z M 78.046875 198.796875 L 86.074219 208.882812 L 86.03125 209.007812 C 86 209.101562 82.726562 218.519531 90.917969 225.472656 L 107.367188 212.117188 C 106.855469 210.9375 103.222656 203.476562 93.425781 203.097656 L 93.320312 203.097656 C 93.320312 203.097656 85.304688 193.03125 85.304688 193.03125 L 78.054688 198.800781 Z M 78.046875 198.796875 " fill-opacity="1" fill-rule="nonzero"/><path fill="#ffffff" d="M 107.640625 212.199219 C 107.75 212.335938 107.808594 212.515625 107.808594 212.738281 C 107.8125 212.960938 107.757812 213.21875 107.652344 213.515625 C 107.542969 213.8125 107.382812 214.144531 107.171875 214.503906 C 106.957031 214.867188 106.695312 215.253906 106.386719 215.667969 C 106.078125 216.078125 105.722656 216.507812 105.328125 216.957031 C 104.933594 217.402344 104.503906 217.859375 104.039062 218.324219 C 103.574219 218.789062 103.082031 219.253906 102.566406 219.71875 C 102.046875 220.183594 101.515625 220.636719 100.964844 221.082031 C 100.414062 221.53125 99.859375 221.957031 99.300781 222.371094 C 98.738281 222.78125 98.183594 223.164062 97.632812 223.523438 C 97.082031 223.886719 96.546875 224.210938 96.027344 224.507812 C 95.507812 224.800781 95.015625 225.058594 94.550781 225.277344 C 94.082031 225.496094 93.648438 225.671875 93.25 225.804688 C 92.851562 225.9375 92.496094 226.027344 92.183594 226.074219 C 91.871094 226.117188 91.605469 226.113281 91.390625 226.066406 C 91.171875 226.019531 91.007812 225.925781 90.898438 225.789062 C 90.785156 225.652344 90.730469 225.472656 90.726562 225.253906 C 90.726562 225.03125 90.777344 224.769531 90.886719 224.472656 C 90.992188 224.175781 91.152344 223.847656 91.367188 223.484375 C 91.578125 223.121094 91.839844 222.734375 92.152344 222.324219 C 92.460938 221.910156 92.8125 221.480469 93.207031 221.03125 C 93.605469 220.585938 94.035156 220.128906 94.5 219.664062 C 94.964844 219.199219 95.457031 218.734375 95.972656 218.273438 C 96.488281 217.808594 97.023438 217.351562 97.574219 216.90625 C 98.121094 216.460938 98.679688 216.03125 99.238281 215.621094 C 99.800781 215.210938 100.355469 214.824219 100.90625 214.464844 C 101.457031 214.105469 101.992188 213.777344 102.507812 213.484375 C 103.027344 213.1875 103.519531 212.929688 103.988281 212.710938 C 104.457031 212.496094 104.890625 212.316406 105.285156 212.183594 C 105.683594 212.050781 106.039062 211.960938 106.351562 211.917969 C 106.667969 211.875 106.929688 211.875 107.148438 211.921875 C 107.363281 211.96875 107.527344 212.0625 107.640625 212.199219 Z M 107.640625 212.199219 " fill-opacity="1" fill-rule="nonzero"/><path fill="#1a2e35" d="M 91.777344 226.324219 C 91.332031 226.324219 90.960938 226.210938 90.730469 225.921875 C 90.050781 225.089844 91.035156 223.417969 91.976562 222.164062 C 93.25 220.472656 95.1875 218.535156 97.441406 216.707031 C 101.585938 213.339844 106.632812 210.5625 107.832031 212.035156 C 108.511719 212.871094 107.523438 214.539062 106.585938 215.792969 C 105.3125 217.488281 103.375 219.425781 101.121094 221.25 C 98.871094 223.074219 96.574219 224.574219 94.660156 225.472656 C 93.734375 225.902344 92.621094 226.324219 91.777344 226.324219 Z M 106.785156 212.097656 C 105.261719 212.097656 101.71875 213.835938 97.734375 217.074219 C 95.515625 218.878906 93.601562 220.785156 92.351562 222.449219 C 91.199219 223.984375 90.730469 225.167969 91.097656 225.628906 C 91.46875 226.078125 92.722656 225.867188 94.46875 225.050781 C 96.347656 224.171875 98.613281 222.691406 100.832031 220.886719 C 103.054688 219.078125 104.964844 217.171875 106.214844 215.511719 C 107.367188 213.972656 107.839844 212.789062 107.46875 212.332031 C 107.34375 212.175781 107.113281 212.097656 106.785156 212.097656 Z M 106.785156 212.097656 " fill-opacity="1" fill-rule="nonzero"/><path fill="#1a2e35" d="M 170.246094 107.765625 L 169.074219 111.320312 L 167.5625 111.320312 L 171.398438 100.011719 L 173.164062 100.011719 L 177.019531 111.320312 L 175.457031 111.320312 L 174.246094 107.765625 L 170.238281 107.765625 Z M 173.953125 106.621094 L 172.84375 103.367188 C 172.589844 102.625 172.421875 101.957031 172.253906 101.304688 L 172.222656 101.304688 C 172.050781 101.976562 171.871094 102.664062 171.652344 103.347656 L 170.539062 106.621094 Z M 173.953125 106.621094 " fill-opacity="1" fill-rule="nonzero"/><path fill="#1a2e35" d="M 183.199219 111.328125 L 183.078125 110.304688 L 183.027344 110.304688 C 182.578125 110.945312 181.703125 111.515625 180.542969 111.515625 C 178.902344 111.515625 178.0625 110.355469 178.0625 109.179688 C 178.0625 107.21875 179.804688 106.144531 182.941406 106.164062 L 182.941406 105.996094 C 182.941406 105.324219 182.757812 104.113281 181.097656 104.113281 C 180.34375 104.113281 179.554688 104.34375 178.984375 104.714844 L 178.648438 103.742188 C 179.320312 103.304688 180.292969 103.023438 181.316406 103.023438 C 183.800781 103.023438 184.402344 104.714844 184.402344 106.347656 L 184.402344 109.382812 C 184.402344 110.085938 184.433594 110.773438 184.535156 111.328125 L 183.191406 111.328125 Z M 182.976562 107.179688 C 181.367188 107.148438 179.539062 107.429688 179.539062 109.011719 C 179.539062 109.964844 180.179688 110.421875 180.933594 110.421875 C 181.992188 110.421875 182.65625 109.75 182.894531 109.0625 C 182.945312 108.910156 182.976562 108.742188 182.976562 108.589844 Z M 182.976562 107.179688 " fill-opacity="1" fill-rule="nonzero"/><path fill="#1a2e35" d="M 205.507812 105.472656 L 213.289062 101.464844 L 213.289062 102.625 L 206.730469 105.914062 L 206.730469 105.945312 L 213.289062 109.230469 L 213.289062 110.390625 L 205.507812 106.382812 Z M 205.507812 105.472656 " fill-opacity="1" fill-rule="nonzero"/><path fill="#1a2e35" d="M 214.382812 111.054688 L 219.0625 98.894531 L 220.203125 98.894531 L 215.503906 111.054688 Z M 214.382812 111.054688 " fill-opacity="1" fill-rule="nonzero"/><path fill="#1a2e35" d="M 229.046875 106.394531 L 221.261719 110.390625 L 221.261719 109.230469 L 227.871094 105.945312 L 227.871094 105.914062 L 221.261719 102.625 L 221.261719 101.464844 L 229.046875 105.460938 L 229.046875 106.402344 Z M 229.046875 106.394531 " fill-opacity="1" fill-rule="nonzero"/><path fill="#1a2e35" d="M 307.027344 249.660156 L 306.066406 248.621094 C 306.066406 248.621094 302.097656 251.222656 301.035156 251.84375 C 298.074219 242.492188 292.425781 230.933594 281.644531 221.820312 C 281.644531 221.820312 298.082031 239.277344 304.277344 268.636719 C 304.277344 268.636719 304.089844 262.4375 301.675781 253.964844 C 303.324219 253.40625 307.027344 249.660156 307.027344 249.660156 Z M 307.027344 249.660156 " fill-opacity="0.5" fill-rule="nonzero"/><path fill="#1a2e35" d="M 79.394531 197.648438 L 87.882812 208.058594 C 87.882812 208.058594 90.285156 220.546875 94.285156 219.667969 C 94.285156 219.667969 90.09375 224.203125 90.910156 225.777344 C 90.910156 225.777344 86.167969 222.367188 85.210938 215.847656 C 85.210938 215.847656 84.800781 211.824219 85.804688 208.925781 L 77.714844 198.765625 L 79.390625 197.648438 Z M 79.394531 197.648438 " fill-opacity="0.5" fill-rule="nonzero"/></svg>