<svg xmlns="http://www.w3.org/2000/svg" xmlns:xlink="http://www.w3.org/1999/xlink" width="500" zoomAndPan="magnify" viewBox="0 0 375 374.999991" height="500" preserveAspectRatio="xMidYMid meet" version="1.0"><rect x="-37.5" width="450" fill="#ffffff" y="-37.499999" height="449.999989" fill-opacity="1"/><rect x="-37.5" width="450" fill="#ffffff" y="-37.499999" height="449.999989" fill-opacity="1"/><path fill="#caddff" d="M 23.78125 288.835938 C 34.398438 314.335938 59.910156 331.707031 75.707031 339.441406 C 137.960938 369.929688 212.910156 371.667969 280.808594 316.433594 C 296.699219 303.507812 375.003906 235.777344 356.554688 143.808594 C 340.242188 62.503906 258.929688 15.1875 190.519531 8.78125 C 133.847656 3.472656 59.890625 23.828125 33.839844 73.355469 C 17.457031 104.496094 37.234375 114.441406 23.933594 185.050781 C 12.414062 246.171875 10.796875 257.644531 23.78125 288.835938 " fill-opacity="1" fill-rule="nonzero"/><path fill="#000000" d="M 89.25 61.855469 C 88.996094 61.855469 88.757812 61.707031 88.652344 61.460938 L 87.496094 58.742188 C 87.355469 58.414062 87.507812 58.03125 87.835938 57.890625 C 88.167969 57.75 88.546875 57.902344 88.6875 58.234375 L 89.847656 60.949219 C 89.988281 61.28125 89.835938 61.664062 89.503906 61.800781 C 89.421875 61.839844 89.335938 61.855469 89.25 61.855469 " fill-opacity="1" fill-rule="nonzero"/><path fill="#000000" d="M 84.640625 67.730469 C 84.382812 67.730469 84.140625 67.578125 84.039062 67.324219 C 83.902344 66.992188 84.0625 66.617188 84.394531 66.480469 L 87.085938 65.378906 C 87.417969 65.242188 87.796875 65.402344 87.933594 65.734375 C 88.066406 66.066406 87.910156 66.441406 87.578125 66.578125 L 84.886719 67.679688 C 84.804688 67.714844 84.722656 67.730469 84.640625 67.730469 " fill-opacity="1" fill-rule="nonzero"/><path fill="#000000" d="M 94.0625 63.875 C 93.808594 63.875 93.566406 63.71875 93.464844 63.46875 C 93.328125 63.140625 93.484375 62.757812 93.816406 62.625 L 96.511719 61.519531 C 96.839844 61.386719 97.21875 61.542969 97.355469 61.875 C 97.492188 62.207031 97.332031 62.585938 97 62.722656 L 94.308594 63.824219 C 94.230469 63.859375 94.144531 63.875 94.0625 63.875 " fill-opacity="1" fill-rule="nonzero"/><path fill="#000000" d="M 93.304688 71.363281 C 93.050781 71.363281 92.8125 71.214844 92.707031 70.96875 L 91.550781 68.253906 C 91.410156 67.921875 91.5625 67.542969 91.890625 67.402344 C 92.21875 67.257812 92.601562 67.414062 92.742188 67.742188 L 93.898438 70.460938 C 94.039062 70.789062 93.886719 71.171875 93.558594 71.3125 C 93.476562 71.347656 93.390625 71.363281 93.304688 71.363281 " fill-opacity="1" fill-rule="nonzero"/><path fill="#000000" d="M 113.617188 75.386719 L 113.621094 75.386719 Z M 110.734375 72.261719 C 110.359375 72.261719 109.992188 72.355469 109.65625 72.539062 C 109.136719 72.824219 108.761719 73.296875 108.597656 73.867188 C 108.257812 75.070312 108.96875 76.347656 110.1875 76.710938 C 110.78125 76.890625 111.398438 76.828125 111.933594 76.535156 C 112.453125 76.25 112.828125 75.777344 112.992188 75.207031 C 113.332031 74.003906 112.621094 72.726562 111.402344 72.363281 C 111.179688 72.296875 110.957031 72.261719 110.734375 72.261719 Z M 110.859375 78.109375 C 110.507812 78.109375 110.160156 78.058594 109.8125 77.953125 C 107.921875 77.386719 106.816406 75.394531 107.351562 73.511719 C 107.609375 72.605469 108.207031 71.855469 109.035156 71.402344 C 109.875 70.9375 110.847656 70.839844 111.777344 71.121094 C 113.667969 71.6875 114.773438 73.679688 114.238281 75.5625 C 113.980469 76.46875 113.382812 77.21875 112.554688 77.671875 C 112.027344 77.964844 111.445312 78.109375 110.859375 78.109375 " fill-opacity="1" fill-rule="nonzero"/><path fill="#000000" d="M 321.851562 60.320312 C 321.667969 60.320312 321.484375 60.238281 321.355469 60.085938 C 306.996094 42.945312 288.859375 29.410156 268.90625 20.941406 C 268.574219 20.804688 268.421875 20.421875 268.5625 20.09375 C 268.699219 19.765625 269.082031 19.609375 269.410156 19.75 C 289.554688 28.296875 307.859375 41.957031 322.347656 59.253906 C 322.578125 59.527344 322.542969 59.9375 322.269531 60.164062 C 322.148438 60.269531 321.996094 60.320312 321.851562 60.320312 " fill-opacity="1" fill-rule="nonzero"/><path fill="#000000" d="M 335.972656 64.445312 C 335.773438 64.445312 335.582031 64.359375 335.453125 64.191406 C 321.242188 45.523438 302.894531 30.445312 282.394531 20.59375 C 282.070312 20.4375 281.933594 20.046875 282.089844 19.726562 C 282.246094 19.402344 282.632812 19.265625 282.957031 19.421875 C 303.640625 29.363281 322.152344 44.570312 336.484375 63.40625 C 336.703125 63.6875 336.648438 64.097656 336.363281 64.3125 C 336.246094 64.40625 336.109375 64.445312 335.972656 64.445312 " fill-opacity="1" fill-rule="nonzero"/><path fill="#000000" d="M 289.878906 14.246094 C 288.734375 14.273438 287.828125 15.226562 287.855469 16.371094 C 287.882812 17.515625 288.835938 18.441406 289.980469 18.398438 C 290.535156 18.382812 291.050781 18.152344 291.433594 17.753906 C 291.816406 17.351562 292.019531 16.824219 292.003906 16.269531 C 291.992188 15.714844 291.761719 15.199219 291.359375 14.816406 C 290.957031 14.433594 290.441406 14.214844 289.878906 14.246094 Z M 289.929688 19.695312 C 289.058594 19.695312 288.238281 19.367188 287.605469 18.765625 C 286.953125 18.144531 286.582031 17.304688 286.558594 16.40625 C 286.511719 14.546875 287.984375 12.996094 289.84375 12.949219 C 289.871094 12.945312 289.902344 12.945312 289.929688 12.945312 C 291.75 12.945312 293.253906 14.40625 293.300781 16.238281 C 293.324219 17.136719 292.996094 17.992188 292.375 18.644531 C 291.753906 19.300781 290.914062 19.671875 290.015625 19.695312 C 289.984375 19.695312 289.957031 19.695312 289.929688 19.695312 " fill-opacity="1" fill-rule="nonzero"/><path fill="#000000" d="M 302.566406 271.488281 C 302.394531 271.488281 302.222656 271.421875 302.097656 271.289062 L 300.503906 269.625 C 300.257812 269.367188 300.265625 268.957031 300.523438 268.707031 C 300.78125 268.460938 301.195312 268.46875 301.441406 268.730469 L 303.03125 270.390625 C 303.28125 270.648438 303.273438 271.058594 303.011719 271.308594 C 302.886719 271.429688 302.726562 271.488281 302.566406 271.488281 " fill-opacity="1" fill-rule="nonzero"/><path fill="#000000" d="M 308.132812 277.304688 C 307.960938 277.304688 307.792969 277.238281 307.664062 277.101562 L 306.074219 275.441406 C 305.828125 275.183594 305.835938 274.773438 306.09375 274.523438 C 306.351562 274.277344 306.761719 274.285156 307.011719 274.542969 L 308.601562 276.203125 C 308.847656 276.464844 308.839844 276.875 308.582031 277.121094 C 308.457031 277.242188 308.296875 277.304688 308.132812 277.304688 " fill-opacity="1" fill-rule="nonzero"/><path fill="#000000" d="M 306.574219 271.578125 C 306.402344 271.578125 306.238281 271.511719 306.109375 271.382812 C 305.859375 271.128906 305.863281 270.714844 306.117188 270.464844 L 307.730469 268.875 C 307.988281 268.625 308.398438 268.628906 308.648438 268.882812 C 308.898438 269.136719 308.898438 269.550781 308.640625 269.800781 L 307.027344 271.390625 C 306.902344 271.515625 306.738281 271.578125 306.574219 271.578125 " fill-opacity="1" fill-rule="nonzero"/><path fill="#000000" d="M 300.921875 277.144531 C 300.75 277.144531 300.585938 277.078125 300.457031 276.949219 C 300.207031 276.695312 300.210938 276.28125 300.464844 276.03125 L 302.078125 274.441406 C 302.335938 274.191406 302.746094 274.191406 302.996094 274.449219 C 303.246094 274.703125 303.242188 275.113281 302.988281 275.367188 L 301.375 276.957031 C 301.25 277.078125 301.085938 277.144531 300.921875 277.144531 " fill-opacity="1" fill-rule="nonzero"/><path fill="#000000" d="M 335.726562 304.949219 C 335.257812 304.949219 334.78125 305.039062 334.332031 305.214844 C 333.335938 305.601562 332.554688 306.359375 332.125 307.355469 C 331.246094 309.394531 332.152344 311.78125 334.144531 312.675781 C 335.097656 313.101562 336.152344 313.128906 337.121094 312.753906 C 338.113281 312.367188 338.898438 311.605469 339.328125 310.609375 C 340.207031 308.574219 339.300781 306.1875 337.308594 305.292969 C 336.800781 305.066406 336.265625 304.949219 335.726562 304.949219 Z M 335.722656 314.3125 C 335.003906 314.3125 334.289062 314.164062 333.613281 313.859375 C 330.976562 312.671875 329.777344 309.527344 330.9375 306.839844 C 331.503906 305.527344 332.539062 304.519531 333.859375 304.007812 C 335.15625 303.503906 336.566406 303.539062 337.839844 304.109375 C 340.472656 305.292969 341.675781 308.441406 340.519531 311.125 C 339.949219 312.441406 338.910156 313.449219 337.59375 313.960938 C 336.988281 314.199219 336.355469 314.3125 335.722656 314.3125 " fill-opacity="1" fill-rule="nonzero"/><path fill="#000000" d="M 321.03125 278.871094 C 320.753906 278.871094 320.476562 278.925781 320.210938 279.027344 C 319.628906 279.253906 319.171875 279.699219 318.917969 280.285156 C 318.398438 281.484375 318.933594 282.890625 320.105469 283.414062 C 320.660156 283.667969 321.28125 283.679688 321.847656 283.460938 C 322.429688 283.234375 322.890625 282.789062 323.140625 282.203125 C 323.660156 281.003906 323.128906 279.597656 321.957031 279.074219 C 321.660156 278.941406 321.34375 278.871094 321.03125 278.871094 Z M 321.027344 284.914062 C 320.535156 284.914062 320.039062 284.808594 319.570312 284.597656 C 317.757812 283.785156 316.929688 281.617188 317.726562 279.769531 C 318.117188 278.863281 318.832031 278.171875 319.742188 277.816406 C 320.636719 277.472656 321.613281 277.496094 322.488281 277.886719 C 324.300781 278.703125 325.128906 280.871094 324.332031 282.71875 C 323.941406 283.625 323.226562 284.316406 322.316406 284.671875 C 321.898438 284.832031 321.464844 284.914062 321.027344 284.914062 " fill-opacity="1" fill-rule="nonzero"/><path fill="#000000" d="M 47.117188 358.382812 C 47 358.382812 46.875 358.347656 46.769531 358.277344 C 32.550781 349.140625 20.277344 337.835938 10.289062 324.683594 C 10.070312 324.398438 10.128906 323.992188 10.414062 323.773438 C 10.695312 323.558594 11.105469 323.613281 11.320312 323.898438 C 21.21875 336.929688 33.378906 348.128906 47.46875 357.1875 C 47.769531 357.378906 47.859375 357.785156 47.664062 358.082031 C 47.539062 358.277344 47.332031 358.382812 47.117188 358.382812 " fill-opacity="1" fill-rule="nonzero"/><path fill="#000000" d="M 33.921875 338.835938 C 33.765625 338.835938 33.605469 338.78125 33.484375 338.667969 C 24.597656 330.515625 16.878906 321.304688 10.539062 311.28125 C 10.347656 310.976562 10.4375 310.578125 10.742188 310.386719 C 11.042969 310.195312 11.445312 310.285156 11.636719 310.585938 C 17.914062 320.511719 25.558594 329.636719 34.359375 337.710938 C 34.625 337.953125 34.640625 338.363281 34.398438 338.625 C 34.273438 338.765625 34.097656 338.835938 33.921875 338.835938 " fill-opacity="1" fill-rule="nonzero"/><path fill="#000000" d="M 36.007812 355.175781 L 35.738281 358.886719 C 36.527344 358.574219 37.726562 358.085938 38.976562 357.519531 Z M 35.019531 360.511719 C 34.878906 360.511719 34.742188 360.46875 34.628906 360.382812 C 34.453125 360.25 34.355469 360.035156 34.371094 359.816406 L 34.800781 353.859375 C 34.820312 353.621094 34.96875 353.410156 35.1875 353.3125 C 35.40625 353.214844 35.660156 353.246094 35.851562 353.394531 L 40.609375 357.15625 C 40.785156 357.292969 40.875 357.511719 40.851562 357.738281 C 40.828125 357.960938 40.6875 358.152344 40.484375 358.25 C 37.9375 359.460938 35.273438 360.460938 35.246094 360.472656 C 35.171875 360.5 35.09375 360.511719 35.019531 360.511719 " fill-opacity="1" fill-rule="nonzero"/><path fill="#000000" d="M 30.121094 354.3125 C 29.175781 354.3125 28.003906 354.09375 27.011719 353.253906 C 26.359375 352.695312 26.0625 351.746094 25.753906 350.742188 C 25.449219 349.761719 25.136719 348.746094 24.515625 348.175781 C 24.039062 347.742188 23.042969 347.613281 22.078125 347.488281 C 20.78125 347.324219 19.441406 347.148438 18.566406 346.265625 C 17.871094 345.5625 17.824219 344.363281 17.777344 343.203125 C 17.746094 342.355469 17.707031 341.394531 17.390625 341.035156 C 16.964844 340.5625 15.984375 340.460938 15.121094 340.371094 C 14.414062 340.300781 13.804688 340.238281 13.359375 339.980469 C 13.050781 339.800781 12.945312 339.402344 13.125 339.09375 C 13.304688 338.785156 13.703125 338.679688 14.011719 338.859375 C 14.214844 338.976562 14.765625 339.03125 15.253906 339.082031 C 16.296875 339.1875 17.597656 339.320312 18.359375 340.171875 C 18.988281 340.878906 19.03125 342.035156 19.074219 343.152344 C 19.109375 344.023438 19.148438 345.007812 19.488281 345.351562 C 20.050781 345.921875 21.164062 346.0625 22.242188 346.203125 C 23.40625 346.351562 24.613281 346.507812 25.390625 347.21875 C 26.273438 348.027344 26.65625 349.265625 26.992188 350.355469 C 27.234375 351.144531 27.488281 351.953125 27.851562 352.265625 C 29.308594 353.503906 31.445312 352.84375 31.464844 352.835938 C 31.808594 352.726562 32.171875 352.914062 32.28125 353.253906 C 32.390625 353.597656 32.203125 353.960938 31.859375 354.070312 C 31.800781 354.089844 31.078125 354.3125 30.121094 354.3125 " fill-opacity="1" fill-rule="nonzero"/><path fill="#ffffff" d="M 234.648438 25.324219 C 234.578125 25.324219 234.503906 25.3125 234.433594 25.285156 C 234.0625 25.160156 196.929688 12.484375 158.964844 16.671875 C 158.609375 16.710938 158.289062 16.453125 158.25 16.101562 C 158.207031 15.742188 158.46875 15.421875 158.824219 15.382812 C 197.085938 11.164062 234.484375 23.929688 234.859375 24.0625 C 235.199219 24.179688 235.378906 24.546875 235.261719 24.886719 C 235.167969 25.15625 234.917969 25.324219 234.648438 25.324219 " fill-opacity="1" fill-rule="nonzero"/><path fill="#ffffff" d="M 234.457031 29.636719 C 234.386719 29.636719 234.3125 29.625 234.242188 29.597656 C 234.078125 29.542969 217.578125 23.878906 195.53125 21.347656 C 195.175781 21.308594 194.921875 20.984375 194.960938 20.632812 C 195 20.273438 195.328125 20.019531 195.679688 20.058594 C 217.875 22.609375 234.503906 28.316406 234.667969 28.375 C 235.007812 28.492188 235.1875 28.859375 235.070312 29.199219 C 234.976562 29.464844 234.722656 29.636719 234.457031 29.636719 " fill-opacity="1" fill-rule="nonzero"/><path fill="#ffffff" d="M 187.25 20.921875 L 190.160156 23.15625 L 190.382812 19.4375 C 189.144531 19.988281 188.003906 20.542969 187.25 20.921875 Z M 190.734375 25.066406 C 190.59375 25.066406 190.453125 25.023438 190.335938 24.933594 L 185.648438 21.324219 C 185.472656 21.1875 185.378906 20.972656 185.398438 20.753906 C 185.414062 20.535156 185.546875 20.339844 185.738281 20.234375 C 185.765625 20.222656 188.265625 18.910156 190.84375 17.824219 C 191.050781 17.738281 191.285156 17.765625 191.46875 17.894531 C 191.652344 18.023438 191.753906 18.238281 191.742188 18.460938 L 191.378906 24.457031 C 191.367188 24.695312 191.21875 24.910156 191.003906 25.011719 C 190.917969 25.046875 190.824219 25.066406 190.734375 25.066406 " fill-opacity="1" fill-rule="nonzero"/><path fill="#ffffff" d="M 218.300781 214.046875 L 154.546875 214.046875 L 136.460938 280.085938 L 236.386719 280.085938 L 218.300781 214.046875 " fill-opacity="1" fill-rule="nonzero"/><path fill="#000000" d="M 137.308594 279.433594 L 235.539062 279.433594 L 217.808594 214.691406 L 155.042969 214.691406 Z M 236.386719 280.734375 L 136.457031 280.734375 C 136.257812 280.734375 136.066406 280.636719 135.941406 280.476562 C 135.820312 280.316406 135.78125 280.105469 135.832031 279.914062 L 153.917969 213.875 C 154 213.589844 154.253906 213.398438 154.546875 213.398438 L 218.300781 213.398438 C 218.59375 213.398438 218.851562 213.589844 218.925781 213.875 L 237.011719 279.914062 C 237.066406 280.105469 237.027344 280.316406 236.902344 280.476562 C 236.78125 280.636719 236.589844 280.734375 236.386719 280.734375 " fill-opacity="1" fill-rule="nonzero"/><path fill="#ffffff" d="M 313.707031 40.804688 L 59.136719 40.804688 C 53.519531 40.804688 48.964844 45.363281 48.964844 50.980469 L 48.964844 225.578125 C 48.964844 231.199219 53.519531 235.757812 59.136719 235.757812 L 313.707031 235.757812 C 319.328125 235.757812 323.882812 231.199219 323.882812 225.578125 L 323.882812 50.980469 C 323.882812 45.363281 319.328125 40.804688 313.707031 40.804688 " fill-opacity="1" fill-rule="nonzero"/><path fill="#000000" d="M 59.136719 41.453125 C 53.886719 41.453125 49.613281 45.726562 49.613281 50.980469 L 49.613281 225.578125 C 49.613281 230.832031 53.886719 235.105469 59.136719 235.105469 L 313.707031 235.105469 C 318.960938 235.105469 323.234375 230.832031 323.234375 225.578125 L 323.234375 50.980469 C 323.234375 45.726562 318.960938 41.453125 313.707031 41.453125 Z M 313.707031 236.40625 L 59.136719 236.40625 C 53.171875 236.40625 48.316406 231.546875 48.316406 225.578125 L 48.316406 50.980469 C 48.316406 45.011719 53.171875 40.15625 59.136719 40.15625 L 313.707031 40.15625 C 319.675781 40.15625 324.53125 45.011719 324.53125 50.980469 L 324.53125 225.578125 C 324.53125 231.546875 319.675781 236.40625 313.707031 236.40625 " fill-opacity="1" fill-rule="nonzero"/><path fill="#ffffff" d="M 59.136719 231.234375 C 56.023438 231.234375 53.488281 228.695312 53.488281 225.578125 L 53.488281 50.980469 C 53.488281 47.863281 56.023438 45.328125 59.136719 45.328125 L 313.707031 45.328125 C 316.824219 45.328125 319.359375 47.863281 319.359375 50.980469 L 319.359375 225.578125 C 319.359375 228.695312 316.824219 231.234375 313.707031 231.234375 L 59.136719 231.234375 " fill-opacity="1" fill-rule="nonzero"/><path fill="#000000" d="M 59.136719 45.976562 C 56.378906 45.976562 54.132812 48.21875 54.132812 50.980469 L 54.132812 225.578125 C 54.132812 228.339844 56.378906 230.585938 59.136719 230.585938 L 313.707031 230.585938 C 316.46875 230.585938 318.714844 228.339844 318.714844 225.578125 L 318.714844 50.980469 C 318.714844 48.21875 316.46875 45.976562 313.707031 45.976562 Z M 313.707031 231.882812 L 59.136719 231.882812 C 55.664062 231.882812 52.835938 229.054688 52.835938 225.578125 L 52.835938 50.980469 C 52.835938 47.507812 55.664062 44.679688 59.136719 44.679688 L 313.707031 44.679688 C 317.183594 44.679688 320.007812 47.507812 320.007812 50.980469 L 320.007812 225.578125 C 320.007812 229.054688 317.183594 231.882812 313.707031 231.882812 " fill-opacity="1" fill-rule="nonzero"/><path fill="#ffffff" d="M 247.242188 273.300781 L 125.605469 273.300781 C 122.109375 273.300781 119.277344 276.136719 119.277344 279.632812 C 119.277344 283.128906 122.109375 285.964844 125.605469 285.964844 L 247.242188 285.964844 C 250.734375 285.964844 253.570312 283.128906 253.570312 279.632812 C 253.570312 276.136719 250.734375 273.300781 247.242188 273.300781 " fill-opacity="1" fill-rule="nonzero"/><path fill="#000000" d="M 125.605469 273.949219 C 122.472656 273.949219 119.925781 276.496094 119.925781 279.632812 C 119.925781 282.765625 122.472656 285.316406 125.605469 285.316406 L 247.238281 285.316406 C 250.375 285.316406 252.921875 282.765625 252.921875 279.632812 C 252.921875 276.496094 250.375 273.949219 247.238281 273.949219 Z M 247.238281 286.613281 L 125.605469 286.613281 C 121.757812 286.613281 118.628906 283.480469 118.628906 279.632812 C 118.628906 275.78125 121.757812 272.652344 125.605469 272.652344 L 247.238281 272.652344 C 251.089844 272.652344 254.21875 275.78125 254.21875 279.632812 C 254.21875 283.480469 251.089844 286.613281 247.238281 286.613281 " fill-opacity="1" fill-rule="nonzero"/><path fill="#99b9ff" d="M 158.652344 8.460938 L 351.390625 8.460938 C 355.648438 8.460938 359.09375 11.910156 359.09375 16.167969 L 359.09375 148.394531 C 359.09375 152.652344 355.648438 156.101562 351.390625 156.101562 L 158.652344 156.101562 C 154.398438 156.101562 150.949219 152.652344 150.949219 148.394531 L 150.949219 16.167969 C 150.949219 11.910156 154.398438 8.460938 158.652344 8.460938 " fill-opacity="1" fill-rule="nonzero"/><path fill="#99b9ff" d="M 359.128906 20.871094 L 359.351562 16.097656 C 359.351562 11.878906 355.753906 8.519531 351.5 8.519531 L 158.757812 8.519531 C 154.503906 8.519531 151.023438 11.878906 151.023438 16.097656 L 150.800781 21.976562 L 359.128906 20.871094 " fill-opacity="1" fill-rule="nonzero"/><path fill="#caddff" d="M 163.128906 16.296875 C 163.128906 17.667969 162.015625 18.777344 160.640625 18.777344 C 159.265625 18.777344 158.152344 17.667969 158.152344 16.296875 C 158.152344 14.925781 159.265625 13.816406 160.640625 13.816406 C 162.015625 13.816406 163.128906 14.925781 163.128906 16.296875 " fill-opacity="1" fill-rule="nonzero"/><path fill="#caddff" d="M 171.089844 16.132812 C 171.089844 17.503906 169.976562 18.613281 168.601562 18.613281 C 167.230469 18.613281 166.113281 17.503906 166.113281 16.132812 C 166.113281 14.761719 167.230469 13.648438 168.601562 13.648438 C 169.976562 13.648438 171.089844 14.761719 171.089844 16.132812 " fill-opacity="1" fill-rule="nonzero"/><path fill="#caddff" d="M 179.714844 16.460938 C 179.714844 17.832031 178.601562 18.941406 177.226562 18.941406 C 175.851562 18.941406 174.738281 17.832031 174.738281 16.460938 C 174.738281 15.089844 175.851562 13.980469 177.226562 13.980469 C 178.601562 13.980469 179.714844 15.089844 179.714844 16.460938 " fill-opacity="1" fill-rule="nonzero"/><path fill="#000000" d="M 150.949219 140.78125 C 150.589844 140.78125 150.300781 140.492188 150.300781 140.132812 L 150.300781 16.167969 C 150.300781 11.558594 154.046875 7.8125 158.652344 7.8125 L 351.390625 7.8125 C 355.996094 7.8125 359.746094 11.558594 359.746094 16.167969 L 359.746094 40.460938 C 359.746094 40.816406 359.453125 41.109375 359.09375 41.109375 C 358.738281 41.109375 358.445312 40.816406 358.445312 40.460938 L 358.445312 16.167969 C 358.445312 12.273438 355.28125 9.109375 351.390625 9.109375 L 158.652344 9.109375 C 154.761719 9.109375 151.597656 12.273438 151.597656 16.167969 L 151.597656 140.132812 C 151.597656 140.492188 151.304688 140.78125 150.949219 140.78125 " fill-opacity="1" fill-rule="nonzero"/><path fill="#000000" d="M 313.5 156.75 L 202.15625 156.75 C 201.796875 156.75 201.507812 156.460938 201.507812 156.101562 C 201.507812 155.746094 201.796875 155.453125 202.15625 155.453125 L 313.5 155.453125 C 313.859375 155.453125 314.148438 155.746094 314.148438 156.101562 C 314.148438 156.460938 313.859375 156.75 313.5 156.75 " fill-opacity="1" fill-rule="nonzero"/><path fill="#ffffff" d="M 300.417969 102.457031 L 221.890625 102.835938 C 219.972656 102.84375 218.601562 101.449219 218.601562 99.484375 L 218.601562 28.066406 C 218.601562 25.414062 221.046875 22.898438 223.640625 22.886719 L 302.167969 22.503906 C 304.085938 22.496094 305.457031 23.890625 305.457031 25.855469 L 305.457031 97.273438 C 305.457031 99.925781 303.011719 102.445312 300.417969 102.457031 " fill-opacity="1" fill-rule="nonzero"/><path fill="#caddff" d="M 227.769531 97.613281 L 225.5625 97.566406 C 224.59375 97.546875 223.816406 96.75 223.820312 95.777344 L 223.839844 85.148438 C 223.84375 84.152344 224.65625 83.347656 225.648438 83.367188 L 227.835938 83.402344 C 228.808594 83.417969 229.585938 84.210938 229.585938 85.1875 C 229.585938 87.898438 229.585938 93.078125 229.585938 95.828125 C 229.585938 96.828125 228.765625 97.632812 227.769531 97.613281 " fill-opacity="1" fill-rule="nonzero"/><path fill="#caddff" d="M 235.585938 97.613281 L 233.378906 97.566406 C 232.410156 97.546875 231.632812 96.75 231.632812 95.777344 L 231.660156 78.441406 C 231.660156 77.445312 232.472656 76.640625 233.46875 76.65625 L 235.652344 76.695312 C 236.625 76.710938 237.402344 77.503906 237.402344 78.476562 C 237.402344 82.402344 237.402344 91.84375 237.402344 95.828125 C 237.402344 96.832031 236.582031 97.632812 235.585938 97.613281 " fill-opacity="1" fill-rule="nonzero"/><path fill="#caddff" d="M 243.402344 97.613281 L 241.191406 97.566406 C 240.222656 97.546875 239.449219 96.75 239.449219 95.777344 L 239.472656 82.015625 C 239.472656 81.019531 240.289062 80.214844 241.28125 80.230469 L 243.46875 80.269531 C 244.4375 80.285156 245.21875 81.078125 245.21875 82.054688 C 245.21875 85.359375 245.21875 92.472656 245.21875 95.828125 C 245.21875 96.828125 244.398438 97.632812 243.402344 97.613281 " fill-opacity="1" fill-rule="nonzero"/><path fill="#99b9ff" d="M 251.21875 97.613281 L 249.007812 97.566406 C 248.039062 97.546875 247.265625 96.75 247.265625 95.78125 L 247.289062 68.707031 C 247.292969 67.710938 248.105469 66.90625 249.101562 66.921875 L 251.285156 66.960938 C 252.253906 66.976562 253.035156 67.769531 253.035156 68.746094 C 253.035156 74.128906 253.035156 90.359375 253.035156 95.828125 C 253.035156 96.828125 252.214844 97.632812 251.21875 97.613281 " fill-opacity="1" fill-rule="nonzero"/><path fill="#99b9ff" d="M 259.03125 97.613281 L 256.824219 97.566406 C 255.855469 97.546875 255.078125 96.75 255.082031 95.78125 L 255.105469 61.738281 C 255.105469 60.738281 255.921875 59.933594 256.917969 59.953125 L 259.097656 59.988281 C 260.070312 60.003906 260.851562 60.796875 260.851562 61.773438 C 260.851562 68.058594 260.851562 89.429688 260.851562 95.828125 C 260.851562 96.828125 260.03125 97.632812 259.03125 97.613281 " fill-opacity="1" fill-rule="nonzero"/><path fill="#5479f7" d="M 266.847656 97.613281 L 264.640625 97.566406 C 263.671875 97.546875 262.894531 96.75 262.898438 95.78125 L 262.921875 56.550781 C 262.921875 55.554688 263.738281 54.753906 264.730469 54.769531 L 266.917969 54.804688 C 267.886719 54.820312 268.667969 55.613281 268.667969 56.589844 C 268.667969 63.5 268.667969 88.796875 268.667969 95.828125 C 268.667969 96.828125 267.847656 97.632812 266.847656 97.613281 " fill-opacity="1" fill-rule="nonzero"/><path fill="#caddff" d="M 274.664062 97.613281 L 272.457031 97.566406 C 271.484375 97.546875 270.714844 96.75 270.714844 95.78125 L 270.738281 67.914062 C 270.738281 66.917969 271.550781 66.113281 272.546875 66.128906 L 274.734375 66.167969 C 275.703125 66.183594 276.480469 66.976562 276.480469 67.949219 C 276.480469 73.441406 276.480469 90.246094 276.480469 95.828125 C 276.480469 96.828125 275.664062 97.632812 274.664062 97.613281 " fill-opacity="1" fill-rule="nonzero"/><path fill="#99b9ff" d="M 282.480469 97.613281 L 280.269531 97.566406 C 279.300781 97.546875 278.527344 96.75 278.527344 95.78125 L 278.554688 58.800781 C 278.554688 57.804688 279.367188 57.003906 280.363281 57.019531 L 282.546875 57.054688 C 283.519531 57.070312 284.296875 57.867188 284.296875 58.839844 C 284.296875 65.488281 284.296875 89.070312 284.296875 95.828125 C 284.296875 96.832031 283.476562 97.632812 282.480469 97.613281 " fill-opacity="1" fill-rule="nonzero"/><path fill="#caddff" d="M 290.296875 97.613281 L 288.085938 97.566406 C 287.117188 97.546875 286.34375 96.75 286.34375 95.78125 L 286.371094 47.699219 C 286.371094 46.703125 287.1875 45.898438 288.179688 45.914062 L 290.363281 45.949219 C 291.335938 45.96875 292.113281 46.761719 292.113281 47.738281 C 292.113281 55.632812 292.113281 87.796875 292.113281 95.828125 C 292.113281 96.828125 291.292969 97.632812 290.296875 97.613281 " fill-opacity="1" fill-rule="nonzero"/><path fill="#5479f7" d="M 298.21875 97.613281 L 296.007812 97.566406 C 295.042969 97.546875 294.265625 96.75 294.265625 95.78125 L 294.289062 40.238281 C 294.292969 39.242188 295.109375 38.4375 296.101562 38.453125 L 298.285156 38.488281 C 299.253906 38.507812 300.035156 39.300781 300.035156 40.277344 C 300.035156 48.933594 300.035156 87.019531 300.035156 95.828125 C 300.035156 96.828125 299.214844 97.632812 298.21875 97.613281 " fill-opacity="1" fill-rule="nonzero"/><path fill="#000000" d="M 272.613281 53.875 C 272.441406 53.875 272.273438 53.804688 272.152344 53.683594 L 266.746094 48.257812 C 266.492188 48.003906 266.492188 47.59375 266.75 47.339844 C 267 47.089844 267.414062 47.089844 267.667969 47.34375 L 272.613281 52.308594 L 296.453125 28.398438 C 296.707031 28.144531 297.117188 28.144531 297.371094 28.398438 C 297.621094 28.652344 297.625 29.0625 297.371094 29.316406 L 273.070312 53.683594 C 272.949219 53.804688 272.785156 53.875 272.613281 53.875 " fill-opacity="1" fill-rule="nonzero"/><path fill="#000000" d="M 238.75 71.726562 C 238.578125 71.726562 238.410156 71.660156 238.289062 71.535156 L 231.132812 64.351562 L 224.871094 70.632812 C 224.617188 70.890625 224.207031 70.890625 223.953125 70.636719 C 223.699219 70.382812 223.699219 69.972656 223.953125 69.71875 L 230.671875 62.976562 C 230.796875 62.855469 230.960938 62.785156 231.132812 62.785156 C 231.304688 62.785156 231.46875 62.855469 231.59375 62.976562 L 238.75 70.15625 L 261.300781 47.53125 C 261.554688 47.277344 261.964844 47.273438 262.21875 47.527344 C 262.472656 47.78125 262.472656 48.195312 262.21875 48.445312 L 239.210938 71.535156 C 239.085938 71.660156 238.921875 71.726562 238.75 71.726562 " fill-opacity="1" fill-rule="nonzero"/><path fill="#5479f7" d="M 229.757812 63.433594 C 229.757812 62.671875 230.371094 62.054688 231.132812 62.054688 C 231.890625 62.054688 232.507812 62.671875 232.507812 63.433594 C 232.507812 64.195312 231.890625 64.8125 231.132812 64.8125 C 230.371094 64.8125 229.757812 64.195312 229.757812 63.433594 " fill-opacity="1" fill-rule="nonzero"/><path fill="#000000" d="M 231.132812 60.757812 C 229.660156 60.757812 228.460938 61.957031 228.460938 63.433594 C 228.460938 64.910156 229.660156 66.113281 231.132812 66.113281 C 232.605469 66.113281 233.804688 64.910156 233.804688 63.433594 C 233.804688 61.957031 232.605469 60.757812 231.132812 60.757812 Z M 231.132812 62.054688 C 231.890625 62.054688 232.507812 62.671875 232.507812 63.433594 C 232.507812 64.195312 231.890625 64.8125 231.132812 64.8125 C 230.371094 64.8125 229.757812 64.195312 229.757812 63.433594 C 229.757812 62.671875 230.371094 62.054688 231.132812 62.054688 " fill-opacity="1" fill-rule="nonzero"/><path fill="#99b9ff" d="M 271.28125 53.167969 C 271.28125 52.410156 271.894531 51.789062 272.65625 51.789062 C 273.414062 51.789062 274.03125 52.410156 274.03125 53.167969 C 274.03125 53.929688 273.414062 54.550781 272.65625 54.550781 C 271.894531 54.550781 271.28125 53.929688 271.28125 53.167969 " fill-opacity="1" fill-rule="nonzero"/><path fill="#000000" d="M 272.65625 50.492188 C 271.179688 50.492188 269.984375 51.691406 269.984375 53.167969 C 269.984375 54.644531 271.179688 55.847656 272.65625 55.847656 C 274.128906 55.847656 275.324219 54.644531 275.324219 53.167969 C 275.324219 51.691406 274.128906 50.492188 272.65625 50.492188 Z M 272.65625 51.789062 C 273.414062 51.789062 274.03125 52.410156 274.03125 53.167969 C 274.03125 53.929688 273.414062 54.550781 272.65625 54.550781 C 271.894531 54.550781 271.28125 53.929688 271.28125 53.167969 C 271.28125 52.410156 271.894531 51.789062 272.65625 51.789062 " fill-opacity="1" fill-rule="nonzero"/><path fill="#5479f7" d="M 295.855469 28.722656 C 295.855469 27.960938 296.472656 27.34375 297.230469 27.34375 C 297.992188 27.34375 298.605469 27.960938 298.605469 28.722656 C 298.605469 29.488281 297.992188 30.101562 297.230469 30.101562 C 296.472656 30.101562 295.855469 29.488281 295.855469 28.722656 " fill-opacity="1" fill-rule="nonzero"/><path fill="#000000" d="M 297.230469 26.046875 C 295.757812 26.046875 294.5625 27.246094 294.5625 28.722656 C 294.5625 30.199219 295.757812 31.402344 297.230469 31.402344 C 298.707031 31.402344 299.90625 30.199219 299.90625 28.722656 C 299.90625 27.246094 298.707031 26.046875 297.230469 26.046875 Z M 297.230469 27.34375 C 297.992188 27.34375 298.605469 27.960938 298.605469 28.722656 C 298.605469 29.488281 297.992188 30.101562 297.230469 30.101562 C 296.472656 30.101562 295.855469 29.488281 295.855469 28.722656 C 295.855469 27.960938 296.472656 27.34375 297.230469 27.34375 " fill-opacity="1" fill-rule="nonzero"/><path fill="#99b9ff" d="M 237.503906 70.917969 C 237.503906 70.15625 238.117188 69.539062 238.878906 69.539062 C 239.636719 69.539062 240.25 70.15625 240.25 70.917969 C 240.25 71.679688 239.636719 72.296875 238.878906 72.296875 C 238.117188 72.296875 237.503906 71.679688 237.503906 70.917969 " fill-opacity="1" fill-rule="nonzero"/><path fill="#000000" d="M 238.878906 68.242188 C 237.402344 68.242188 236.203125 69.441406 236.203125 70.917969 C 236.203125 72.394531 237.402344 73.59375 238.878906 73.59375 C 240.347656 73.59375 241.546875 72.394531 241.546875 70.917969 C 241.546875 69.441406 240.347656 68.242188 238.878906 68.242188 Z M 238.878906 69.539062 C 239.636719 69.539062 240.25 70.15625 240.25 70.917969 C 240.25 71.679688 239.636719 72.296875 238.878906 72.296875 C 238.117188 72.296875 237.503906 71.679688 237.503906 70.917969 C 237.503906 70.15625 238.117188 69.539062 238.878906 69.539062 " fill-opacity="1" fill-rule="nonzero"/><path fill="#5479f7" d="M 263.199219 45.269531 C 263.199219 44.507812 263.816406 43.890625 264.574219 43.890625 C 265.332031 43.890625 265.949219 44.507812 265.949219 45.269531 C 265.949219 46.03125 265.332031 46.648438 264.574219 46.648438 C 263.816406 46.648438 263.199219 46.03125 263.199219 45.269531 " fill-opacity="1" fill-rule="nonzero"/><path fill="#000000" d="M 264.574219 42.59375 C 263.101562 42.59375 261.902344 43.792969 261.902344 45.269531 C 261.902344 46.746094 263.101562 47.945312 264.574219 47.945312 C 266.046875 47.945312 267.246094 46.746094 267.246094 45.269531 C 267.246094 43.792969 266.046875 42.59375 264.574219 42.59375 Z M 264.574219 43.890625 C 265.332031 43.890625 265.949219 44.507812 265.949219 45.269531 C 265.949219 46.03125 265.332031 46.648438 264.574219 46.648438 C 263.816406 46.648438 263.199219 46.03125 263.199219 45.269531 C 263.199219 44.507812 263.816406 43.890625 264.574219 43.890625 " fill-opacity="1" fill-rule="nonzero"/><path fill="#99b9ff" d="M 222.523438 70.890625 C 222.523438 70.128906 223.136719 69.511719 223.894531 69.511719 C 224.65625 69.511719 225.269531 70.128906 225.269531 70.890625 C 225.269531 71.652344 224.65625 72.269531 223.894531 72.269531 C 223.136719 72.269531 222.523438 71.652344 222.523438 70.890625 " fill-opacity="1" fill-rule="nonzero"/><path fill="#000000" d="M 223.894531 68.214844 C 222.421875 68.214844 221.226562 69.414062 221.226562 70.890625 C 221.226562 72.367188 222.421875 73.566406 223.894531 73.566406 C 225.371094 73.566406 226.566406 72.367188 226.566406 70.890625 C 226.566406 69.414062 225.371094 68.214844 223.894531 68.214844 Z M 223.894531 69.511719 C 224.65625 69.511719 225.269531 70.128906 225.269531 70.890625 C 225.269531 71.652344 224.65625 72.269531 223.894531 72.269531 C 223.136719 72.269531 222.523438 71.652344 222.523438 70.890625 C 222.523438 70.128906 223.136719 69.511719 223.894531 69.511719 " fill-opacity="1" fill-rule="nonzero"/><path fill="#ffffff" d="M 307.417969 206.121094 L 265.269531 206.191406 C 263.929688 206.195312 262.839844 205.335938 262.839844 204.28125 L 262.839844 173.085938 C 262.839844 172.027344 263.929688 171.171875 265.269531 171.167969 L 307.417969 171.09375 C 308.757812 171.09375 309.847656 171.949219 309.847656 173.007812 L 309.847656 204.199219 C 309.847656 205.257812 308.757812 206.121094 307.417969 206.121094 " fill-opacity="1" fill-rule="nonzero"/><path fill="#5479f7" d="M 275.074219 203.523438 L 271.289062 203.53125 L 271.289062 181.007812 L 275.074219 181 L 275.074219 203.523438 " fill-opacity="1" fill-rule="nonzero"/><path fill="#caddff" d="M 275.074219 203.523438 L 271.289062 203.53125 L 271.289062 189 L 275.074219 188.992188 L 275.074219 203.523438 " fill-opacity="1" fill-rule="nonzero"/><path fill="#5479f7" d="M 282.175781 203.507812 L 278.390625 203.515625 L 278.390625 184.316406 L 282.175781 184.308594 L 282.175781 203.507812 " fill-opacity="1" fill-rule="nonzero"/><path fill="#caddff" d="M 282.175781 203.507812 L 278.390625 203.515625 L 278.390625 192.515625 L 282.175781 192.507812 L 282.175781 203.507812 " fill-opacity="1" fill-rule="nonzero"/><path fill="#5479f7" d="M 288.804688 203.601562 L 285.019531 203.609375 L 285.019531 186.171875 L 288.804688 186.164062 L 288.804688 203.601562 " fill-opacity="1" fill-rule="nonzero"/><path fill="#caddff" d="M 288.804688 203.601562 L 285.019531 203.609375 L 285.019531 195.511719 L 288.804688 195.507812 L 288.804688 203.601562 " fill-opacity="1" fill-rule="nonzero"/><path fill="#5479f7" d="M 295.609375 203.792969 L 291.824219 203.800781 L 291.824219 181.28125 L 295.609375 181.273438 L 295.609375 203.792969 " fill-opacity="1" fill-rule="nonzero"/><path fill="#caddff" d="M 295.609375 203.792969 L 291.824219 203.800781 L 291.824219 185.015625 L 295.609375 185.011719 L 295.609375 203.792969 " fill-opacity="1" fill-rule="nonzero"/><path fill="#5479f7" d="M 302.476562 203.679688 L 298.6875 203.683594 L 298.6875 182.722656 L 302.476562 182.714844 L 302.476562 203.679688 " fill-opacity="1" fill-rule="nonzero"/><path fill="#caddff" d="M 302.476562 203.679688 L 298.6875 203.683594 L 298.6875 189.882812 L 302.476562 189.875 L 302.476562 203.679688 " fill-opacity="1" fill-rule="nonzero"/><path fill="#5479f7" d="M 268.402344 204.367188 C 267.941406 204.367188 267.503906 204.1875 267.191406 203.878906 C 266.910156 203.59375 266.757812 203.226562 266.761719 202.84375 L 266.902344 176.214844 C 266.90625 175.855469 267.195312 175.566406 267.554688 175.566406 C 267.914062 175.570312 268.203125 175.859375 268.203125 176.21875 L 268.054688 202.851562 C 268.054688 202.886719 268.074219 202.925781 268.109375 202.960938 C 268.179688 203.027344 268.289062 203.066406 268.402344 203.066406 L 268.40625 203.066406 L 305.433594 203 C 305.792969 203 306.082031 203.289062 306.082031 203.648438 C 306.082031 204.007812 305.792969 204.296875 305.433594 204.296875 L 268.40625 204.367188 C 268.40625 204.367188 268.40625 204.367188 268.402344 204.367188 " fill-opacity="1" fill-rule="nonzero"/><path fill="#99b9ff" d="M 291.050781 175.175781 L 271.289062 175.195312 L 271.289062 173.429688 L 291.050781 173.410156 L 291.050781 175.175781 " fill-opacity="1" fill-rule="nonzero"/><path fill="#99b9ff" d="M 291.121094 177.875 L 271.359375 177.894531 L 271.359375 176.128906 L 291.121094 176.109375 L 291.121094 177.875 " fill-opacity="1" fill-rule="nonzero"/><path fill="#ffffff" d="M 209.550781 97.320312 L 165.160156 97.125 C 164.09375 97.117188 163.316406 96.351562 163.316406 95.304688 L 163.316406 26.570312 C 163.316406 25.230469 164.5625 24.007812 165.929688 24.015625 L 210.320312 24.207031 C 211.390625 24.214844 212.167969 24.980469 212.167969 26.027344 L 212.167969 94.761719 C 212.167969 96.101562 210.917969 97.324219 209.550781 97.320312 " fill-opacity="1" fill-rule="nonzero"/><path fill="#caddff" d="M 207.117188 47.628906 C 208.601562 58.039062 201.023438 67.914062 190.195312 69.683594 C 179.367188 71.449219 168.734375 63.878906 167.710938 53.410156 C 166.605469 42.140625 173.988281 33.738281 184.816406 31.972656 C 195.648438 30.203125 205.632812 37.214844 207.117188 47.628906 " fill-opacity="1" fill-rule="nonzero"/><path fill="#99b9ff" d="M 187.863281 50.84375 L 200.484375 64.800781 C 205.296875 60.5625 207.96875 54.210938 207.03125 47.640625 C 206.4375 43.476562 204.484375 39.859375 201.660156 37.128906 L 187.863281 50.84375 " fill-opacity="1" fill-rule="nonzero"/><path fill="#5479f7" d="M 189.066406 31.742188 L 187.863281 50.84375 L 201.664062 37.132812 C 198.382812 33.953125 193.929688 31.980469 189.066406 31.742188 " fill-opacity="1" fill-rule="nonzero"/><path fill="#ffffff" d="M 193.480469 49.851562 C 193.933594 53.023438 191.625 56.035156 188.328125 56.574219 C 185.027344 57.113281 181.984375 54.976562 181.53125 51.804688 C 181.078125 48.628906 183.386719 45.621094 186.6875 45.082031 C 189.988281 44.542969 193.027344 46.679688 193.480469 49.851562 " fill-opacity="1" fill-rule="nonzero"/><path fill="#caddff" d="M 206.792969 80.882812 L 168.242188 80.960938 L 168.242188 76.871094 L 206.792969 76.792969 L 206.792969 80.882812 " fill-opacity="1" fill-rule="nonzero"/><path fill="#caddff" d="M 206.878906 88.46875 L 168.328125 88.546875 L 168.328125 84.460938 L 206.878906 84.382812 L 206.878906 88.46875 " fill-opacity="1" fill-rule="nonzero"/><path fill="#000000" d="M 163.316406 55.152344 C 162.957031 55.152344 162.664062 54.863281 162.664062 54.503906 L 162.664062 26.570312 C 162.664062 25.769531 163.019531 24.957031 163.632812 24.34375 C 164.261719 23.71875 165.09375 23.363281 165.917969 23.363281 C 165.921875 23.363281 165.925781 23.363281 165.929688 23.363281 L 210.324219 23.558594 C 211.742188 23.566406 212.8125 24.625 212.8125 26.027344 L 212.8125 47.097656 C 212.8125 47.457031 212.523438 47.75 212.167969 47.75 C 211.808594 47.75 211.519531 47.457031 211.519531 47.097656 L 211.519531 26.027344 C 211.519531 25.34375 211.023438 24.859375 210.320312 24.855469 L 165.925781 24.660156 C 165.921875 24.660156 165.921875 24.660156 165.917969 24.660156 C 165.433594 24.660156 164.933594 24.882812 164.550781 25.261719 C 164.175781 25.636719 163.964844 26.113281 163.964844 26.570312 L 163.964844 54.503906 C 163.964844 54.863281 163.671875 55.152344 163.316406 55.152344 " fill-opacity="1" fill-rule="nonzero"/><path fill="#caddff" d="M 344.164062 116.988281 L 280.300781 117.074219 L 280.300781 112.082031 L 344.164062 111.996094 L 344.164062 116.988281 " fill-opacity="1" fill-rule="nonzero"/><path fill="#caddff" d="M 344.464844 124.96875 L 280.597656 125.050781 L 280.597656 120.058594 L 344.464844 119.96875 L 344.464844 124.96875 " fill-opacity="1" fill-rule="nonzero"/><path fill="#caddff" d="M 344.5625 133.265625 L 280.699219 133.347656 L 280.699219 128.355469 L 344.5625 128.269531 L 344.5625 133.265625 " fill-opacity="1" fill-rule="nonzero"/><path fill="#caddff" d="M 344.5625 141 L 280.699219 141.082031 L 280.699219 136.089844 L 344.5625 136.003906 L 344.5625 141 " fill-opacity="1" fill-rule="nonzero"/><path fill="#caddff" d="M 339.785156 29.496094 L 311.792969 29.488281 L 311.792969 24.816406 L 339.785156 24.824219 L 339.785156 29.496094 " fill-opacity="1" fill-rule="nonzero"/><path fill="#caddff" d="M 347.585938 42.277344 L 311.792969 42.265625 L 311.792969 37.59375 L 347.585938 37.605469 L 347.585938 42.277344 " fill-opacity="1" fill-rule="nonzero"/><path fill="#caddff" d="M 347.585938 49.851562 L 311.792969 49.835938 L 311.792969 45.164062 L 347.585938 45.175781 L 347.585938 49.851562 " fill-opacity="1" fill-rule="nonzero"/><path fill="#caddff" d="M 347.585938 65.15625 L 311.792969 65.144531 L 311.792969 60.472656 L 347.585938 60.484375 L 347.585938 65.15625 " fill-opacity="1" fill-rule="nonzero"/><path fill="#caddff" d="M 347.585938 72.808594 L 311.792969 72.796875 L 311.792969 68.125 L 347.585938 68.136719 L 347.585938 72.808594 " fill-opacity="1" fill-rule="nonzero"/><path fill="#caddff" d="M 347.585938 80.382812 L 311.792969 80.371094 L 311.792969 75.476562 L 347.585938 75.488281 L 347.585938 80.382812 " fill-opacity="1" fill-rule="nonzero"/><path fill="#000000" d="M 136.054688 244.578125 C 136.394531 244.382812 136.734375 244.199219 137.082031 244.019531 C 140.128906 242.457031 143.421875 241.289062 146.621094 240.097656 C 158.476562 235.683594 170.691406 232.4375 182.769531 228.75 C 187.046875 227.445312 191.320312 226.164062 195.621094 224.960938 C 212.179688 189.347656 241.957031 124.472656 239.175781 124.472656 L 78.078125 118.089844 C 74.246094 118.089844 71.121094 121.289062 71.121094 125.21875 L 71.121094 240.597656 C 71.121094 244.527344 74.246094 247.726562 78.078125 247.726562 L 136.289062 243.679688 L 136.054688 244.578125 " fill-opacity="1" fill-rule="nonzero"/><path fill="#ffffff" d="M 251.78125 125.234375 C 251.78125 121.519531 248.847656 118.507812 245.226562 118.507812 L 81.265625 118.507812 C 77.644531 118.507812 74.710938 121.519531 74.710938 125.234375 L 74.710938 240.609375 C 74.710938 244.324219 77.644531 247.335938 81.265625 247.335938 L 245.226562 247.335938 C 248.847656 247.335938 251.78125 244.324219 251.78125 240.609375 L 251.78125 125.234375 " fill-opacity="1" fill-rule="nonzero"/><path fill="#000000" d="M 251.652344 190.933594 C 251.296875 190.933594 251.003906 190.640625 251.003906 190.28125 L 251.003906 125.363281 C 251.003906 122.015625 248.355469 119.289062 245.097656 119.289062 L 233.332031 119.289062 C 232.972656 119.289062 232.683594 118.996094 232.683594 118.640625 C 232.683594 118.28125 232.972656 117.992188 233.332031 117.992188 L 245.097656 117.992188 C 249.070312 117.992188 252.304688 121.296875 252.304688 125.363281 L 252.304688 190.28125 C 252.304688 190.640625 252.011719 190.933594 251.652344 190.933594 " fill-opacity="1" fill-rule="nonzero"/><path fill="#000000" d="M 194.382812 248.117188 L 81.136719 248.117188 C 77.164062 248.117188 73.933594 244.808594 73.933594 240.742188 L 73.933594 125.363281 C 73.933594 121.296875 77.164062 117.992188 81.136719 117.992188 L 88.035156 117.992188 C 88.394531 117.992188 88.683594 118.28125 88.683594 118.640625 C 88.683594 118.996094 88.394531 119.289062 88.035156 119.289062 L 81.136719 119.289062 C 77.878906 119.289062 75.230469 122.015625 75.230469 125.363281 L 75.230469 240.742188 C 75.230469 244.09375 77.878906 246.820312 81.136719 246.820312 L 194.382812 246.820312 C 194.738281 246.820312 195.03125 247.109375 195.03125 247.46875 C 195.03125 247.824219 194.738281 248.117188 194.382812 248.117188 " fill-opacity="1" fill-rule="nonzero"/><path fill="#caddff" d="M 246.144531 127.898438 C 246.144531 126.050781 244.683594 124.554688 242.886719 124.554688 L 83.863281 124.554688 C 82.0625 124.554688 80.605469 126.050781 80.605469 127.898438 L 80.605469 238.207031 C 80.605469 240.054688 82.0625 241.550781 83.863281 241.550781 L 242.886719 241.550781 C 244.683594 241.550781 246.144531 240.054688 246.144531 238.207031 L 246.144531 127.898438 " fill-opacity="1" fill-rule="nonzero"/><path fill="#99b9ff" d="M 120.003906 234.972656 L 120.027344 211.792969 L 110.226562 211.792969 L 110.203125 234.972656 L 120.003906 234.972656 " fill-opacity="1" fill-rule="nonzero"/><path fill="#99b9ff" d="M 131.753906 234.972656 L 132.015625 202.957031 L 122.214844 202.957031 L 121.953125 234.972656 L 131.753906 234.972656 " fill-opacity="1" fill-rule="nonzero"/><path fill="#99b9ff" d="M 143.503906 234.972656 L 143.683594 205.402344 L 133.882812 205.402344 L 133.703125 234.972656 L 143.503906 234.972656 " fill-opacity="1" fill-rule="nonzero"/><path fill="#99b9ff" d="M 155.25 234.972656 L 155.589844 194.5 L 145.789062 194.5 L 145.453125 234.972656 L 155.25 234.972656 " fill-opacity="1" fill-rule="nonzero"/><path fill="#99b9ff" d="M 167 234.972656 L 167.328125 183.976562 L 157.527344 183.976562 L 157.199219 234.972656 L 167 234.972656 " fill-opacity="1" fill-rule="nonzero"/><path fill="#99b9ff" d="M 178.75 234.972656 L 179.332031 187.167969 L 169.527344 187.167969 L 168.949219 234.972656 L 178.75 234.972656 " fill-opacity="1" fill-rule="nonzero"/><path fill="#99b9ff" d="M 190.722656 234.972656 L 191.457031 179.277344 L 181.65625 179.277344 L 180.921875 234.972656 L 190.722656 234.972656 " fill-opacity="1" fill-rule="nonzero"/><path fill="#99b9ff" d="M 202.6875 234.949219 L 203.683594 176.496094 L 193.882812 176.496094 L 192.886719 234.949219 L 202.6875 234.949219 " fill-opacity="1" fill-rule="nonzero"/><path fill="#99b9ff" d="M 214.660156 234.949219 L 215.292969 192.148438 L 205.492188 192.148438 L 204.859375 234.949219 L 214.660156 234.949219 " fill-opacity="1" fill-rule="nonzero"/><path fill="#99b9ff" d="M 226.632812 234.972656 L 227.496094 201.539062 L 217.699219 201.539062 L 216.835938 234.972656 L 226.632812 234.972656 " fill-opacity="1" fill-rule="nonzero"/><path fill="#99b9ff" d="M 238.601562 234.972656 L 239.089844 205.964844 L 229.292969 205.964844 L 228.804688 234.972656 L 238.601562 234.972656 " fill-opacity="1" fill-rule="nonzero"/><path fill="#000000" d="M 174.242188 177.144531 C 174.082031 177.144531 173.929688 177.085938 173.8125 176.980469 L 166.503906 170.523438 C 166.234375 170.289062 166.207031 169.878906 166.449219 169.609375 C 166.683594 169.34375 167.09375 169.316406 167.363281 169.554688 L 174.183594 175.578125 L 191.078125 156.359375 C 191.191406 156.230469 191.351562 156.152344 191.523438 156.140625 C 191.699219 156.128906 191.863281 156.1875 191.992188 156.304688 L 200.988281 164.25 L 211.699219 152.066406 C 211.933594 151.792969 212.34375 151.769531 212.613281 152.007812 C 212.882812 152.242188 212.910156 152.652344 212.671875 152.921875 L 201.53125 165.59375 C 201.417969 165.722656 201.257812 165.800781 201.085938 165.8125 C 200.910156 165.820312 200.746094 165.765625 200.617188 165.652344 L 191.621094 157.707031 L 174.726562 176.925781 C 174.613281 177.054688 174.453125 177.132812 174.28125 177.144531 C 174.265625 177.144531 174.253906 177.144531 174.242188 177.144531 " fill-opacity="1" fill-rule="nonzero"/><path fill="#000000" d="M 111.167969 206.132812 C 111.015625 206.132812 110.863281 206.078125 110.738281 205.96875 C 110.46875 205.734375 110.445312 205.324219 110.679688 205.054688 L 125.480469 188.214844 C 125.597656 188.085938 125.753906 188.007812 125.929688 187.996094 C 126.101562 187.984375 126.269531 188.042969 126.398438 188.15625 L 136.210938 196.824219 L 159.933594 169.835938 C 160.171875 169.566406 160.582031 169.539062 160.851562 169.777344 C 161.117188 170.011719 161.144531 170.421875 160.910156 170.691406 L 136.753906 198.167969 C 136.640625 198.300781 136.480469 198.378906 136.308594 198.386719 C 136.132812 198.398438 135.964844 198.339844 135.835938 198.226562 L 126.027344 189.558594 L 111.652344 205.910156 C 111.527344 206.058594 111.347656 206.132812 111.167969 206.132812 " fill-opacity="1" fill-rule="nonzero"/><path fill="#5479f7" d="M 124.320312 188.644531 C 124.203125 187.738281 124.847656 187.003906 125.761719 187.003906 C 126.671875 187.003906 127.503906 187.738281 127.621094 188.644531 C 127.734375 189.550781 127.089844 190.285156 126.175781 190.285156 C 125.265625 190.285156 124.433594 189.550781 124.320312 188.644531 " fill-opacity="1" fill-rule="nonzero"/><path fill="#000000" d="M 125.761719 185.707031 C 124.957031 185.707031 124.199219 186.039062 123.683594 186.625 C 123.167969 187.210938 122.929688 188.003906 123.03125 188.804688 C 123.226562 190.363281 124.609375 191.582031 126.175781 191.582031 C 126.984375 191.582031 127.742188 191.25 128.253906 190.664062 C 128.769531 190.078125 129.007812 189.285156 128.90625 188.480469 C 128.710938 186.925781 127.328125 185.707031 125.761719 185.707031 Z M 125.761719 187.003906 C 126.671875 187.003906 127.503906 187.738281 127.621094 188.644531 C 127.734375 189.550781 127.089844 190.285156 126.175781 190.285156 C 125.265625 190.285156 124.433594 189.550781 124.320312 188.644531 C 124.203125 187.738281 124.847656 187.003906 125.761719 187.003906 " fill-opacity="1" fill-rule="nonzero"/><path fill="#99b9ff" d="M 172.632812 176.429688 C 172.519531 175.523438 173.164062 174.789062 174.074219 174.789062 C 174.988281 174.789062 175.820312 175.523438 175.933594 176.429688 C 176.046875 177.335938 175.402344 178.070312 174.492188 178.070312 C 173.582031 178.070312 172.746094 177.335938 172.632812 176.429688 " fill-opacity="1" fill-rule="nonzero"/><path fill="#000000" d="M 174.074219 173.488281 C 173.269531 173.488281 172.511719 173.824219 171.996094 174.410156 C 171.484375 174.992188 171.246094 175.789062 171.347656 176.589844 C 171.542969 178.148438 172.925781 179.367188 174.492188 179.367188 C 175.296875 179.367188 176.054688 179.035156 176.570312 178.449219 C 177.085938 177.863281 177.324219 177.066406 177.222656 176.265625 C 177.023438 174.710938 175.644531 173.488281 174.074219 173.488281 Z M 174.074219 174.789062 C 174.988281 174.789062 175.820312 175.523438 175.933594 176.429688 C 176.046875 177.335938 175.402344 178.070312 174.492188 178.070312 C 173.582031 178.070312 172.746094 177.335938 172.632812 176.429688 C 172.519531 175.523438 173.164062 174.789062 174.074219 174.789062 " fill-opacity="1" fill-rule="nonzero"/><path fill="#5479f7" d="M 190.0625 156.605469 C 189.945312 155.699219 190.589844 154.964844 191.503906 154.964844 C 192.414062 154.964844 193.246094 155.699219 193.363281 156.605469 C 193.476562 157.511719 192.828125 158.246094 191.917969 158.246094 C 191.007812 158.246094 190.175781 157.511719 190.0625 156.605469 " fill-opacity="1" fill-rule="nonzero"/><path fill="#000000" d="M 191.503906 153.664062 C 190.695312 153.664062 189.9375 154 189.425781 154.585938 C 188.910156 155.171875 188.671875 155.964844 188.773438 156.765625 C 188.96875 158.324219 190.351562 159.542969 191.917969 159.542969 C 192.722656 159.542969 193.480469 159.207031 193.996094 158.625 C 194.511719 158.039062 194.75 157.242188 194.648438 156.441406 C 194.449219 154.882812 193.070312 153.664062 191.503906 153.664062 Z M 191.503906 154.964844 C 192.414062 154.964844 193.246094 155.699219 193.363281 156.605469 C 193.476562 157.511719 192.828125 158.246094 191.917969 158.246094 C 191.007812 158.246094 190.175781 157.511719 190.0625 156.605469 C 189.945312 155.699219 190.589844 154.964844 191.503906 154.964844 " fill-opacity="1" fill-rule="nonzero"/><path fill="#99b9ff" d="M 199.613281 165.042969 C 199.496094 164.136719 200.144531 163.402344 201.054688 163.402344 C 201.964844 163.402344 202.796875 164.136719 202.914062 165.042969 C 203.027344 165.949219 202.382812 166.683594 201.472656 166.683594 C 200.558594 166.683594 199.726562 165.949219 199.613281 165.042969 " fill-opacity="1" fill-rule="nonzero"/><path fill="#000000" d="M 201.054688 162.105469 C 200.25 162.105469 199.492188 162.4375 198.976562 163.023438 C 198.460938 163.609375 198.226562 164.402344 198.328125 165.203125 C 198.523438 166.761719 199.90625 167.980469 201.472656 167.980469 C 202.277344 167.980469 203.035156 167.644531 203.550781 167.0625 C 204.066406 166.476562 204.300781 165.679688 204.199219 164.878906 C 204.003906 163.324219 202.621094 162.105469 201.054688 162.105469 Z M 201.054688 163.402344 C 201.964844 163.402344 202.796875 164.136719 202.914062 165.042969 C 203.027344 165.949219 202.382812 166.683594 201.472656 166.683594 C 200.558594 166.683594 199.726562 165.949219 199.613281 165.042969 C 199.496094 164.136719 200.144531 163.402344 201.054688 163.402344 " fill-opacity="1" fill-rule="nonzero"/><path fill="#99b9ff" d="M 210.214844 152.980469 C 210.101562 152.074219 210.746094 151.339844 211.660156 151.339844 C 212.570312 151.339844 213.402344 152.074219 213.515625 152.980469 C 213.632812 153.886719 212.984375 154.621094 212.074219 154.621094 C 211.164062 154.621094 210.332031 153.886719 210.214844 152.980469 " fill-opacity="1" fill-rule="nonzero"/><path fill="#000000" d="M 211.660156 150.042969 C 210.851562 150.042969 210.09375 150.375 209.582031 150.960938 C 209.066406 151.546875 208.828125 152.339844 208.929688 153.144531 C 209.125 154.699219 210.507812 155.917969 212.074219 155.917969 C 212.882812 155.917969 213.640625 155.585938 214.152344 155 C 214.667969 154.414062 214.90625 153.621094 214.804688 152.816406 C 214.605469 151.261719 213.226562 150.042969 211.660156 150.042969 Z M 211.660156 151.339844 C 212.570312 151.339844 213.402344 152.074219 213.515625 152.980469 C 213.632812 153.886719 212.984375 154.621094 212.074219 154.621094 C 211.164062 154.621094 210.332031 153.886719 210.214844 152.980469 C 210.101562 152.074219 210.746094 151.339844 211.660156 151.339844 " fill-opacity="1" fill-rule="nonzero"/><path fill="#99b9ff" d="M 134.746094 197.546875 C 134.632812 196.644531 135.277344 195.910156 136.1875 195.910156 C 137.101562 195.910156 137.933594 196.644531 138.046875 197.546875 C 138.160156 198.457031 137.515625 199.191406 136.601562 199.191406 C 135.691406 199.191406 134.859375 198.457031 134.746094 197.546875 " fill-opacity="1" fill-rule="nonzero"/><path fill="#000000" d="M 136.1875 194.609375 C 135.382812 194.609375 134.625 194.945312 134.109375 195.53125 C 133.59375 196.113281 133.355469 196.910156 133.457031 197.714844 C 133.65625 199.269531 135.035156 200.488281 136.601562 200.488281 C 137.410156 200.488281 138.167969 200.152344 138.683594 199.570312 C 139.195312 198.984375 139.433594 198.1875 139.332031 197.386719 C 139.136719 195.832031 137.753906 194.609375 136.1875 194.609375 Z M 136.1875 195.910156 C 137.101562 195.910156 137.933594 196.644531 138.046875 197.546875 C 138.160156 198.457031 137.515625 199.191406 136.601562 199.191406 C 135.691406 199.191406 134.859375 198.457031 134.746094 197.546875 C 134.632812 196.644531 135.277344 195.910156 136.1875 195.910156 " fill-opacity="1" fill-rule="nonzero"/><path fill="#5479f7" d="M 161.742188 167.027344 C 161.625 166.121094 162.269531 165.386719 163.183594 165.386719 C 164.09375 165.386719 164.925781 166.121094 165.042969 167.027344 C 165.15625 167.933594 164.507812 168.667969 163.597656 168.667969 C 162.6875 168.667969 161.855469 167.933594 161.742188 167.027344 " fill-opacity="1" fill-rule="nonzero"/><path fill="#000000" d="M 163.183594 164.089844 C 162.375 164.089844 161.621094 164.425781 161.105469 165.007812 C 160.589844 165.59375 160.351562 166.390625 160.453125 167.191406 C 160.652344 168.746094 162.03125 169.96875 163.597656 169.96875 C 164.40625 169.96875 165.164062 169.632812 165.679688 169.046875 C 166.191406 168.464844 166.429688 167.667969 166.328125 166.867188 C 166.132812 165.308594 164.75 164.089844 163.183594 164.089844 Z M 163.183594 165.386719 C 164.097656 165.386719 164.925781 166.121094 165.042969 167.027344 C 165.15625 167.933594 164.511719 168.667969 163.597656 168.667969 C 162.6875 168.667969 161.855469 167.933594 161.742188 167.027344 C 161.625 166.121094 162.269531 165.386719 163.183594 165.386719 " fill-opacity="1" fill-rule="nonzero"/><path fill="#99b9ff" d="M 109.160156 205.609375 C 109.046875 204.703125 109.691406 203.96875 110.601562 203.96875 C 111.515625 203.96875 112.347656 204.703125 112.460938 205.609375 C 112.578125 206.515625 111.929688 207.25 111.019531 207.25 C 110.105469 207.25 109.273438 206.515625 109.160156 205.609375 " fill-opacity="1" fill-rule="nonzero"/><path fill="#000000" d="M 110.601562 202.671875 C 109.796875 202.671875 109.039062 203.003906 108.527344 203.589844 C 108.011719 204.175781 107.773438 204.96875 107.875 205.773438 C 108.070312 207.328125 109.453125 208.546875 111.019531 208.546875 C 111.824219 208.546875 112.582031 208.210938 113.097656 207.628906 C 113.613281 207.042969 113.851562 206.25 113.75 205.449219 C 113.550781 203.890625 112.167969 202.671875 110.601562 202.671875 Z M 110.601562 203.96875 C 111.515625 203.96875 112.347656 204.703125 112.460938 205.609375 C 112.578125 206.515625 111.929688 207.25 111.019531 207.25 C 110.105469 207.25 109.273438 206.515625 109.160156 205.609375 C 109.046875 204.703125 109.691406 203.96875 110.601562 203.96875 " fill-opacity="1" fill-rule="nonzero"/><path fill="#5479f7" d="M 165.691406 69.402344 L 87.683594 69.402344 C 85.949219 69.402344 84.542969 70.8125 84.542969 72.546875 L 84.542969 102.917969 C 84.542969 104.652344 85.949219 106.058594 87.683594 106.058594 L 165.691406 106.058594 C 167.425781 106.058594 168.832031 104.652344 168.832031 102.917969 L 168.832031 72.546875 C 168.832031 70.8125 167.425781 69.402344 165.691406 69.402344 " fill-opacity="1" fill-rule="nonzero"/><path fill="#ffffff" d="M 166.386719 75.207031 L 87.203125 75.207031 C 86.84375 75.207031 86.554688 74.914062 86.554688 74.558594 C 86.554688 74.199219 86.84375 73.910156 87.203125 73.910156 L 166.386719 73.910156 C 166.746094 73.910156 167.035156 74.199219 167.035156 74.558594 C 167.035156 74.914062 166.746094 75.207031 166.386719 75.207031 " fill-opacity="1" fill-rule="nonzero"/><path fill="#ffffff" d="M 90.140625 71.820312 C 90.140625 72.265625 89.78125 72.625 89.335938 72.625 C 88.890625 72.625 88.53125 72.265625 88.53125 71.820312 C 88.53125 71.375 88.890625 71.015625 89.335938 71.015625 C 89.78125 71.015625 90.140625 71.375 90.140625 71.820312 " fill-opacity="1" fill-rule="nonzero"/><path fill="#ffffff" d="M 93.363281 71.820312 C 93.363281 72.265625 93.003906 72.625 92.558594 72.625 C 92.113281 72.625 91.753906 72.265625 91.753906 71.820312 C 91.753906 71.375 92.113281 71.015625 92.558594 71.015625 C 93.003906 71.015625 93.363281 71.375 93.363281 71.820312 " fill-opacity="1" fill-rule="nonzero"/><path fill="#ffffff" d="M 96.585938 71.820312 C 96.585938 72.265625 96.222656 72.625 95.777344 72.625 C 95.335938 72.625 94.972656 72.265625 94.972656 71.820312 C 94.972656 71.375 95.335938 71.015625 95.777344 71.015625 C 96.222656 71.015625 96.585938 71.375 96.585938 71.820312 " fill-opacity="1" fill-rule="nonzero"/><path fill="#ffffff" d="M 166.386719 72.386719 L 161.773438 72.386719 C 161.417969 72.386719 161.125 72.09375 161.125 71.738281 C 161.125 71.378906 161.417969 71.089844 161.773438 71.089844 L 166.386719 71.089844 C 166.746094 71.089844 167.035156 71.378906 167.035156 71.738281 C 167.035156 72.09375 166.746094 72.386719 166.386719 72.386719 " fill-opacity="1" fill-rule="nonzero"/><path fill="#ffffff" d="M 159.726562 72.386719 L 107.703125 72.386719 C 107.34375 72.386719 107.054688 72.09375 107.054688 71.738281 C 107.054688 71.378906 107.34375 71.089844 107.703125 71.089844 L 159.726562 71.089844 C 160.082031 71.089844 160.371094 71.378906 160.371094 71.738281 C 160.371094 72.09375 160.082031 72.386719 159.726562 72.386719 " fill-opacity="1" fill-rule="nonzero"/><path fill="#ffffff" d="M 102.578125 72.386719 L 98.734375 72.386719 C 98.378906 72.386719 98.085938 72.09375 98.085938 71.738281 C 98.085938 71.378906 98.378906 71.089844 98.734375 71.089844 L 102.578125 71.089844 C 102.9375 71.089844 103.226562 71.378906 103.226562 71.738281 C 103.226562 72.09375 102.9375 72.386719 102.578125 72.386719 " fill-opacity="1" fill-rule="nonzero"/><path fill="#ffffff" d="M 110.011719 99.804688 L 89.507812 99.804688 L 89.507812 79.300781 L 110.011719 79.300781 L 110.011719 99.804688 " fill-opacity="1" fill-rule="nonzero"/><path fill="#caddff" d="M 118.253906 83.855469 L 113.746094 83.855469 L 113.746094 79.34375 L 118.253906 79.34375 L 118.253906 83.855469 " fill-opacity="1" fill-rule="nonzero"/><path fill="#ffffff" d="M 164.335938 83.914062 L 121.285156 83.914062 L 121.285156 79.300781 L 164.335938 79.300781 L 164.335938 83.914062 " fill-opacity="1" fill-rule="nonzero"/><path fill="#caddff" d="M 118.253906 91.925781 L 113.746094 91.925781 L 113.746094 87.414062 L 118.253906 87.414062 L 118.253906 91.925781 " fill-opacity="1" fill-rule="nonzero"/><path fill="#ffffff" d="M 164.335938 91.859375 L 121.285156 91.859375 L 121.285156 87.242188 L 164.335938 87.242188 L 164.335938 91.859375 " fill-opacity="1" fill-rule="nonzero"/><path fill="#caddff" d="M 118.253906 99.996094 L 113.746094 99.996094 L 113.746094 95.484375 L 118.253906 95.484375 L 118.253906 99.996094 " fill-opacity="1" fill-rule="nonzero"/><path fill="#ffffff" d="M 164.335938 99.804688 L 121.285156 99.804688 L 121.285156 95.449219 L 164.335938 95.449219 L 164.335938 99.804688 " fill-opacity="1" fill-rule="nonzero"/><path fill="#5479f7" d="M 98.609375 96.140625 L 98.609375 94.558594 C 97.496094 94.511719 96.414062 94.210938 95.777344 93.84375 L 96.277344 91.894531 C 96.976562 92.277344 97.960938 92.628906 99.042969 92.628906 C 99.992188 92.628906 100.640625 92.261719 100.640625 91.59375 C 100.640625 90.960938 100.109375 90.5625 98.875 90.144531 C 97.09375 89.546875 95.878906 88.710938 95.878906 87.097656 C 95.878906 85.628906 96.910156 84.480469 98.695312 84.132812 L 98.695312 82.550781 L 100.324219 82.550781 L 100.324219 84.015625 C 101.441406 84.066406 102.191406 84.296875 102.742188 84.566406 L 102.257812 86.449219 C 101.824219 86.261719 101.058594 85.882812 99.859375 85.882812 C 98.777344 85.882812 98.425781 86.347656 98.425781 86.8125 C 98.425781 87.363281 99.011719 87.710938 100.425781 88.246094 C 102.40625 88.945312 103.207031 89.863281 103.207031 91.359375 C 103.207031 92.84375 102.15625 94.109375 100.242188 94.445312 L 100.242188 96.140625 L 98.609375 96.140625 " fill-opacity="1" fill-rule="nonzero"/><path fill="#99b9ff" d="M 243.707031 312.984375 C 248.441406 294.503906 264.429688 281.929688 281.328125 296.996094 C 287.300781 308.550781 269.683594 318.953125 249.628906 320.128906 C 245.757812 320.355469 242.742188 316.742188 243.707031 312.984375 " fill-opacity="1" fill-rule="nonzero"/><path fill="#ffffff" d="M 263.523438 290.675781 C 260.960938 289.359375 257.171875 287.804688 250.484375 288.824219 C 243.109375 289.949219 241.460938 295.394531 229.902344 297.832031 C 210.023438 302.023438 219.8125 313.664062 219.8125 313.664062 L 235.273438 306.664062 C 236.273438 306.210938 237.382812 306.03125 238.476562 306.152344 C 241.847656 306.523438 249.917969 307.125 257.265625 305.464844 C 262.765625 304.222656 270.011719 308.789062 273.910156 305.351562 C 276.175781 303.351562 268.984375 293.480469 263.523438 290.675781 " fill-opacity="1" fill-rule="nonzero"/><path fill="#000000" d="M 254.578125 289.144531 C 253.375 289.144531 252.050781 289.242188 250.582031 289.464844 C 247.332031 289.960938 245.226562 291.339844 242.785156 292.941406 C 239.796875 294.902344 236.40625 297.125 230.035156 298.464844 C 223.40625 299.863281 219.484375 302.210938 218.371094 305.4375 C 217.285156 308.59375 219.242188 311.777344 220.015625 312.859375 L 235.007812 306.070312 C 236.113281 305.570312 237.34375 305.375 238.546875 305.507812 C 241.695312 305.855469 249.808594 306.484375 257.125 304.832031 C 259.605469 304.273438 262.339844 304.8125 264.988281 305.339844 C 268.332031 306 271.484375 306.625 273.484375 304.863281 C 273.710938 304.660156 273.710938 304.222656 273.671875 303.890625 C 273.28125 300.75 267.710938 293.554688 263.226562 291.253906 C 261.121094 290.171875 258.484375 289.144531 254.578125 289.144531 Z M 219.8125 314.3125 C 219.625 314.3125 219.441406 314.234375 219.316406 314.082031 C 219.160156 313.898438 215.578125 309.5625 217.144531 305.015625 C 218.414062 301.328125 222.664062 298.695312 229.765625 297.199219 C 235.898438 295.902344 239.179688 293.753906 242.074219 291.855469 C 244.535156 290.242188 246.859375 288.722656 250.386719 288.183594 C 256.976562 287.175781 260.878906 288.585938 263.820312 290.097656 C 268.4375 292.46875 274.472656 299.859375 274.957031 303.730469 C 275.101562 304.894531 274.703125 305.519531 274.339844 305.839844 C 271.863281 308.019531 268.242188 307.304688 264.734375 306.609375 C 262.222656 306.113281 259.621094 305.597656 257.410156 306.097656 C 249.90625 307.792969 241.617188 307.152344 238.40625 306.796875 C 237.429688 306.691406 236.441406 306.847656 235.542969 307.253906 L 220.078125 314.253906 C 219.992188 314.292969 219.902344 314.3125 219.8125 314.3125 " fill-opacity="1" fill-rule="nonzero"/><path fill="#5479f7" d="M 231.625 295.273438 C 229.585938 292.941406 226.34375 292 223.34375 292.851562 C 208.859375 296.941406 161.695312 309.386719 154.320312 300.101562 C 150.113281 294.796875 140.554688 279.179688 130.019531 264.902344 C 123.203125 255.660156 115.972656 246.984375 109.523438 242.035156 C 106.101562 239.40625 101.570312 237.273438 96.441406 235.535156 C 90.800781 231.554688 84.421875 228.199219 79.332031 225.640625 C 58.4375 215.148438 22.46875 207.988281 8.636719 222.683594 C 2.585938 229.113281 1.429688 234.882812 1.421875 244.980469 C 1.421875 246.820312 1.617188 248.660156 1.984375 250.464844 C 17.238281 324.949219 55.414062 339.894531 84.433594 347.875 C 92.679688 350.140625 105.285156 356.6875 139.347656 357.574219 L 136.164062 350.898438 C 156.695312 354.082031 167.945312 347.9375 181.949219 342.910156 C 202.980469 335.363281 235.820312 315.441406 236.257812 307.726562 C 236.570312 302.28125 234.03125 298.035156 231.625 295.273438 " fill-opacity="1" fill-rule="nonzero"/><path fill="#ffffff" d="M 33.519531 226.453125 C 33.519531 226.453125 56.21875 236.964844 64.617188 226.453125 C 67.214844 223.199219 63.292969 206.210938 63.292969 206.210938 C 67.3125 206.40625 72.761719 207.085938 74.894531 205.292969 C 78.664062 202.136719 79.886719 188.84375 79.886719 188.84375 L 83.714844 186.90625 C 84.101562 186.796875 84.425781 186.53125 84.605469 186.171875 C 84.785156 185.8125 84.808594 185.394531 84.664062 185.019531 C 82.75 179.980469 80.382812 178.007812 80.050781 173.195312 C 79.71875 168.453125 80.125 169.246094 77.214844 158.585938 L 48.1875 152.761719 L 43.691406 174.496094 C 43.691406 174.496094 39.808594 170.730469 36.210938 174.058594 C 33.597656 176.484375 36.257812 186.839844 39.941406 187.578125 L 33.519531 226.453125 " fill-opacity="1" fill-rule="nonzero"/><path fill="#000000" d="M 34.242188 226.0625 C 37.441406 227.441406 56.761719 235.246094 64.109375 226.046875 C 65.871094 223.839844 64.210938 213.0625 62.664062 206.355469 C 62.617188 206.15625 62.664062 205.949219 62.796875 205.792969 C 62.925781 205.636719 63.121094 205.546875 63.324219 205.5625 C 63.921875 205.589844 64.546875 205.628906 65.1875 205.671875 C 68.605469 205.886719 72.859375 206.15625 74.480469 204.800781 C 77.402344 202.347656 78.910156 192.40625 79.242188 188.785156 C 79.261719 188.5625 79.394531 188.367188 79.59375 188.265625 L 83.421875 186.324219 C 83.457031 186.304688 83.5 186.289062 83.539062 186.277344 C 83.75 186.222656 83.929688 186.074219 84.027344 185.878906 C 84.125 185.683594 84.136719 185.453125 84.058594 185.25 C 83.367188 183.425781 82.625 182.035156 81.90625 180.695312 C 80.683594 178.394531 79.625 176.410156 79.402344 173.242188 C 79.359375 172.59375 79.328125 172.050781 79.300781 171.566406 C 79.128906 168.578125 79.089844 167.921875 76.695312 159.140625 L 48.691406 153.527344 L 44.328125 174.628906 C 44.277344 174.859375 44.109375 175.046875 43.882812 175.117188 C 43.65625 175.1875 43.410156 175.128906 43.238281 174.964844 C 43.101562 174.828125 39.75 171.671875 36.652344 174.535156 C 35.632812 175.480469 35.527344 178.40625 36.398438 181.5 C 37.242188 184.484375 38.714844 186.667969 40.070312 186.941406 C 40.410156 187.007812 40.640625 187.335938 40.582031 187.683594 Z M 52.792969 231.800781 C 43.679688 231.800781 33.867188 227.328125 33.25 227.042969 C 32.984375 226.917969 32.832031 226.632812 32.878906 226.347656 L 39.210938 188.023438 C 37.277344 187.191406 35.863281 184.375 35.152344 181.847656 C 34.359375 179.035156 34.042969 175.183594 35.769531 173.585938 C 38.460938 171.089844 41.488281 172.082031 43.273438 173.320312 L 47.550781 152.632812 C 47.621094 152.28125 47.964844 152.058594 48.3125 152.128906 L 77.339844 157.949219 C 77.582031 157.996094 77.773438 158.175781 77.839844 158.414062 C 80.375 167.695312 80.414062 168.347656 80.59375 171.492188 C 80.621094 171.972656 80.652344 172.507812 80.695312 173.148438 C 80.898438 176.042969 81.847656 177.828125 83.050781 180.082031 C 83.753906 181.398438 84.546875 182.886719 85.273438 184.785156 C 85.480469 185.335938 85.449219 185.945312 85.183594 186.464844 C 84.933594 186.960938 84.488281 187.339844 83.953125 187.511719 L 80.5 189.265625 C 80.269531 191.472656 78.925781 202.761719 75.3125 205.792969 C 73.292969 207.484375 68.945312 207.210938 65.105469 206.964844 C 64.769531 206.945312 64.4375 206.921875 64.113281 206.902344 C 64.9375 210.652344 67.585938 223.773438 65.121094 226.859375 C 62.15625 230.566406 57.570312 231.800781 52.792969 231.800781 " fill-opacity="1" fill-rule="nonzero"/><path fill="#000000" d="M 34.382812 195.363281 C 39.617188 198.839844 46.519531 195.875 47.761719 195.34375 C 52.621094 193.257812 57.425781 188.484375 56.496094 185.554688 C 55.984375 183.941406 54.203125 184.265625 52.582031 182.058594 C 50.191406 178.8125 50.746094 173.34375 52.773438 172.382812 C 54.433594 171.59375 55.941406 174.375 58.433594 173.917969 C 61.476562 173.359375 61.21875 168.851562 64.289062 165.777344 C 69.304688 160.753906 76.261719 166.496094 84.078125 161.820312 C 89.179688 158.769531 92.773438 152.351562 91.558594 147.84375 C 91.203125 146.523438 90.457031 145.242188 89.226562 144.050781 C 81.066406 136.164062 77.667969 143.007812 68.308594 140.550781 C 49.039062 135.5 38.574219 136.789062 32.933594 143.8125 C 29.105469 148.582031 29.652344 157.980469 29.917969 162.527344 C 30.003906 164.050781 30.269531 166.941406 30.03125 171.074219 C 29.769531 175.59375 29.195312 176.617188 29.011719 179.308594 C 28.886719 181.195312 28.210938 191.253906 34.382812 195.363281 " fill-opacity="1" fill-rule="nonzero"/><path fill="#ffffff" d="M 8.65625 258.265625 C 22.140625 267.28125 50.011719 280.519531 102.328125 277.289062 C 105.902344 277.066406 109.207031 279.210938 110.46875 282.601562 L 113.582031 295.214844 C 118.863281 316.578125 128.789062 336.484375 142.636719 353.480469 L 152.347656 365.394531 C 152.625 365.734375 152.363281 366.25 151.925781 366.214844 L 116.375 363.574219 C 61.359375 356.210938 18.617188 328.300781 4.90625 277.457031 L 1.066406 264.429688 C 0.21875 261.289062 5.96875 256.46875 8.65625 258.265625 " fill-opacity="1" fill-rule="nonzero"/><path fill="#000000" d="M 152.117188 365.921875 C 151.925781 365.921875 151.738281 365.839844 151.609375 365.679688 L 142.347656 354.152344 C 128.386719 337.023438 118.191406 316.578125 112.871094 295.035156 L 109.847656 282.792969 C 108.675781 279.683594 105.671875 277.730469 102.367188 277.9375 C 52.753906 281 22.148438 267.273438 8.320312 258.820312 C 6.777344 257.875 4.917969 257.964844 3.476562 259.046875 C 2.324219 259.90625 1.300781 261.585938 1.878906 263.726562 L 5.535156 277.285156 C 17.691406 322.371094 54.390625 352.375 108.871094 361.769531 C 109.222656 361.832031 109.460938 362.167969 109.402344 362.519531 C 109.339844 362.875 109.003906 363.109375 108.652344 363.050781 C 82.089844 358.46875 59.695312 349.132812 42.089844 335.300781 C 23.351562 320.582031 10.632812 301.175781 4.28125 277.625 L 0.625 264.0625 C 0.00390625 261.753906 0.796875 259.433594 2.699219 258.007812 C 4.578125 256.601562 6.988281 256.488281 8.996094 257.714844 C 22.695312 266.089844 53.027344 279.683594 102.289062 276.640625 C 106.175781 276.410156 109.710938 278.707031 111.078125 282.378906 C 111.085938 282.398438 111.09375 282.425781 111.097656 282.449219 L 114.132812 294.722656 C 119.40625 316.082031 129.511719 336.347656 143.355469 353.332031 L 152.621094 364.867188 C 152.84375 365.148438 152.800781 365.558594 152.519531 365.78125 C 152.402344 365.875 152.257812 365.921875 152.117188 365.921875 " fill-opacity="1" fill-rule="nonzero"/></svg>