<svg width="995" height="98" viewBox="0 0 995 98" fill="none" xmlns="http://www.w3.org/2000/svg">
<path d="M84 84C84 87.8667 82.6 91.2 79.8 94C77.1333 96.6667 73.8667 98 70 98H14C10.1333 98 6.8 96.6667 4 94C1.33333 91.2 1.78814e-07 87.8667 1.78814e-07 84V14C1.78814e-07 10.1333 1.33333 6.86666 4 4.2C6.8 1.4 10.1333 -1.90735e-06 14 -1.90735e-06H70C73.8667 -1.90735e-06 77.1333 1.4 79.8 4.2C82.6 6.86666 84 10.1333 84 14V28H68V14H16V84H68V70H84V84ZM183.086 84C183.086 87.8667 181.686 91.2 178.886 94C176.219 96.6667 172.953 98 169.086 98H127.086C123.219 98 119.886 96.6667 117.086 94C114.419 91.2 113.086 87.8667 113.086 84V14C113.086 10.1333 114.419 6.86666 117.086 4.2C119.886 1.4 123.219 -1.90735e-06 127.086 -1.90735e-06H169.086C172.953 -1.90735e-06 176.219 1.4 178.886 4.2C181.686 6.86666 183.086 10.1333 183.086 14V84ZM167.086 84V14H129.086V84H167.086ZM301.992 84C301.992 87.7333 300.592 91 297.792 93.8C294.992 96.6 291.726 98 287.992 98H217.992V28L231.992 14H217.992V-1.90735e-06H287.992C291.726 -1.90735e-06 294.992 1.4 297.792 4.2C300.592 7 301.992 10.2667 301.992 14V84ZM285.992 84V14H233.992V96L245.992 84H285.992ZM405.938 84C405.938 87.8667 404.538 91.2 401.738 94C399.071 96.6667 395.804 98 391.938 98H349.938C346.071 98 342.738 96.6667 339.938 94C337.271 91.2 335.938 87.8667 335.938 84V70H351.938V84H389.938V56H363.938V44.4L391.938 16V14H335.938V-1.90735e-06H405.938V20.2L384.138 42V44C384.138 43.8667 384.871 43.8 386.338 43.8C387.004 43.8 387.804 43.8 388.738 43.8C389.671 43.8 390.738 43.8667 391.938 44C395.804 44.1333 399.071 45.6 401.738 48.4C404.538 51.0667 405.938 54.2667 405.938 58V84ZM526.844 98H506.444L464.844 56H508.844V14H456.844V98H440.844V27.8L454.844 14H440.844V-1.90735e-06H510.844C514.577 -1.90735e-06 517.844 1.4 520.644 4.2C523.444 7 524.844 10.2667 524.844 14V52C524.844 62.6667 520.177 68 510.844 68H498.844V70.2L526.844 98ZM693.922 97.8H677.922V24.2L683.922 14.2H674.922L650.322 70H638.722L614.922 14.2H605.922L611.922 24.2V97.8H595.922V-1.90735e-06H624.522L644.322 46.8H646.322L666.122 -1.90735e-06H693.922V97.8ZM798.906 84C798.906 87.8667 797.506 91.2 794.706 94C792.04 96.6667 788.773 98 784.906 98H742.906C739.04 98 735.706 96.6667 732.906 94C730.24 91.2 728.906 87.8667 728.906 84V70H744.906V84H782.906V56H756.906V44.4L784.906 16V14H728.906V-1.90735e-06H798.906V20.2L777.106 42V44C777.106 43.8667 777.84 43.8 779.306 43.8C779.973 43.8 780.773 43.8 781.706 43.8C782.64 43.8 783.706 43.8667 784.906 44C788.773 44.1333 792.04 45.6 794.706 48.4C797.506 51.0667 798.906 54.2667 798.906 58V84ZM902.813 84C902.813 87.8667 901.413 91.2 898.613 94C895.946 96.6667 892.679 98 888.813 98H846.813C842.946 98 839.613 96.6667 836.813 94C834.146 91.2 832.813 87.8667 832.813 84V70H848.813V84H886.813V56H860.813V44.4L888.813 16V14H832.813V-1.90735e-06H902.813V20.2L881.013 42V44C881.013 43.8667 881.746 43.8 883.213 43.8C883.879 43.8 884.679 43.8 885.613 43.8C886.546 43.8 887.613 43.8667 888.813 44C892.679 44.1333 895.946 45.6 898.613 48.4C901.413 51.0667 902.813 54.2667 902.813 58V84ZM994.719 14H965.719V98H949.719V14H920.719V-1.90735e-06H994.719V14Z" fill="black"/>
</svg>
